<?xml version="1.0" encoding="utf-8"?>
<!-- Generator: Adobe Illustrator 25.3.1, SVG Export Plug-In . SVG Version: 6.00 Build 0)  -->
<svg version="1.1" id="Ebene_1" xmlns="http://www.w3.org/2000/svg" xmlns:xlink="http://www.w3.org/1999/xlink" x="0px" y="0px"
	 viewBox="0 0 460.8 345.6" style="enable-background:new 0 0 460.8 345.6;" xml:space="preserve">
<style type="text/css">
	.st0{fill:#FFFFFF;}
	.st1{clip-path:url(#SVGID_2_);fill:none;stroke:#D3D3D3;stroke-width:1.5;stroke-linejoin:round;}
	.st2{clip-path:url(#SVGID_4_);fill:none;stroke:#D3D3D3;stroke-width:1.5;stroke-linejoin:round;}
	.st3{clip-path:url(#SVGID_6_);fill:none;stroke:#D3D3D3;stroke-width:1.5;stroke-linejoin:round;}
	.st4{clip-path:url(#SVGID_8_);fill:none;stroke:#D3D3D3;stroke-width:1.5;stroke-linejoin:round;}
	.st5{clip-path:url(#SVGID_10_);fill:none;stroke:#D3D3D3;stroke-width:1.5;stroke-linejoin:round;}
	.st6{clip-path:url(#SVGID_12_);fill:none;stroke:#D3D3D3;stroke-width:1.5;stroke-linejoin:round;}
	.st7{clip-path:url(#SVGID_14_);fill:none;stroke:#D3D3D3;stroke-width:1.5;stroke-linejoin:round;}
	.st8{clip-path:url(#SVGID_16_);fill:none;stroke:#D3D3D3;stroke-width:1.5;stroke-linejoin:round;}
	.st9{clip-path:url(#SVGID_18_);fill:none;stroke:#D3D3D3;stroke-width:1.5;stroke-linejoin:round;}
	.st10{clip-path:url(#SVGID_20_);fill:none;stroke:#D3D3D3;stroke-width:1.5;stroke-linejoin:round;}
	.st11{clip-path:url(#SVGID_22_);fill:none;stroke:#D3D3D3;stroke-width:1.5;stroke-linejoin:round;}
	.st12{clip-path:url(#SVGID_24_);fill:none;stroke:#D3D3D3;stroke-width:1.5;stroke-linejoin:round;}
	.st13{clip-path:url(#SVGID_26_);fill:none;stroke:#D3D3D3;stroke-width:1.5;stroke-linejoin:round;}
	.st14{clip-path:url(#SVGID_28_);fill:none;stroke:#D3D3D3;stroke-width:1.5;stroke-linejoin:round;}
	.st15{clip-path:url(#SVGID_30_);fill:none;stroke:#D3D3D3;stroke-width:1.5;stroke-linejoin:round;}
	.st16{clip-path:url(#SVGID_32_);fill:none;stroke:#D3D3D3;stroke-width:1.5;stroke-linejoin:round;}
	.st17{clip-path:url(#SVGID_34_);fill:none;stroke:#D3D3D3;stroke-width:1.5;stroke-linejoin:round;}
	.st18{clip-path:url(#SVGID_36_);fill:none;stroke:#D3D3D3;stroke-width:1.5;stroke-linejoin:round;}
	.st19{clip-path:url(#SVGID_38_);fill:none;stroke:#D3D3D3;stroke-width:1.5;stroke-linejoin:round;}
	.st20{clip-path:url(#SVGID_40_);fill:none;stroke:#D3D3D3;stroke-width:1.5;stroke-linejoin:round;}
	.st21{clip-path:url(#SVGID_42_);fill:none;stroke:#D3D3D3;stroke-width:1.5;stroke-linejoin:round;}
	.st22{clip-path:url(#SVGID_44_);fill:none;stroke:#D3D3D3;stroke-width:1.5;stroke-linejoin:round;}
	.st23{clip-path:url(#SVGID_46_);fill:none;stroke:#D3D3D3;stroke-width:1.5;stroke-linejoin:round;}
	.st24{clip-path:url(#SVGID_48_);fill:none;stroke:#D3D3D3;stroke-width:1.5;stroke-linejoin:round;}
	.st25{clip-path:url(#SVGID_50_);fill:none;stroke:#D3D3D3;stroke-width:1.5;stroke-linejoin:round;}
	.st26{clip-path:url(#SVGID_52_);fill:none;stroke:#D3D3D3;stroke-width:1.5;stroke-linejoin:round;}
	.st27{clip-path:url(#SVGID_54_);fill:none;stroke:#D3D3D3;stroke-width:1.5;stroke-linejoin:round;}
	.st28{clip-path:url(#SVGID_56_);fill:none;stroke:#D3D3D3;stroke-width:1.5;stroke-linejoin:round;}
	.st29{clip-path:url(#SVGID_58_);fill:none;stroke:#000000;stroke-width:1.5;stroke-linejoin:round;}
	.st30{clip-path:url(#SVGID_60_);fill:none;stroke:#000000;stroke-width:1.5;stroke-linejoin:round;}
	.st31{clip-path:url(#SVGID_62_);fill:none;stroke:#000000;stroke-width:1.5;stroke-linejoin:round;}
	.st32{clip-path:url(#SVGID_64_);fill:none;stroke:#000000;stroke-width:1.5;stroke-linejoin:round;}
	.st33{clip-path:url(#SVGID_66_);fill:none;stroke:#000000;stroke-width:1.5;stroke-linejoin:round;}
	.st34{clip-path:url(#SVGID_68_);fill:none;stroke:#000000;stroke-width:1.5;stroke-linejoin:round;}
	.st35{clip-path:url(#SVGID_70_);fill:none;stroke:#000000;stroke-width:1.5;stroke-linejoin:round;}
	.st36{clip-path:url(#SVGID_72_);fill:none;stroke:#000000;stroke-width:1.5;stroke-linejoin:round;}
	.st37{clip-path:url(#SVGID_74_);fill:none;stroke:#000000;stroke-width:1.5;stroke-linejoin:round;}
	.st38{clip-path:url(#SVGID_76_);fill:none;stroke:#000000;stroke-width:1.5;stroke-linejoin:round;}
	.st39{clip-path:url(#SVGID_78_);fill:none;stroke:#000000;stroke-width:1.5;stroke-linejoin:round;}
	.st40{clip-path:url(#SVGID_80_);fill:none;stroke:#000000;stroke-width:1.5;stroke-linejoin:round;}
	.st41{clip-path:url(#SVGID_82_);fill:none;stroke:#000000;stroke-width:1.5;stroke-linejoin:round;}
	.st42{clip-path:url(#SVGID_84_);fill:none;stroke:#000000;stroke-width:1.5;stroke-linejoin:round;}
	.st43{clip-path:url(#SVGID_86_);fill:none;stroke:#000000;stroke-width:1.5;stroke-linejoin:round;}
	.st44{clip-path:url(#SVGID_88_);fill:none;stroke:#000000;stroke-width:1.5;stroke-linejoin:round;}
	.st45{clip-path:url(#SVGID_90_);fill:none;stroke:#000000;stroke-width:1.5;stroke-linejoin:round;}
	.st46{clip-path:url(#SVGID_92_);fill:none;stroke:#000000;stroke-width:1.5;stroke-linejoin:round;}
	.st47{clip-path:url(#SVGID_94_);fill:none;stroke:#000000;stroke-width:1.5;stroke-linejoin:round;}
	.st48{clip-path:url(#SVGID_96_);fill:none;stroke:#000000;stroke-width:1.5;stroke-linejoin:round;}
	.st49{clip-path:url(#SVGID_98_);fill:none;stroke:#000000;stroke-width:1.5;stroke-linejoin:round;}
	.st50{clip-path:url(#SVGID_100_);fill:none;stroke:#000000;stroke-width:1.5;stroke-linejoin:round;}
	.st51{clip-path:url(#SVGID_102_);fill:none;stroke:#000000;stroke-width:1.5;stroke-linejoin:round;}
	.st52{clip-path:url(#SVGID_104_);fill:none;stroke:#000000;stroke-width:1.5;stroke-linejoin:round;}
	.st53{clip-path:url(#SVGID_106_);fill:none;stroke:#000000;stroke-width:1.5;stroke-linejoin:round;}
	.st54{clip-path:url(#SVGID_108_);fill:none;stroke:#000000;stroke-width:1.5;stroke-linejoin:round;}
	.st55{clip-path:url(#SVGID_110_);fill:none;stroke:#000000;stroke-width:1.5;stroke-linejoin:round;}
	.st56{clip-path:url(#SVGID_112_);fill:none;stroke:#000000;stroke-width:1.5;stroke-linejoin:round;}
	.st57{clip-path:url(#SVGID_114_);fill:none;stroke:#000000;stroke-width:1.5;stroke-linejoin:round;}
	.st58{clip-path:url(#SVGID_116_);fill:none;stroke:#000000;stroke-width:1.5;stroke-linejoin:round;}
	.st59{clip-path:url(#SVGID_118_);fill:none;stroke:#000000;stroke-width:1.5;stroke-linejoin:round;}
	.st60{clip-path:url(#SVGID_120_);fill:none;stroke:#000000;stroke-width:1.5;stroke-linejoin:round;}
	.st61{clip-path:url(#SVGID_122_);fill:none;stroke:#000000;stroke-width:1.5;stroke-linejoin:round;}
	.st62{clip-path:url(#SVGID_124_);fill:none;stroke:#000000;stroke-width:1.5;stroke-linejoin:round;}
	.st63{clip-path:url(#SVGID_126_);fill:none;stroke:#000000;stroke-width:1.5;stroke-linejoin:round;}
	.st64{clip-path:url(#SVGID_128_);fill:none;stroke:#000000;stroke-width:1.5;stroke-linejoin:round;}
	.st65{clip-path:url(#SVGID_130_);fill:none;stroke:#000000;stroke-width:1.5;stroke-linejoin:round;}
	.st66{clip-path:url(#SVGID_132_);fill:none;stroke:#000000;stroke-width:1.5;stroke-linejoin:round;}
	.st67{clip-path:url(#SVGID_134_);fill:none;stroke:#000000;stroke-width:1.5;stroke-linejoin:round;}
	.st68{clip-path:url(#SVGID_136_);fill:none;stroke:#000000;stroke-width:1.5;stroke-linejoin:round;}
	.st69{clip-path:url(#SVGID_138_);fill:none;stroke:#000000;stroke-width:1.5;stroke-linejoin:round;}
	.st70{clip-path:url(#SVGID_140_);fill:none;stroke:#000000;stroke-width:1.5;stroke-linejoin:round;}
	.st71{clip-path:url(#SVGID_142_);fill:none;stroke:#000000;stroke-width:1.5;stroke-linejoin:round;}
	.st72{clip-path:url(#SVGID_144_);fill:none;stroke:#000000;stroke-width:1.5;stroke-linejoin:round;}
	.st73{clip-path:url(#SVGID_146_);fill:none;stroke:#000000;stroke-width:1.5;stroke-linejoin:round;}
	.st74{clip-path:url(#SVGID_148_);fill:none;stroke:#000000;stroke-width:1.5;stroke-linejoin:round;}
	.st75{clip-path:url(#SVGID_150_);fill:none;stroke:#000000;stroke-width:1.5;stroke-linejoin:round;}
	.st76{clip-path:url(#SVGID_152_);fill:none;stroke:#000000;stroke-width:1.5;stroke-linejoin:round;}
	.st77{clip-path:url(#SVGID_154_);fill:none;stroke:#000000;stroke-width:1.5;stroke-linejoin:round;}
	.st78{clip-path:url(#SVGID_156_);fill:none;stroke:#000000;stroke-width:1.5;stroke-linejoin:round;}
	.st79{clip-path:url(#SVGID_158_);fill:none;stroke:#000000;stroke-width:1.5;stroke-linejoin:round;}
	.st80{clip-path:url(#SVGID_160_);fill:none;stroke:#000000;stroke-width:1.5;stroke-linejoin:round;}
	.st81{clip-path:url(#SVGID_162_);fill:none;stroke:#000000;stroke-width:1.5;stroke-linejoin:round;}
	.st82{clip-path:url(#SVGID_164_);fill:none;stroke:#000000;stroke-width:1.5;stroke-linejoin:round;}
	.st83{clip-path:url(#SVGID_166_);fill:none;stroke:#000000;stroke-width:1.5;stroke-linejoin:round;}
	.st84{clip-path:url(#SVGID_168_);fill:none;stroke:#000000;stroke-width:1.5;stroke-linejoin:round;}
	.st85{clip-path:url(#SVGID_170_);fill:none;stroke:#000000;stroke-width:1.5;stroke-linejoin:round;}
	.st86{clip-path:url(#SVGID_172_);fill:none;stroke:#000000;stroke-width:1.5;stroke-linejoin:round;}
	.st87{opacity:0.8;fill:#FFFFFF;stroke:#CCCCCC;enable-background:new    ;}
	.st88{fill:#FCBF49;stroke:#FCBF49;stroke-linejoin:round;}
	.st89{fill:#F77F00;stroke:#F77F00;stroke-linejoin:round;}
	.st90{fill:#D62828;stroke:#D62828;stroke-linejoin:round;}
	.st91{fill:#003049;stroke:#003049;stroke-linejoin:round;}
	.st92{clip-path:url(#SVGID_174_);}
	.st93{clip-path:url(#SVGID_176_);}
	.st94{clip-path:url(#SVGID_178_);}
	.st95{font-family:'MyriadPro-Regular';}
	.st96{font-size:14px;}
</style>
<g id="figure_1">
	<g id="patch_1">
		<path class="st0" d="M0,345.6h460.8V0H0V345.6z"/>
	</g>
	<g id="axes_1">
		<g id="LineCollection_1">
			<g>
				<defs>
					<rect id="SVGID_1_" x="21.5" y="10.8" width="417.7" height="324"/>
				</defs>
				<clipPath id="SVGID_2_">
					<use xlink:href="#SVGID_1_"  style="overflow:visible;"/>
				</clipPath>
				<path class="st1" d="M164.1,83l1.3-2.1l0.7-3.2l1.4,0.4l2.1-2.1l0.3-2.6l1.4-2.4l-0.7-7.1l1.4-1.4l-2.1-1.3l-0.8-0.5l1-1.6
					l0.6-0.5l0.2-2.5l0.5-0.5l0.7-0.6l0.1-0.8l3,0.9l4.4,4.3l4,1.6l0.6,0.3l2.1,2.9l1.8,0.9l-0.2,1.8l-1.9,0.6l-0.9,1.5l2.1,1.4
					l0.5,1.9l3.9,1.9l2.7-0.6l9.4,1.7l5,2.7l1.7-1.9l2-0.2l0.2-1.9l3.1-0.2l1.4-3.7l-0.4-1.7l1.2-0.4l2.9,2.8l3.9,1.3l3.9-2.1
					l1.3,2.1l1.7,0.2l1.1,2.3l1.9,0l3.3,2.8l4.8,0.1l8.1,4.7l0.4,1.1L250,84l-1.1,2.9l4.9,5.5l-0.5,2.6l1.6,0.5l0.6,1.4l-0.9,5.3
					l2.5,1.5l0.6,5.4l-2.1,5.9l-1.9-1.7l-4,0l-1.4,0.9l-2.1,3.5l-2.9,0.6l-5.1,1.1l-2.5,1.9l-3.6-1.9l-0.8-0.9l-3.4-3.7l-4.8-1.8
					l-7.9-0.7l-0.9-1.1l0.4-4l1-1.4l2.2,0.6l2.1-0.9l-1.2-1.3l0.5-1.9l-2.8-3.2l2-2.1l0-1.5l-3.2-3.8l-2.7,0.1l-1.5,1.7l-1.5-0.6
					l-2.2-6.1l-1.8-0.2l-1.8,3.6l-2.5,1.8l-3.9-2.9l-1.3,0.5l-1.4,2.4l-1.6-1.4l-1.2,0.1l-2.3,4.6l-1.6,0.4l-0.3,1.7l-0.8,0.7
					l-3.7-4.6l-3.6,1.3l-2.3-4.9l-3.5,0.6l0.5,2.3l-7-5.1L164.1,83"/>
			</g>
			<g>
				<defs>
					<rect id="SVGID_3_" x="21.5" y="10.8" width="417.7" height="324"/>
				</defs>
				<clipPath id="SVGID_4_">
					<use xlink:href="#SVGID_3_"  style="overflow:visible;"/>
				</clipPath>
				<path class="st2" d="M332.8,120.4l5.6,1.5l1.9-1l1.4,0.5l3.3-4l1.9-0.4l2.9,3.8l6.5,1.4l1.4-1.6l7.7,1.3l0.3-1.7l3.7-2.4l2-0.1
					l3.9,1.9l0.8-0.6l7.4,2.5l4.9-1.4l3.1,1.2l4.3-1.1l1-2.4l3.2,0.1l2.8-3.5l2.6,0l3.9,3.1l2.2,0l0.9,2.5l-2.4,3.5l-3.1-2.2
					l-1.2,0.7l0,0.8l2.7,2.2l-2.1,5.4l-1.5-1.7l-2.7-0.9l-1-1.7l-2.7-0.2l-2.9,3.2l-0.4,1.5l-9.2,2.6l-0.5,4.8l-4.4,2.6l-0.6,2.1
					l-3.2,4l-4.9-5.3l-2.3,0.1l-3.6,1.8l-1,1.4l-0.8,3.5l-1.5,0.2l-0.9-1.8l-1.9,1l-5.6-2.5l-3.7-0.1l-0.8,1.7l-0.7,0l-1.2-3.1
					l-6.1-4.1l-2.5-4.4l-5.1-4.3l-5.9-2l-1.7-1.9l-0.1-2L332.8,120.4"/>
			</g>
			<g>
				<defs>
					<rect id="SVGID_5_" x="21.5" y="10.8" width="417.7" height="324"/>
				</defs>
				<clipPath id="SVGID_6_">
					<use xlink:href="#SVGID_5_"  style="overflow:visible;"/>
				</clipPath>
				<path class="st3" d="M347,117l0.6-1.5l0.4-1.1l-0.6-3.5l0.8-3.1l3.6,1.2l3-3.1l5.6-2.3l1-2.8l1.9-0.6l1.5,0.5l1.1,2.6l1.4,1.1
					l1,0.4l0.4-1.6l0.9,0l1.5,2.2l2,1.1l0.6,2.9l-0.4,5.2l2.9,4.6l-0.8,0.6l-3.9-1.9l-2,0.1l-3.7,2.4l-0.3,1.7l-7.7-1.3l-1.4,1.6
					l-6.5-1.4L347,117"/>
			</g>
			<g>
				<defs>
					<rect id="SVGID_7_" x="21.5" y="10.8" width="417.7" height="324"/>
				</defs>
				<clipPath id="SVGID_8_">
					<use xlink:href="#SVGID_7_"  style="overflow:visible;"/>
				</clipPath>
				<path class="st4" d="M148.1,299.3l4-2.6l0.3-1.4l-0.9-2.7l1.4-2.4l-9.9-1.9l-1.4-3.6l1.1-1.3l-0.1-3.1l1.4-2.7l4.6,1.5l5.5,0.1
					l2.8-2.4l1.9-0.2l0.5-0.1l3.4-2.1l6.4-0.1l4.7,1.1l3,1.8l2.8,0.2l1.8,1.4l1,3.5l-1.7,3l2.9,3.9l14.1-2.8l3-2.1l3.1-0.2l3.9-0.9
					l1.9,1.1l2.8-0.9l1-1.7l2.6,0.1l2.3-1.3l1.8,0.9l1.7,3.6l2.7,0.9l2.1,2.5l-1.6,1.3l1.2,2.3l-0.3,2.2l-2.8,4.7l-2,0.2l0.2,0.9
					l0.3,1.4l-0.9,2.5l2.3,1.5l-1,1.5l-0.5,3.5l-2.1,2.2l-8.8,1.4l-2.9-1.2l-3.2,1l-3.6-0.9l-2.1,0.8l-2-1.5l-1.9-3.1l-5-1.6
					l-3.3,1.1l-6.9-4l-6.4,0.3l-2.4,1.2l-6.7-1.8l-2.7,0l-2.7-1.3l-1.8-0.8l-3.4,0.2l-0.7-0.7l-1.5-0.7l-2.2,0.5l-0.4-0.7
					L148.1,299.3"/>
			</g>
			<g>
				<defs>
					<rect id="SVGID_9_" x="21.5" y="10.8" width="417.7" height="324"/>
				</defs>
				<clipPath id="SVGID_10_">
					<use xlink:href="#SVGID_9_"  style="overflow:visible;"/>
				</clipPath>
				<path class="st5" d="M203.9,284l1.7-3.6l-0.8-0.9l-2.9,0.2l-1.4-1.5l1.1-1.8l-0.2-1.4l-3-0.5l-0.9-2.5l-2.6-0.2l0.2-3.4
					l-1.5,0.4l-7.2-2.6l-1.2-5.3l-3.3-1.5l-0.2-2.1l0.6-1.8l3.7-1.6l1.1-3.5l3.6-0.8l4-3.7l0.8-1.7l2.4,0.5l2.8-2.1l2.7,4.9
					l10.3,0.7l0.7,0.9l0.1,2.5l0.9,0.9l4.6-1.7l0.6-1.4l2.5-1.7l1.8,1.4l4.7-0.2l2.4,1.3l1.8-1.6l6.7-0.6l3.2-2.1l5.6-1.4l0.9,2.1
					l2.7,2.1l1.1,0.8l4.3,1.5l3.1,5.9l2,2.3l-1,4.6l0.6,3.7l-1.5,1.9l-1.1,3.7l3.7,2.2l1.3,5.9l-1.1,4.8l2,0.7l1,1.5l-3.6,1.4
					l-2.6,4l-2-2.8l-2.4,1.5l-0.4,1.3l-2.3-0.2l-1.1-0.1l-2.7,4.7l-0.3,1.3l-1.3,5.1l-7.6,1.6l-1.3,3.2l-1.1,0.3l-0.7,1.6l-6.3,2.1
					l-0.6,4.9l-1.4,1.9l-3.2-5.6l-3.2,1l-2.9-1.1l-0.8-2l2.1-2.2l0.5-3.5l1-1.5l-2.3-1.5l0.9-2.5l-0.3-1.4l-0.2-0.9l2-0.2l2.8-4.7
					l0.3-2.2l-1.2-2.3l1.6-1.3l-2.1-2.5l-2.7-0.9l-1.7-3.6l-1.8-0.9l-2.3,1.3l-2.6-0.1l-1,1.7l-2.8,0.9l-1.9-1.1L203.9,284"/>
			</g>
			<g>
				<defs>
					<rect id="SVGID_11_" x="21.5" y="10.8" width="417.7" height="324"/>
				</defs>
				<clipPath id="SVGID_12_">
					<use xlink:href="#SVGID_11_"  style="overflow:visible;"/>
				</clipPath>
				<path class="st6" d="M240.3,167.1l0.1-1.1l-1.8-2.9l0.8-1.9l-0.7-1.2l-0.4-0.6l0.6-2.1l-0.6-1.5l3.7-2.9l-0.5-3l-2.4-3.1
					l-2.1,0.3l-5.5-1.8l-5.5-4.1l-4.1-1.7l-3-5l-0.4-2.6l0.5-3l1.5-1.5l0.3-0.9l-1.1-1.1l-0.2-2.9l0.6-4l0.3-2l0.7-2.1l2.1-1.7
					l4.8,1.8l3.4,3.7l0.8,0.9l3.6,1.9l2.5-1.9l5.1-1.1l2.9-0.6l2.1-3.5l1.4-0.9l4,0l1.9,1.7l2.1-5.9l-0.6-5.4l-2.5-1.5l0.9-5.3
					l0.6,0.9l2.4-0.8l7,2.9l0.5,1.1l1.8,0.7l3-1.9l0.7-1.5l4.8,0.1l0.5-1.6l1.5-0.1l2,2.1l2.3,0.4l0.6,1l-2.4,2.6l0.1,1.8l-0.7,1.3
					l0.2,1.4l1.6,0.6l2.5-0.9l2.5,0.6l1.6-1.9l0.4-3.9l2.1,0.2l0.5,1.4l2.9-1.2l1.8,0l1.2,1.5l0,1.8l-1.7,0.5l-0.3,1.9l-2.7,1.6
					l-0.3,2.3l-2,2.8l0.9,2.6l0.7,2.2l1.5,1.3l-0.5,1.3l3.5,0.4l-0.2,1.9l-4.3,2.4l-0.3,2.4l-1.6,2.4l-4.5,3.6l-4.2,1.1l-2.2,2.1
					l1,3.5l-0.2,1.5l3.5,2.3l1.2,4.5l-8.4,2.5l-4.5,2.7l1.1,2l3.4,1.8l-0.4,0.9l0,1.1l-1.3,4.3l-4.3-0.2l-1.2,1.4l-2.7,0.7l-4.2-1.1
					l-4.4,1.2l-4.4,3.7l-2.5-0.7l-1.6-2.5l-2.9-0.5l-3.9,1.8L240.3,167.1"/>
			</g>
			<g>
				<defs>
					<rect id="SVGID_13_" x="21.5" y="10.8" width="417.7" height="324"/>
				</defs>
				<clipPath id="SVGID_14_">
					<use xlink:href="#SVGID_13_"  style="overflow:visible;"/>
				</clipPath>
				<path class="st7" d="M357,196.4l-0.7,0l-1.2,0.6l-1,1.5l-1.2,1.1l-1.3,0.4l-0.9,0.3l-0.7-0.1l-1.1,0.2l-2.6-2.8l-0.4-2l-1.1-1.2
					l-0.2-3.8l-0.8-1.3l-3.8,4.1l-2.7-3l-8-1.7l-1.9-4.1l-3.4,0.2l0.1-5.6l-2.6-1.7l-5.8-0.2l-1-1.5l-1.3-6l-2.5,0.4l-2.4-1.1
					l-3.2-3.7l-6.4,0.1l-1.2-1.8l-3.3-0.5l-1.8-1.6l-1.6-0.2l-1.2-2.6l-2.2-1.2l-5.2,0.6l-0.3,0.8l-1,2.3l-4.9-0.2l0-1.1l0.4-0.9
					l-3.4-1.8l-1.1-2l4.5-2.7l8.4-2.5l3.9-1.5l0.4-1.3l1.9-1.8l0.9-3l3.9-1.6l0.9-2.8l2-1.6l-0.7-2.6l0.7-2.6l2.2-1.7l4.1,0.1
					l5.3-2.5l6.4,1.5l3.3-0.6l2.5,1.4l4.9-2.7l1.7,1.9l5.9,2l5.1,4.3l2.5,4.4l6.1,4.1l1.2,3.1l0.7,0l0.8-1.7l3.7,0.1l5.6,2.5l1.9-1
					l0.9,1.8l-2.2,1.9l1.8,2.6l-2.2,3.4l-0.4,0.6l-2,2.1l-0.8-1.9l-1.2-0.4l-1.1,0.3l-0.4,1.4l2,1.1l-0.1,6.7l1.4,3.6l3.3,1.4
					l1.6,3.9l-0.3,2l-2.5,3.2l-1.2,4.1l0,1.6l1.8,2.3l0.1,1.4L357,196.4"/>
			</g>
			<g>
				<defs>
					<rect id="SVGID_15_" x="21.5" y="10.8" width="417.7" height="324"/>
				</defs>
				<clipPath id="SVGID_16_">
					<use xlink:href="#SVGID_15_"  style="overflow:visible;"/>
				</clipPath>
				<path class="st8" d="M316,83.3l-1.4,7.2l-1.2,2.3l-1.6,0.9l0.7,1l-1.1,1.2l-3.3,0.7l-0.3,2.4l-2.6,2l-3.8-1.1l-5,2.4l-1.8,0
					l-2.9,1.2l-0.5-1.4l-2.1-0.2l-0.4,3.9l-1.6,1.9l-2.5-0.6l-2.5,0.9l-1.6-0.6l-0.2-1.4l0.7-1.3l-0.1-1.8l2.4-2.6l-0.6-1l-2.3-0.4
					l-2-2.1l-1.5,0.1l-0.5,1.6l-4.8-0.1l-0.7,1.5l-3,1.9l-1.8-0.7l-0.5-1.1l-7-2.9l-2.4,0.8l-0.6-0.9l-0.6-1.4l-1.6-0.5l0.5-2.6
					l-4.9-5.5L250,84l1.7-1.1l-0.4-1.1l-8.1-4.7l-4.8-0.1l-3.3-2.8l1.9-2l-0.3-5.7l0.9-3.8l2.5-2.4l2.9-2.8l0.6-5l4.6-0.1l5.7,1.9
					l1.7-1.4l-1.6-2.3l1-4.8l0.8-1l-0.6-2.5l1.1-4.2l-1.1-7l1.4-3.1l0-1.9l1.9-0.6l2.7,0.6l1.1,1.6l5.5,0.3l1.3,3.3l-0.1,2.3
					l4.3-1.8l3,0.2l1.3-4l2.2,1.6l3.7-0.5l4.7,3.1l3.5,0.5l1.9,1.2l1.1,2.2l2.2,0.9l5.2,1.1l5.7,4.1l4.7,0.4l-0.6,2.6l3.8,0.5
					l2.9,3.1L322,50l0,1.6l-1.3,2.1l-3.1,2.2l-0.3,2.4l1,1.8l7.9,2.7l-1.2,2l-0.8,5.1l-5.2,0.4l-1.2,1.6l-4.7,1.8l0.4,2.7l-0.8,2.2
					L316,83.3"/>
			</g>
			<g>
				<defs>
					<rect id="SVGID_17_" x="21.5" y="10.8" width="417.7" height="324"/>
				</defs>
				<clipPath id="SVGID_18_">
					<use xlink:href="#SVGID_17_"  style="overflow:visible;"/>
				</clipPath>
				<path class="st9" d="M312.5,42.6l2.1-2.4l4.2-0.2l1.1,1.9l1.6,0.1l1.9,1.8L325,44l0.7,1.4l1.7,0.1l0.1,2l3,2.5l7.6,3.4l16.6,0.9
					l1.7-1l1.7,1.4l3.1-2.2l3.3-6.4l4.4,0.2l1.7-1.2l4.1,3l4.9,0.2l1,1.4l0.8,4l2.8-0.8l5.8,2.8l5.8-1.4l1.6,0.4l0.4,0.6l0.8,1.4
					l0.9,8.1l1.3,0.6l0,4.9l1.1,4.1l-0.6,1.4l-1.6,1l-0.3,1.8l-1.3,0.8l-3,6.2l-3.1-2l-0.3-3.7l-0.9-1.2l-2.3,2.7l-3.3,1.4l-4.7-0.7
					l-1.9,1.1l-4.9,0.2l-5.5-3.4l-6.1-1l-0.6-0.7l0.3-2l-2.5-1.4l0.8-2.9l-2.8-2.2l-0.9,1.2l-1.5-0.3l-2.3,3l-2-0.9l-2.2,0.6
					l-2.7,3.6l-0.8,5.7l-2.9,2l-3.8-0.2l-1.7-2.3l-4.6-0.5l-5.3,2l-2.9-1.5l-2.7,0.8l-2.7-0.6l-2.3,1l-3.3-4.6l0.8-2.2l-0.4-2.7
					l4.7-1.8l1.2-1.6l5.2-0.4l0.8-5.1l1.2-2l-7.9-2.7l-1-1.8l0.3-2.4l3.1-2.2l1.3-2.1l0-1.6l-3.4-1.2l-2.9-3.1l-3.8-0.5L312.5,42.6"
					/>
			</g>
			<g>
				<defs>
					<rect id="SVGID_19_" x="21.5" y="10.8" width="417.7" height="324"/>
				</defs>
				<clipPath id="SVGID_20_">
					<use xlink:href="#SVGID_19_"  style="overflow:visible;"/>
				</clipPath>
				<path class="st10" d="M308.5,248.3l-0.3-1.2l-1.9-0.3l-1,2.1l-2.2,1.2l-2.4,8l-1.3,1l-2.7,0.1l-2.9,1.9l-0.3,1.3l-1.1,0
					l-4.5-5.7l-0.1-2.8l-3.3-2.3l0.4-2.2l-0.5-1.5l-2.7-0.9l-1.3-6l-2.7-1.5l-3.1-4.7l0.4-4.5l-1.5-2.9l-2.4-1.1l-6-0.2l-0.4-1.7
					l3.7-3.8l5.8-3.9l1-1.8l0.9-1.6l3-2l3.3,0.1l3.8,2.8l4.5,0.2l0.1,0.2l1.8,3.9l2.2,1.4l-0.6,3.3l1.6,3l1.5-0.3l2.3,1.4l3.5-0.5
					l2.2,1.3l0.6,2.2l4.9,4.4l-1.4,3.9l0.1,1.7l3.4,2l0.9,2.7l2.4,0.5l0.5,1.3l-1.3,2.3l-2.7,1.5L308.5,248.3"/>
			</g>
			<g>
				<defs>
					<rect id="SVGID_21_" x="21.5" y="10.8" width="417.7" height="324"/>
				</defs>
				<clipPath id="SVGID_22_">
					<use xlink:href="#SVGID_21_"  style="overflow:visible;"/>
				</clipPath>
				<path class="st11" d="M155.7,219.6l-0.3-3l-0.3-2.8l-1.7-6l-0.8-2.9l1.6-4.7l-0.2-1.8l4.4,0.4l5.9,0.6l0.1-2.2l2.5-3.5l-0.7-2.3
					l0.3-1.8l-1.3-2.3l-3.1-0.9l0-4.8l1.1-4.3l4.9-5.7l5.3-0.2l1.6-1.1l3.8,2.1l6.8,0.7l3.1,3.5l-0.3,4.4l0.6,1.2l2.6-0.2l9.5-3.6
					l0.9,0.2l0.2,1.8l2.3,2.1l4.4,0.6l5-3.1l0.9-1.7l2.8-0.5l3.6-2.8l2-0.3l0.9-2.8l1.3-1.1l5.2-1.6l2.2,0.3l4.1-4.1l3,1.7l2.3,2.1
					l3.9-1.8l2.9,0.5l1.6,2.5l2.5,0.7l4.4-3.7l4.4-1.2l4.2,1.1l2.4,1l-2.5,3.4l-0.9,7.4l-0.9,2.3l-5.9,1.6l-5.5-0.8l-4.9,2.1
					l-2.5,3.6l-3.9-1.8l-8.2,9.4l-0.9,4.4l-2,2.9l-2,0l-2-2.7l-2.4-0.9l-6.9,0.2l-1.9,0.8l-1.7,3.3l-7.1,3.8l-3.3,1.8l-1,1.7
					l-0.5,3.9l-1.4,1.5l-4.5,1.7l-2.9,3.1l-4.5-1.7l-2.5,1.9l-3.2-0.2l-2.8,1.8l-5.2,0.1l-2.8-1.8l-0.9-2.9l-3.7,2.8l-2.8-0.9
					l-2,1.9l-4.5-1.5L155.7,219.6"/>
			</g>
			<g>
				<defs>
					<rect id="SVGID_23_" x="21.5" y="10.8" width="417.7" height="324"/>
				</defs>
				<clipPath id="SVGID_24_">
					<use xlink:href="#SVGID_23_"  style="overflow:visible;"/>
				</clipPath>
				<path class="st12" d="M264.8,224.5l-4.6-5.7L257,217l-0.7,1.1l-1.8-0.5l-1.4-2.2l-0.6-1l-2-3.2l-5.8-1.8l-4,2.8l-6.1-3.6
					l-2.6-0.3l-0.6-1.2l-0.7-1.5l0-2.7l2-2.9l0.9-4.4l8.2-9.4l3.9,1.8l2.5-3.6l4.9-2.1l5.5,0.8l5.9-1.6l0.9-2.3l0.9-7.4l2.5-3.4
					l-2.4-1l2.7-0.7l1.2-1.4l4.3,0.2l1.3-4.3l4.9,0.2l1-2.3l0.3-0.8l5.2-0.6l2.2,1.2l1.2,2.6l1.6,0.2l1.8,1.6l3.3,0.5l1.2,1.8
					l6.4-0.1l3.2,3.7l2.4,1.1l2.5-0.4l1.3,6l1,1.5l5.8,0.2l2.6,1.7l-0.1,5.6l-1.6,0.6l-2.4-0.9l-6.7,5.7l-3.7,2l-0.9,2.3l-2.9,1.2
					l-1.3,6.6l-3.3,1.8l-0.1,1.3l-0.3,2.8l-7.6,0.4l-2.4,4.1l0.1,1.6l-4.5-0.2l-3.8-2.8l-3.3-0.1l-3,2l-0.9,1.6l-1,1.8l-5.8,3.9
					L264.8,224.5"/>
			</g>
			<g>
				<defs>
					<rect id="SVGID_25_" x="21.5" y="10.8" width="417.7" height="324"/>
				</defs>
				<clipPath id="SVGID_26_">
					<use xlink:href="#SVGID_25_"  style="overflow:visible;"/>
				</clipPath>
				<path class="st13" d="M338,265.9l-0.5,1.1l0.6,2l-0.4,6.7l1,2.6l2.1,1.4l1.1,2.5l-0.1,3.2l-12.7-6.3l-3.3,0l-3.4,1.6l-4.9,1.3
					l-5.5-0.8l0.8-5.1l1.6,2.2l2.3,0.6l-0.6-2.1l2.5,0l0.7-2.4l-0.6-1.3l-4.2-1.1l0-7.5l-1.1-1.3l0.1-2l-5.3-1.7l-1.8-6.7l0.7-2.7
					l1.3-1.7l4.4,2.5l2.7-1.5l1.3-2.3l-0.5-1.3l-2.4-0.5l-0.9-2.7l-3.4-2l-0.1-1.7l1.4-3.9l-4.9-4.4l-0.6-2.2l-2.2-1.3l-3.5,0.5
					l-2.3-1.4l-1.5,0.3l-1.6-3l0.6-3.3l-2.2-1.4l-1.8-3.9l-0.1-0.2l-0.1-1.6l2.4-4.1l7.6-0.4l0.3-2.8l0.1-1.3l3.3-1.8l1.3-6.6
					l2.9-1.2l0.9-2.3l3.7-2l6.7-5.7l2.4,0.9l1.6-0.6l3.4-0.2l1.9,4.1l8,1.7l2.7,3l3.8-4.1l0.8,1.3l0.2,3.8l1.1,1.2l0.4,2l2.6,2.8
					l-4.8,1.1l0,1.6l-0.6,0.6l-1.5-1.3l-1,1.8l-2.2,1.3l-0.5,1.7l2.3,5.8l1.8,4.6l0.8,5.6l2.1,6.5l-1.1,9.5l4,8.3l-2,2.5l-1.6,4.1
					l-5.4,6.4L338,265.9"/>
			</g>
			<g>
				<defs>
					<rect id="SVGID_27_" x="21.5" y="10.8" width="417.7" height="324"/>
				</defs>
				<clipPath id="SVGID_28_">
					<use xlink:href="#SVGID_27_"  style="overflow:visible;"/>
				</clipPath>
				<path class="st14" d="M267.5,288.3l-1-1.5l-2-0.7l1.1-4.8l-1.3-5.9l-3.7-2.2l1.1-3.7l1.5-1.9l-0.6-3.7l1-4.6l-2-2.3l-3.1-5.9
					l-4.3-1.5l-1.1-0.8l-2.7-2.1l-0.9-2.1l1.2,0.1l1.8-3.8l0.4,0.1l1.8,0.4l0.5-3.6l1.6-2.6l0.4-2.3l3.6-4.2l4.2-2.6l6,0.2l2.4,1.1
					l1.5,2.9l-0.4,4.5l3.1,4.7l2.7,1.5l1.3,6l2.7,0.9l0.5,1.5l-0.4,2.2l3.3,2.3l0.1,2.8l4.5,5.7l1.1,0l0.3-1.3l2.9-1.9l2.7-0.1
					l1.3-1l2.4-8l2.2-1.2l1-2.1l1.9,0.3l0.3,1.2l-1.3,1.7l-0.7,2.7l1.8,6.7l5.3,1.7l-0.1,2l1.1,1.3l0,7.5l4.2,1.1l0.6,1.3l-0.7,2.4
					l-2.5,0l0.6,2.1l-2.3-0.6l-1.6-2.2l-0.8,5.1l0.1,1.4l-1.4,1.3l-2.6-0.5l-3.5,2.1l-0.3,3.9l-2.9,2.1l-2.8,0.3L297,289l-3.8-1.5
					l-8.1,0.5l-4.6,1.3l-6.6-1.8l-3.4,0.2l-1.8,1.1L267.5,288.3"/>
			</g>
			<g>
				<defs>
					<rect id="SVGID_29_" x="21.5" y="10.8" width="417.7" height="324"/>
				</defs>
				<clipPath id="SVGID_30_">
					<use xlink:href="#SVGID_29_"  style="overflow:visible;"/>
				</clipPath>
				<path class="st15" d="M249.6,244.6l-5.6,1.4l-3.2,2.1l-6.7,0.6l-1.8,1.6l-2.4-1.3l-4.7,0.2l-1.8-1.4l-2.5,1.7l-0.6,1.4l-4.6,1.7
					l-0.9-0.9l-0.1-2.5l-0.7-0.9l-10.3-0.7l-2.7-4.9l-2.8,2.1l-2.4-0.5l-0.8,1.7l-4,3.7l-3.6,0.8L186,254l-3.7,1.6l-0.6,1.8l-1-0.3
					l-1,0.5l-0.7,0.7l-0.8,0L178,259l-0.7,0.3l-0.6,0.7l-1.2,0l-0.6,0.3l-0.7,0.7l-1.6-0.4l-0.9-0.5l-0.5-0.9l-1.8-1.3l0-0.6
					l2.7-1.6l3.1-4.5l0.4-2.8l2.6-5.2l-1.6-3l0.2-1.4l3.8-2.9l2.3,1l2.1-1l-0.4-1.1l-6.6-4.6l-0.3-1.2l-3.2-3.6l0.7-2.6l5.2-0.1
					l2.8-1.8l3.2,0.2l2.5-1.9l4.5,1.7l2.9-3.1l4.5-1.7l1.4-1.5l0.5-3.9l1-1.7l3.3-1.8l7.1-3.8l1.7-3.3l1.9-0.8l6.9-0.2l2.4,0.9
					l2,2.7l2,0l0,2.7l0.7,1.5l0.6,1.2l2.6,0.3l6.1,3.6l4-2.8l5.8,1.8l2,3.2l0.6,1l1.4,2.2l1.8,0.5l0.7-1.1l3.2,1.8l4.6,5.7l0.4,1.7
					l-4.2,2.6l-3.6,4.2l-0.4,2.3l-1.6,2.6l-0.5,3.6l-1.8-0.4l-0.4-0.1l-1.8,3.8L249.6,244.6"/>
			</g>
			<g>
				<defs>
					<rect id="SVGID_31_" x="21.5" y="10.8" width="417.7" height="324"/>
				</defs>
				<clipPath id="SVGID_32_">
					<use xlink:href="#SVGID_31_"  style="overflow:visible;"/>
				</clipPath>
				<path class="st16" d="M132.9,139.2l-7.9,3.6l-3.6,0.3l-0.7-2l-4.5-1.6l-3-3.7l-4.5,1.4l-2.9-1.1l-2.2,1.7l-1.5,2.8l-2.3-0.3
					l-1.4-2.8l-6-5.9l-0.7-4.2l0.5-0.7l0.1-0.9l0.7-0.2l1.2,0.6l0.6-1l0.5-1.6l0.9-0.5l1.2-0.2l0.5-0.6l0.2-0.7l0.9-0.4l0.5-1.3
					l0.5-0.7l1.2-1.7l5.1-0.5l5.9-5.6l10.5-3.6l0.9-0.5l6.2-0.2l4.3-2.6l6.7-6.3l2-6.3l-0.6-3.1l1.8-5.4l-1.2-4.4l0.5-1.3l1.7,0.5
					l1.8-1.3l1.4-2.6l4,3.2l2.5-0.5l3.1,2l6.2,4l3.5,4.5l7,5.1l3.3,3.9l-1.1,2.9l0.3,4.1l-2.9,2.7l0,1l2.9,0l-0.9,2.3l0.6,2l6.4,2
					l0.6,1.6l-10.3,2l-0.2,1l0.7,1.1l1.1,1.6l-1.1,0.8l-2.5-0.5l-3.2,2.7l-2,3l-1,0.6l-4.7-1.8l-2.6-0.1l-2.1-0.1l-3.6,1.8l-8.7,1.3
					l-3.8,2.6l-1.1,2.7l-2.3,0.3l-0.9-1.5l-0.9-0.1l-2.2,3.8l1.3,0.7L132.9,139.2"/>
			</g>
			<g>
				<defs>
					<rect id="SVGID_33_" x="21.5" y="10.8" width="417.7" height="324"/>
				</defs>
				<clipPath id="SVGID_34_">
					<use xlink:href="#SVGID_33_"  style="overflow:visible;"/>
				</clipPath>
				<path class="st17" d="M174.6,92.5l-0.5-2.3l3.5-0.6l2.3,4.9l3.6-1.3l3.7,4.6l0.8-0.7l0.3-1.7l1.6-0.4l2.3-4.6l1.2-0.1l1.6,1.4
					l1.4-2.4l1.3-0.5l3.9,2.9l2.5-1.8l1.8-3.6l1.8,0.2l2.2,6.1l1.5,0.6l1.5-1.7l2.7-0.1l3.2,3.8l0,1.5l-2,2.1l2.8,3.2l-0.5,1.9
					l1.2,1.3l-2.1,0.9l-2.2-0.6l-1,1.4l-0.4,4l0.9,1.1l7.9,0.7l-2.1,1.7l-0.7,2.1l-0.3,2l-0.6,4l0.2,2.9l1.1,1.1l-0.3,0.9l-4.4-0.4
					l-2.3-2.5l-2.4,0l-3.1,2.3l-4.6,0.9l-2.5,2.5l-3.2,1.1l-1.9-1.3l-0.2-1.6l-0.9,0l-3.4,2.5l-1.1,2.4l-2.9,0.4l-1,3.4l-3.1,2
					l-3-2.9l-4.9,1.2l-2.4-3.6l-1.7-0.2l0.1-2.2l-2.1-2.9l-3.3-2l2-3l3.2-2.7l2.5,0.5l1.1-0.8l-1.1-1.6l-0.7-1.1l0.2-1l10.3-2
					l-0.6-1.6l-6.4-2l-0.6-2l0.9-2.3l-2.9,0l0-1l2.9-2.7l-0.3-4.1l1.1-2.9L174.6,92.5"/>
			</g>
			<g>
				<defs>
					<rect id="SVGID_35_" x="21.5" y="10.8" width="417.7" height="324"/>
				</defs>
				<clipPath id="SVGID_36_">
					<use xlink:href="#SVGID_35_"  style="overflow:visible;"/>
				</clipPath>
				<path class="st18" d="M338,265.9l1.3-5.3l5.4-6.4l1.6-4.1l2-2.5l-4-8.3l1.1-9.5l-2.1-6.5l-0.8-5.6l-1.8-4.6l-2.3-5.8l0.5-1.7
					l2.2-1.3l1-1.8l1.5,1.3l0.6-0.6l0-1.6l4.8-1.1l1.1-0.2l0.7,0.1l0.9-0.3l1.3-0.4l1.2-1.1l1-1.5l1.2-0.6l0.7,0l1,0.5l1.4,4.5
					l3.3,2l1,0.6l1.1,3.8l1.2-0.2l3.2-0.4l2.5,2.8l0.6,1.8l0.9,2.9l-0.6,2.5l-2.1,2.2l-1.1,5l2.1,2.2l0.7,3.2l3.4,0l1.2,1.4
					l-3.5,4.7l0.6,1.8l2.1,2l-3.4,2.9l2.4,3.3l-4.2,0.9l-3.3-0.6l-2.4-0.5l-2.1,0.9l-3.1-0.6l-1.4,4.4l-3.5,3l-1.9,0.5l-1.7,3.2
					l-4.6,4.5l-4.3,3.4L338,265.9"/>
			</g>
			<g>
				<defs>
					<rect id="SVGID_37_" x="21.5" y="10.8" width="417.7" height="324"/>
				</defs>
				<clipPath id="SVGID_38_">
					<use xlink:href="#SVGID_37_"  style="overflow:visible;"/>
				</clipPath>
				<path class="st19" d="M316,83.3l2.3-1l2.7,0.6l2.7-0.8l2.9,1.5l5.3-2l4.6,0.5l1.7,2.3l3.8,0.2l2.9-2l0.8-5.7l2.7-3.6l2.2-0.6
					l2,0.9l2.3-3l1.5,0.3l0.9-1.2l2.8,2.2l-0.8,2.9l2.5,1.4l-0.3,2l0.6,0.7l6.1,1l5.5,3.4l4.9-0.2l1.9-1.1l4.7,0.7l3.3-1.4l2.3-2.7
					l0.9,1.2l0.3,3.7l3.1,2l0.7,2.5l-1.3,4.3l0.3,1.6l0.8,1.5l3.5,2.3l1,4.3l3.2,2.6l0.1,3.1l2.1,5.4l0.2,1.5l-2.6,0l-2.8,3.5
					l-3.2-0.1l-1,2.4l-4.3,1.1l-3.1-1.2l-4.9,1.4l-7.4-2.5l-2.9-4.6l0.4-5.2l-0.6-2.9l-2-1.1l-1.5-2.2l-0.9,0l-0.4,1.6l-1-0.4
					l-1.4-1.1l-1.1-2.6l-1.5-0.5l-1.9,0.6l-1,2.8l-5.6,2.3l-3,3.1l-3.6-1.2l-0.8,3.1l0.6,3.5l-0.4,1.1L347,117l-1.9,0.4l-3.3,4
					l-1.4-0.5l-1.9,1l-5.6-1.5l-0.3-1.7l1.1-1.8l-0.8-1l-0.4-0.6l0.6-1.6l-3-3.8l-0.4-1.9l-3.8-0.3l-0.9,0.6l-0.7,2.8l-2.5,0.3
					l-0.4-1.9l-1.4-0.6l1.3-3l-1.9-0.9l-0.1-1.1l-1.4-0.2l-1.9-2l0.8-1.4l2.5-0.1l0.3-1.2l-4.5-4.3l-2.3,0.2l-0.7-1l1.6-0.9l1.2-2.3
					L316,83.3"/>
			</g>
			<g>
				<defs>
					<rect id="SVGID_39_" x="21.5" y="10.8" width="417.7" height="324"/>
				</defs>
				<clipPath id="SVGID_40_">
					<use xlink:href="#SVGID_39_"  style="overflow:visible;"/>
				</clipPath>
				<path class="st20" d="M83.7,239.8l-3-2.3l-3.1-1.5l-2.2,0.2l-2.3-2.3l-1.9-0.7l-2.6,1.2l-4.3-0.4l-2,0.9l-1.6,3.4l-8.5,4.6
					l-3.7-2.4l-4.3,1l-1.5-5.5l-1.4-2.5l-0.6-4l1.6-6l-1.7-3.5l1.8-2.5l3,0.6l5.6-1.8l3.3,0.4l0.6-0.5l2.4-2l5.4,1.7l7.5-1.4
					l1.5-1.7l-0.6-2.7l0.8-1.7l1.2-0.8l5.9-1.2l3.1-3.3l1.1-3.7l3.6-1.8l-3.7-7.1l1-4.2l-5-2.7l-0.8-3l2.4-4.4l6.7-1l6.1,1.9l-1,1.8
					l3.6,3.6l-2.3,4.1l0.7,2.1l1.8,1.6l2.2,0.3l4.9,5.3l4,2.2l1.5-0.5l1.7,1.6l2.8-2.9l0.2-3l3.7,0.4l2.4-1l2.1-2.4l2.3-0.5l3.8,2.4
					l2.7-0.1l2.7,2.3l4.4-0.8l2.3,3l0.7,2.1l2.2,1.4l3.3-1.5l2.9-2.6l3.9,1.7l1.4,0.8l0.2,1.8l-1.6,4.7l0.8,2.9l1.7,6l0.3,2.8l0.3,3
					l-3,3.5l-1.4,1.2l-7.1,2.5l-7.1,1l-1.8,2.4l-1.2,3.4l2.5,6.7l-3.4,1l-3.4-0.4l-1.5,1.4l-0.3,3.3l-11.7,2.5l-1.3,1.2l-3.2-1.4
					l-1.2-1.5l-3.6,0.1l-3-4.3l-5.9-0.4l-2.4-1.6l-5.5-0.5l-1.2-3.2l-4.3,0.9L83.7,239.8"/>
			</g>
			<g>
				<defs>
					<rect id="SVGID_41_" x="21.5" y="10.8" width="417.7" height="324"/>
				</defs>
				<clipPath id="SVGID_42_">
					<use xlink:href="#SVGID_41_"  style="overflow:visible;"/>
				</clipPath>
				<path class="st21" d="M113.4,193.3l-0.9-1.5l1.3-2.5l-0.5-2.4l1.6-1l0.1-1.8l2.2-3.2l-1.3-5.8l-4.2-4l-3.6,1.4l-3.3-0.4
					l-1.5-1.3l2.3-4l0.1-2.6l1.9-2.1l0.5-1.1l2.2-4.2l-4.8-10l-1.8-1.7l-2.7-0.8l-0.4-0.7l-0.7-3.1l2.3,0.3l1.5-2.8l2.2-1.7l2.9,1.1
					l4.5-1.4l3,3.7l4.5,1.6l0.7,2l3.6-0.3l7.9-3.6l0.1,1.3l4.5,2.2l0.4,0.9l-1.1,2.9l-3.7-2.2l-1.8,1.1l-0.6,7.1l1.2,2.7l0.1,4.2
					l3.6,1.6l3.6,1.6l5-0.7l3,1.4l2-0.5l1,1l-1.2,1.4l-4.2-1l-1.2,1.5l-0.7,3l2.2,1.7l6.1,1.7l-1.3,3.2l-2.1,1.7l-1.1,3.1l2,1.2
					l0.4,1.4l-1.2,3.6l-1.6,1.8l-0.3,3.7l2.9,4.2l-2.9,2.6l-3.3,1.5l-2.2-1.4l-0.7-2.1l-2.3-3l-4.4,0.8l-2.7-2.3l-2.7,0.1l-3.8-2.4
					l-2.3,0.5l-2.1,2.4l-2.4,1L113.4,193.3"/>
			</g>
			<g>
				<defs>
					<rect id="SVGID_43_" x="21.5" y="10.8" width="417.7" height="324"/>
				</defs>
				<clipPath id="SVGID_44_">
					<use xlink:href="#SVGID_43_"  style="overflow:visible;"/>
				</clipPath>
				<path class="st22" d="M83.7,239.8l1.3,1l1.2,1.4l0.9,0.6l0.7,2.5l0.4,0.6l1.6,0.3l1.9-0.3l0.6,0.4l-1.1,0.9l-0.9,1.6l-0.6,0.6
					l0,0.8l-0.4,0.8l-0.5,0.4l1,1.6l0.2,1.2l0.5,0.9l0.9,0.3l0.3,1.1l0.6,0.5l1.1,0.5l-0.1,0.7l0.7,0.8l0.4,0.3l0.7,0.1l1.1,0.6
					l1.2,0.7l-0.4,1.1l0.7,1l0.1,3.4l2.5,1.9l0.8,0.3l0.7,1.8l0.8,0.3l0.6,0.2l2.9,2.2l0.9,0.3l0,1.3l-1,0.7l-0.6,1.2l-1,0.6l-1-0.2
					l-0.7-0.8l-0.7-0.3l-1.8,1.4l-1.5,0.3l-1.1,1.2l-0.8,0.1l-0.5-0.2l-0.9,0.2l-0.3-0.7l-1,0.1l-2.9,0.5l-0.9,0.4l-0.8,0.6
					l-0.5-0.2l-0.5,0.1l-0.8,0.8l-0.2,2.3l0.6,1.2l-2,0.3l0,1.1l-0.6,1.3l0.3,0.7l0.1,1.8l-3.5,0.3l-1.7-0.8l-4.2,0.8l-4-2.8
					l-2.8-0.2l-7-4.1l-2.3-6.5l-5.3-1.4l0.2-3.3l1.3-2.3l-2.5-5.1l-1.9-0.6l-2.2,1.3l-2-3.1l-2.7-1l0.9-2.9l-1.9-2.2l-0.4-2.3
					l-0.6-3.4l0.7-0.6l0.9-0.8l4.4-0.6l1.2-3.2l1.6-1.3l8.5-4.6l1.6-3.4l2-0.9l4.3,0.4l2.6-1.2l1.9,0.7l2.3,2.3l2.2-0.2l3.1,1.5
					L83.7,239.8"/>
			</g>
			<g>
				<defs>
					<rect id="SVGID_45_" x="21.5" y="10.8" width="417.7" height="324"/>
				</defs>
				<clipPath id="SVGID_46_">
					<use xlink:href="#SVGID_45_"  style="overflow:visible;"/>
				</clipPath>
				<path class="st23" d="M83.7,239.8l1.1-2.4l4.3-0.9l1.2,3.2l5.5,0.5l2.4,1.6l5.9,0.4l3,4.3l3.6-0.1l1.2,1.5l3.2,1.4l1.3-1.2
					l11.7-2.5l0.3-3.3l1.5-1.4l3.4,0.4l3.4-1l1.5,0.4l2.1,2.5l4.4-0.8l8.2,2.7l4-0.4l2.4,2l2.7,0.2l0.9,3.9l4.2,1.5l1.3,1.6l1.1,3.4
					l0,0.6l1.8,1.3l0.5,0.9l0.9,0.5l1.6,0.4l0.7-0.7l0.6-0.3l1.2,0l0.6-0.7l0.7-0.3l0.3-0.7l0.8,0l0.7-0.7l1-0.5l1,0.3l0.2,2.1
					l3.3,1.5l1.2,5.3l7.2,2.6l1.5-0.4l-0.2,3.4l2.6,0.2l0.9,2.5l3,0.5l0.2,1.4l-1.1,1.8l1.4,1.5l2.9-0.2l0.8,0.9l-1.7,3.6l-3.1,0.2
					l-3,2.1l-14.1,2.8l-2.9-3.9l1.7-3l-1-3.5l-1.8-1.4l-2.8-0.2l-3-1.8l-4.7-1.1l-6.4,0.1l-3.4,2.1l-2.4,0.3l-2.8,2.4l-5.5-0.1
					l-4.6-1.5l-1.4,2.7l0.1,3.1l-1.1,1.3l1.4,3.6l9.9,1.9l-1.4,2.4l0.9,2.7l-0.3,1.4l-4,2.6l-4.9,0.9l-4.7-1.9l-4.4,2.2l-6.2,0
					l-6.2-3.7l-17.4-2.3l-6.2,0.2l-1.8-2.3l-3.7-1.9l-3.5,1.1l-1.2-1.6l-1.1-0.3l-0.8-0.6l-0.1-1.8l-0.3-0.7l0.6-1.3l0-1.1l2-0.3
					l-0.6-1.2l0.2-2.3l0.8-0.8l0.5-0.1l0.5,0.2l0.8-0.6l0.9-0.4l3.9-0.6l0.3,0.7l0.9-0.2l0.5,0.2l0.8-0.1l1.1-1.2l1.5-0.3l1.8-1.4
					l0.7,0.3l0.7,0.8l1,0.2l1-0.6l0.6-1.2l1-0.7l0-1.3l-0.9-0.3l-2.9-2.2l-1.4-0.5l-0.7-1.8l-0.8-0.3l-2.5-1.9l-0.1-3.4l-0.7-1
					l0.4-1.1l-2.2-1.3l-0.7-0.1l-0.4-0.3l-0.7-0.8l0.1-0.7l-1.1-0.5l-0.6-0.5l-0.3-1.1l-0.9-0.3l-0.5-0.9l-0.2-1.2l-1-1.6l0.5-0.4
					l0.4-0.8l0-0.8l0.6-0.6l0.9-1.6l1.1-0.9l-0.6-0.4l-1.9,0.3l-1.6-0.3l-0.4-0.6l-0.7-2.5l-0.9-0.6l-1.2-1.4L83.7,239.8L83.7,239.8
					"/>
			</g>
			<g>
				<defs>
					<rect id="SVGID_47_" x="21.5" y="10.8" width="417.7" height="324"/>
				</defs>
				<clipPath id="SVGID_48_">
					<use xlink:href="#SVGID_47_"  style="overflow:visible;"/>
				</clipPath>
				<path class="st24" d="M363.1,175.3l0.6,0.7l0.4,0.2l0.5-0.2l0.9-0.3l0.4-1.3l0.6-0.8l0.3-1l5.5,2.4l2.3-0.1l4.2,2.3l3.9-1
					l1.6,0.6l1.4,2l0,4l3.4,2.9l-1.2,2.9l-2.7,1.3l1,3.1l-1.4,3.1l-5.6,4.7l-3.8-0.1l-1.3,1.8l-1.6-1.6l-2-0.1l-0.4,0.9l0.2,1.5
					l0.4,2.8l-1.5,1.2l-3.2,0.4l-1.2,0.2l-1.1-3.8l-1-0.6l-3.3-2l-1.4-4.5l-1-0.5l4-6.5l-0.1-1.4l-1.8-2.3l0-1.6l1.2-4.1l2.5-3.2
					L363.1,175.3"/>
			</g>
			<g>
				<defs>
					<rect id="SVGID_49_" x="21.5" y="10.8" width="417.7" height="324"/>
				</defs>
				<clipPath id="SVGID_50_">
					<use xlink:href="#SVGID_49_"  style="overflow:visible;"/>
				</clipPath>
				<path class="st25" d="M363.5,148.6l1.5-0.2l0.8-3.5l1-1.4l3.6-1.8l2.3-0.1l4.9,5.3l3.2-4l0.6-2.1l4.4-2.6l0.5-4.8l9.2-2.6
					l0.4-1.5l2.9-3.2l2.7,0.2l1,1.7l2.7,0.9l1.5,1.7l2.1-5.4l-2.7-2.2l0-0.8l1.2-0.7l3.1,2.2l2.4-3.5l1.7,2.4l-0.9,1.7l0.8,3.9
					l-0.7,1.8l1.3,0.8l1.8-0.7l3.6,2.2l-4.4,4.1l1.2,1.3l-1.2,2.6l1,1.5l-1.3,5l-5.3,2.3l4.1,5.3l-0.7,2.7l2.2,8l-0.3,0.8l-14.1,2.8
					l-0.9-0.5l-0.9-2.3l-3,3.5l-4.5,0.4l-3.7-5.6l-7.9-2.5l-4.3,1.3l-0.7,1.2l0,2.5l-4.9,3.5l-1.7-0.5l-2.1,3l-0.3,1l-0.6,0.8
					l-0.4,1.3l-0.9,0.3l-0.5,0.2l-0.4-0.2l-0.6-0.7l-1.6-3.9l-3.3-1.4l-1.4-3.6l0.1-6.7l-2-1.1l0.4-1.4l1.1-0.3l1.2,0.4l0.8,1.9
					l2-2.1l0.4-0.6l2.2-3.4l-1.8-2.6L363.5,148.6"/>
			</g>
			<g>
				<defs>
					<rect id="SVGID_51_" x="21.5" y="10.8" width="417.7" height="324"/>
				</defs>
				<clipPath id="SVGID_52_">
					<use xlink:href="#SVGID_51_"  style="overflow:visible;"/>
				</clipPath>
				<path class="st26" d="M220.6,127.7l-1.5,1.5l-0.5,3l0.4,2.6l3,5l4.1,1.7l5.5,4.1l5.5,1.8l2.1-0.3l2.4,3.1l0.5,3l-3.7,2.9
					l0.6,1.5l-0.6,2.1l0.4,0.6l0.7,1.2l-0.8,1.9l1.8,2.9l-0.1,1.1l-3-1.7l-4.1,4.1l-2.2-0.3l-5.2,1.6l-1.3,1.1l-0.9,2.8l-2,0.3
					l-3.6,2.8l-2.8,0.5l-0.9,1.7l-5,3.1l-4.4-0.6l-2.3-2.1l-0.2-1.8l-0.9-0.2l-9.5,3.6l-2.6,0.2l-0.6-1.2l0.3-4.4l-3.1-3.5l3.2-1.5
					l0.5-1l-2.1-3.9l-0.1-1.6l-1.5-0.9l-0.6-2.1l2.8-1.5l3.5-1.8l0.6-1.6l-1.6-1.9l-6.4-2.7l-0.8-3.4l0.9-2.3l-0.5-3.4l-2-1.4l2-2.7
					l3.1-2l1-3.4l2.9-0.4l1.1-2.4l3.4-2.5l0.9,0l0.2,1.6l1.9,1.3l3.2-1.1l2.5-2.5l4.6-0.9l3.1-2.3l2.4,0l2.3,2.5L220.6,127.7"/>
			</g>
			<g>
				<defs>
					<rect id="SVGID_53_" x="21.5" y="10.8" width="417.7" height="324"/>
				</defs>
				<clipPath id="SVGID_54_">
					<use xlink:href="#SVGID_53_"  style="overflow:visible;"/>
				</clipPath>
				<path class="st27" d="M166.3,126.8l3.3,2l2.1,2.9l-0.1,2.2l1.7,0.2l2.4,3.6l4.9-1.2l3,2.9l-2,2.7l2,1.4l0.5,3.4l-0.9,2.3
					l0.8,3.4l6.4,2.7l1.6,1.9l-0.6,1.6l-3.5,1.8l-2.8,1.5l0.6,2.1l1.5,0.9l0.1,1.6l2.1,3.9l-0.5,1l-3.2,1.5l-6.8-0.7l-3.8-2.1
					l-1.6,1.1l-5.3,0.2l-4.9,5.7l-1.1,4.3l0,4.8l3.1,0.9l1.3,2.3l-0.3,1.8l0.7,2.3l-2.5,3.5l-0.1,2.2l-5.9-0.6l-4.4-0.4l-1.4-0.8
					l-3.9-1.7l-2.9-4.2l0.3-3.7l1.6-1.8l1.2-3.6l-0.4-1.4l-2-1.2l1.1-3.1l2.1-1.7l1.3-3.2l-6.1-1.7l-2.2-1.7l0.7-3l1.2-1.5l4.2,1
					l1.2-1.4l-1-1l-2,0.5l-3-1.4l-5,0.7l-3.6-1.6l-3.6-1.6l-0.1-4.2l-1.2-2.7l0.6-7.1l1.8-1.1l3.7,2.2l1.1-2.9l-0.4-0.9l-4.5-2.2
					l-0.1-1.3l1.1-2.1l-1.3-0.7l2.2-3.8l0.9,0.1l0.9,1.5l2.3-0.3l1.1-2.7l3.8-2.6l8.7-1.3l3.6-1.8l2.1,0.1l2.6,0.1l4.7,1.8
					L166.3,126.8"/>
			</g>
			<g>
				<defs>
					<rect id="SVGID_55_" x="21.5" y="10.8" width="417.7" height="324"/>
				</defs>
				<clipPath id="SVGID_56_">
					<use xlink:href="#SVGID_55_"  style="overflow:visible;"/>
				</clipPath>
				<path class="st28" d="M175.2,223l-0.7,2.6l3.2,3.6l0.3,1.2l6.6,4.6l0.4,1.1l-2.1,1l-2.3-1l-3.8,2.9l-0.2,1.4l1.6,3l-2.6,5.2
					l-0.4,2.8l-3.1,4.5l-2.7,1.6l-1.1-3.4l-1.3-1.6l-4.2-1.5l-0.9-3.9l-2.7-0.2l-0.7-0.5l-1.8-1.4l-4,0.4l-8.2-2.7l-4.4,0.8
					l-2.1-2.5l-1.5-0.4l-2.5-6.7l1.2-3.4l1.8-2.4l7.1-1l7.1-2.5l1.4-1.2l3-3.5l2.8,0.9l4.5,1.5l2-1.9l2.8,0.9l3.7-2.8l0.9,2.9
					L175.2,223"/>
			</g>
		</g>
		<g id="LineCollection_2">
			<g>
				<defs>
					<rect id="SVGID_57_" x="21.5" y="10.8" width="417.7" height="324"/>
				</defs>
				<clipPath id="SVGID_58_">
					<use xlink:href="#SVGID_57_"  style="overflow:visible;"/>
				</clipPath>
				<path class="st29" d="M105.8,165.7L105.8,165.7L105.8,165.7l0.2,0l0.2,0l0.1,0l0,0l0.2,0l0,0l0,0l0.1,0l0,0l0,0l0.1,0l0.1,0
					l0.2,0l0.1,0l0.2,0l0.1,0l0,0l0.1,0l0,0l0,0l0,0l0,0l0,0l0,0l0,0l0,0l0,0l0,0l0,0l0,0l0,0l0,0l0,0l0,0l0,0l0,0l0,0l0,0l0,0l0,0"
					/>
			</g>
			<g>
				<defs>
					<rect id="SVGID_59_" x="21.5" y="10.8" width="417.7" height="324"/>
				</defs>
				<clipPath id="SVGID_60_">
					<use xlink:href="#SVGID_59_"  style="overflow:visible;"/>
				</clipPath>
				<path class="st30" d="M108.3,165.3l1.6,0.9l0.8,0.9l0.6,0.5l0.5,0.2l5.2,2.4l0.2,0.5l0.9,3.5l1,1.3l0.6,1.8l0.2,0.6l0.3,0.6
					l0,0.9l-0.2,1l-0.1,0.7l0.2,0.4l0.3,0.6l0.1,0.8l0.6,0.9l0.3,1l0.3,1l0.5,1l0.5,0.7l0.2,0.7l0.1,0.8l0,2.1l-0.3,1.5l0.1,1.4
					l0.5,1l0.2,0.4l0.4,1.1l0.8,0.9l0.9,2.2l0.4,0.4l0.4,0.5l0.1,0.5l0.1,0.6l0.3,0.4l0.4,0.2l0.5,0l0.4,0.1l0.8,0.3l0.9,0.1l1,0.1
					l0.7,0.3l0.6,0.2l0.4,0.4l0.3,0.3l0.8,0.4l0.4-0.1l0.8-0.4l0.5-0.2l0.9-0.1l0.6,0.2l0.8,0.1l1.1,0.3l0.3,0.3l0.1,0.5l0.2,0.4
					l0.2,0.3l0.4,1.9l0.2,0.8l-0.1,0.5l-0.4,1.1l0.2,0.8l0,0.7l-0.2,2.8l0,0.7l0,0.6l0.1,0.6l-0.3,1.7l0.3,0.7l0.9,1.2l0.2,0.4
					l0.6,2.3l0.5,1.3l-0.2,0.4l-0.2,0.6l0,0.2l0.8,5.1l0.7,1l0.9,0.8l0.7,0.3l0.2,0.2l0.3,0.3l0.4,0.1l0.4,0.1l1.2,0.7l0.7,0.2
					l0.9,0.8l0.4,0.3l0.4,0.4l1.1,0.6l0.6,0.5l0.6,0.4l0.5,0.3l0.9,0.7l1,0.6l0.8,0.9l0.4,0.5l0.4,0.4l0,0.3l-0.3,0.9l-0.6,0.5
					l-0.3,0.3l-0.1,0.3l-0.2,1.8l0.3,2.1l0.3,0.8l0.6,0.9l0.9,1.1l0.3,1l0,0.8l0,0.4l0.2,0.6l0.1,1l-0.3,2.4l-0.3,0.5l-0.5,1.9
					l-0.4,0.6l-0.5,0.4l-0.7,0.6l-0.5,0.4l-1.3,0.6l-0.7,0.5l-0.5,0.3l-0.2,0.4l-0.2,0.4l-0.3,0.1l-0.5,0.1l-0.2,0.3l-0.4,0.5
					l-0.7,1l-0.5,1.8l-0.2,0.9l-0.3,0.8l-0.3,1.5l-0.8,1.3l0.1,0.4l0.3,0.4l0.9,0.6l1.4,0.9l0,0.3l-0.2,0.9l0.2,0.3l0.5,0.4l0.9,0.6
					l0.8,0.9l0.6,0.9l0.7,1l0.4,0.5l0.2,0.3l0.4,0.6l1.2,1l0.4,0.3l0.9,0.8l2.2,2.7l0.4,0.4l0.4,0.7l0.7,0.6l0.6,0.2l1.4,0.5
					l1.1,0.6l0.7,0.4l0.5,0.4l0.6,0.7l1.2,0.8l0.7,0.3l1.3,0.3l0.8,0.2l0.5,0.2l1.1,0.1l0.5,0.2l0.5-0.1l0.3-0.1l1.9-0.7l2.1-0.3
					l0.6,0.3l0.6,0.6l0.7,0.9l0.3,0.9l0.4,1l0.1,0.1l0,0"/>
			</g>
			<g>
				<defs>
					<rect id="SVGID_61_" x="21.5" y="10.8" width="417.7" height="324"/>
				</defs>
				<clipPath id="SVGID_62_">
					<use xlink:href="#SVGID_61_"  style="overflow:visible;"/>
				</clipPath>
				<path class="st31" d="M108.3,165.3l0.3-0.4l0.1-0.5l0.3-1.6l1.5-2.7l0.5-0.5l0.8-0.3l1.7-0.5l1.2-0.1l0.7,0l0.3-0.3l0.5-1.2
					l0.1-0.4l0.3-0.2l0.7-0.1l0.9-0.1l2.2-0.4l2.2,0.3l1.5,0.3l0.4-0.2l0.8-0.4l0.4,0l1.2,0.2l1.7,0.8l2.9,0.5l2.4-0.3l0.6-0.4
					l0.6-0.6l0.6-0.9l0.4-0.1l0.4,0.2l0.4,0.5l0.7,0.7l0.5,0.3l0.9,0.6l0.5,0.4l0.4,0.2l0.5-0.1l0.4,0l0.9,0.2l0.5-0.1l0.9-0.5
					l0.3-0.4l0.1-0.5l-0.4-2.3l-0.3-1.5l0.1-0.6l0.3-0.5l0.5-0.8l0.6-1.2l0.7-0.6l0.5-0.2l0.7,0l1.1,0l0.5-0.3l0.5-0.6l0.6-1
					l0.7-1.8l0.5-0.4l0.6-0.2l2.9-0.3l1.4,0.4l1.4,0.4l0.7-0.2l1.9-0.5l0.5,0.2l1.4,0.8l0.6,0l1.7-0.2l0.5,0l1.3-0.5l0.7-0.5
					l1.8-0.9l0.3-0.4l1.2-2.2l0.6-0.5l1.3-0.7l1-0.2l1.8-0.2l4.1,0.1l0.9-0.3l2.7-1.3l1.5-0.9l2.5-2.2l2-1l0.4-0.4l0.4-0.5l0,0"/>
			</g>
			<g>
				<defs>
					<rect id="SVGID_63_" x="21.5" y="10.8" width="417.7" height="324"/>
				</defs>
				<clipPath id="SVGID_64_">
					<use xlink:href="#SVGID_63_"  style="overflow:visible;"/>
				</clipPath>
				<path class="st32" d="M141.9,94.4l0.2,0.4l0,0.5l-1.1,4.1l0.1,0.8l-0.2,0.4l-0.5,0.8l0,0.6l0.2,1l0.6,1.2l0.6,1l0.5,0.4l0.6,0.2
					l2,0.4l0.7,0.5l0.5,0.6l0.3,0.7l0.5,1.6l0.6,0.7l0.9,1.1l0.5,0.8l0.5,0.4l0.6,0.2l1.1,0.2l1.5,0.3l1.2,0.5l1.3,0.8l1.2,1l1,1.1
					l1.4,1.8l0.6,0.2l1.5,0.2l0.6,0.4l1.2,0.9l0.5,0.1l1.2-0.2l1.9-0.2l1.8-0.1l1.5-0.4l0.8,0.1l1.1-0.1l0.5,0.2l0.8,0.5l0.5,0
					l1.5-0.3l1.4,0.2l0.8-0.2l0.7-0.4l1.2-0.8l0.6-0.1l2.1,0.2l0.6,0.2l0.6,0.2l0.6,0.4l0,0"/>
			</g>
			<g>
				<defs>
					<rect id="SVGID_65_" x="21.5" y="10.8" width="417.7" height="324"/>
				</defs>
				<clipPath id="SVGID_66_">
					<use xlink:href="#SVGID_65_"  style="overflow:visible;"/>
				</clipPath>
				<path class="st33" d="M158.7,302.8l0.2-0.3l0.4-0.2l0.6,0l0.6,0l0.8-0.4l0.3-0.3l0.4-1.3l0.1-0.7l0.3-0.4l0.5-0.2l0.5,0l2.6,0.5
					l1.3,0.8l0.5-0.1l0.5-0.3l0.8-0.5l0.8-0.2l1.5-0.2l0.8,0l0.8-0.1l0.5-0.1l0.4-0.4l0.7-0.8l0.9-0.5l1.3-0.7l0.6-0.6l0.6-0.9
					l0.6-0.9l0.3-0.3l0,0"/>
			</g>
			<g>
				<defs>
					<rect id="SVGID_67_" x="21.5" y="10.8" width="417.7" height="324"/>
				</defs>
				<clipPath id="SVGID_68_">
					<use xlink:href="#SVGID_67_"  style="overflow:visible;"/>
				</clipPath>
				<path class="st34" d="M178.6,293.5l0.4,0.2l1.2,0.5l0.8,0.6l0.7,1l1.1,0.5l0.8,0l0.9,0l0.3,0.3l0.7,0.8l0.9,0.9l0.2,0.5l0,0.9
					l0.1,0.7l0.3,0.4l0.5,0.3l0.4,0.3l0.2,0.4l0.3,0.7l0.2,0.5l-0.2,0.8l-0.4,0.5l-0.1,0.4l-0.2,1.7l-0.8,2l0,0"/>
			</g>
			<g>
				<defs>
					<rect id="SVGID_69_" x="21.5" y="10.8" width="417.7" height="324"/>
				</defs>
				<clipPath id="SVGID_70_">
					<use xlink:href="#SVGID_69_"  style="overflow:visible;"/>
				</clipPath>
				<path class="st35" d="M178.6,293.5l0.7-0.5l0.7-0.3l0.6,0l1.2,0.2l1.5-0.3l0.7,0.2l1.5,0.5l0.7-0.2l1-0.3l1.3-0.1l1.3-0.2
					l0.4-0.1l0.9,0.1l1-0.3l2.1-1l1.7-0.7l0.4,0l0.5,0.1l0.6,0l0.6,0.3l1,0.4l0.5,0.1l1,0.5l0.4,0l0.3-0.2l0.4-0.3l0.4,0l1.1,0.3
					l0.9-0.1l0.2-0.1l0.9-1.1l0.1-0.8l0.3-0.2l0.4-0.1l0.6-0.3l0.6-0.3l0.5-0.4l0.4,0l0.1,0l0,0"/>
			</g>
			<g>
				<defs>
					<rect id="SVGID_71_" x="21.5" y="10.8" width="417.7" height="324"/>
				</defs>
				<clipPath id="SVGID_72_">
					<use xlink:href="#SVGID_71_"  style="overflow:visible;"/>
				</clipPath>
				<path class="st36" d="M183.3,119.9l0.6,0.4l0.1,0.3l-0.1,0.3l-0.8,1l0,0.5l0.2,0.7l0.4,0.6l0.9,0.9l0.2,0.3l0.2,1l0.1,0.4
					l0.2,0.6l0.3,0.7l0.6,1.1l0.1,0.7l-0.1,2l0.3,0.5l1.1,1l0,0"/>
			</g>
			<g>
				<defs>
					<rect id="SVGID_73_" x="21.5" y="10.8" width="417.7" height="324"/>
				</defs>
				<clipPath id="SVGID_74_">
					<use xlink:href="#SVGID_73_"  style="overflow:visible;"/>
				</clipPath>
				<path class="st37" d="M183.3,119.9l0.7,0.1l0.4-0.1l0.6-0.2l0.9-0.3l1.7-0.7l2-0.1l0.9,0.2l0.9,0.4l1,0.8l0.6,0.3l0.6,0.1
					l0.6-0.1l0.5-0.3l2.4-1.4l2.7-0.8l0.8,0.1l0.7,0.4l0.2,0.1l0,0"/>
			</g>
			<g>
				<defs>
					<rect id="SVGID_75_" x="21.5" y="10.8" width="417.7" height="324"/>
				</defs>
				<clipPath id="SVGID_76_">
					<use xlink:href="#SVGID_75_"  style="overflow:visible;"/>
				</clipPath>
				<path class="st38" d="M187.5,132.8L187.5,132.8l0.1-0.1l0,0l0.1-0.2l0.1-0.1l0.1-0.2l0.1-0.2l0.1-0.2l0.1-0.1l0.1-0.1l0,0l0,0
					l0,0l0.1-0.2l0,0l0,0l0.1-0.1l0.1-0.1l0.2-0.3l0.2-0.3l0.3-0.4l0.1-0.2l0.2-0.2l0.1-0.1l0.1-0.1l0.1-0.1l0.1-0.1l0.2-0.2
					l0.1-0.1l0.3-0.3l0.3-0.3l0.1-0.1l0.1-0.1l0.3-0.3l0.3-0.3l0.1-0.2l0,0l0.5-0.7l0.7-0.9l0.3-0.3l0.2-0.2l0.2-0.2l0.1-0.1
					l0.1-0.1l0.1-0.1l0,0l0.1-0.1l0.3-0.2l0,0l0.1-0.1l0.2-0.2l0.1-0.1l0.1-0.1l0,0l0.1-0.1l0.1-0.1l0.1-0.1l0.1-0.1l0.4-0.5
					l0.2-0.2l0.1-0.1l0.1-0.1l0.1-0.1l0,0l0.1-0.1l0,0l0.1-0.1l0.1-0.1l0.1-0.1l0-0.1l0.1-0.1l0.1-0.1l0.1-0.1l0.1-0.1l0.1-0.3
					l0.4-0.7l0.1-0.1l0.1-0.1l0.1-0.1l0,0l0,0l0.1-0.1l0.1-0.1l0.1-0.1l0.1-0.1l0.1-0.1l0.1-0.1l0.3-0.2l0,0l0.1-0.1l0.5-0.3
					l0.2-0.1l0.1-0.1l0,0l0.1-0.1l0.1-0.1l0.1,0l0.1,0l0.1,0l0.1,0l0.1,0l0.1,0l0.1,0l0.1,0l0.1,0l0.1,0l0.1,0l0.1,0l0.2,0l0.1,0
					l0.1,0l0.1,0l0.2,0l0.1,0l0.1,0l0,0l0.1,0l0.1,0l0,0"/>
			</g>
			<g>
				<defs>
					<rect id="SVGID_77_" x="21.5" y="10.8" width="417.7" height="324"/>
				</defs>
				<clipPath id="SVGID_78_">
					<use xlink:href="#SVGID_77_"  style="overflow:visible;"/>
				</clipPath>
				<path class="st39" d="M187.5,132.8l0.5,0.5l0.6,0.9l0.4,1l0.5,1.9l0.5,1.7l0.5,0.9l0.8,1.2l0.2,0.7l0.3,1.9l0.5,1.9l-0.1,0.5
					L192,147l0.1,0.4l0.4,1.2l0,1.8l0.2,0.9l0.7,2.2l0.2,0.3l1.3,0.8l0.8,0l0.5,0.4l0.4,0.6l0.3,0.6l0.8,1l0,1.1l-0.3,1.2l0.7,2.1
					l0.2,0.7l0,0.9l-0.1,1l0,0.4l0.1,0.4l0.3,0.2l1.4,0.7l1.4,0.7l0.5,0.4l0.6,0.2l1.4,0.2l0.6,0.3l0.2,0.4l0.3,0.3l0.5,0.1l1.3,0.3
					l0.7,0.9l0.4,0.6l0.2,0.7l0.2,0.9l2.2,5.7l-0.1,1l-0.1,0.4l-0.2,0.6l0.1,0.4l0.7,1.2l0.8,1.4l0,0.6l-0.1,1.7l-0.3,0.4l-0.5,0.2
					l-1.2,0.6l-0.5,0.6l-0.6,1.1l-0.6,1.4l0,0.6l0.3,0.6l0.5,0.9l0.4,0.2l0.4,0.2l1,0.6l0.8,0.2l0.8,0.1l0.9-0.1l0.3,0.1l1.4,0.8
					l0.8,0l0.8,0.1l3.1,1l1.3,0.9l0.7,0l0.8,0l0.9,0.5l1.1,0.5l1,0.4l0.6,0.3l1.1,0.1l0.7,0l0.6,0.3l0.8,0.3l0.6,0.1l0.7-0.2l0.6,0
					l0.6,0.2l1,0.3l1.3,0.3l0.4,0.3l0.3,0.4l0.4,0.5l0.4,0.2l0.7,0.2l1.1,0.7l0.4,0.5l0.5,0.6l0.8,0.6l0.5,0.3l0.7,0.1l1.1-0.2
					l0.6,0.2l0.9,0.6l0.8,0.9l0.7,0.9l1.9,0.8l2.4,0.2l1.4-0.1l1.7,0.4l1.7,0.5l1.3,0l4.4,1.4l0.9,0.1l0.5,0.3l0.4,0.5l0.3,0.8
					l0.3,0.7l0.2,0.6l0.2,1l0.1,0.1l0,0"/>
			</g>
			<g>
				<defs>
					<rect id="SVGID_79_" x="21.5" y="10.8" width="417.7" height="324"/>
				</defs>
				<clipPath id="SVGID_80_">
					<use xlink:href="#SVGID_79_"  style="overflow:visible;"/>
				</clipPath>
				<path class="st40" d="M201.7,118.4L201.7,118.4L201.7,118.4l0.2-0.1l0.1,0l0.1,0l0,0l0.1,0l0.1,0l0.1,0l0,0l0,0l0,0l0.1,0
					l0.1-0.1l0.2-0.1l0.1-0.1l0.1-0.1l0,0l0.1,0l0.1,0l0.2-0.2l0,0l0.1,0l0,0l0.1-0.1l0,0l0.1-0.1l0.2-0.2l0,0l0.1-0.1l0.1-0.1
					l0.1-0.1l0.3-0.2l0.3-0.2l0.1-0.1l0.1,0l0.1-0.1l0.4-0.3l0.1-0.1l0.1-0.1l0,0l0,0l0.1,0l0,0l0.1-0.1l0.1,0l0,0l0,0l0,0l0,0
					l0.1-0.1l0.1-0.1l0,0l0.1-0.1l0.2-0.2l0.1,0l0,0l0.2-0.2l0,0l0,0"/>
			</g>
			<g>
				<defs>
					<rect id="SVGID_81_" x="21.5" y="10.8" width="417.7" height="324"/>
				</defs>
				<clipPath id="SVGID_82_">
					<use xlink:href="#SVGID_81_"  style="overflow:visible;"/>
				</clipPath>
				<path class="st41" d="M207.1,114.7l-0.2-0.1l-0.2-0.2l-0.1-0.6l-0.1-5.2l0.4-0.3l0.4-0.2l0.8-0.5l0.1-0.5l-0.1-0.6l-1-2.1
					l-0.6-0.7l0.2-0.1l0.3-0.1l0.5-0.2l1.2-0.4l0.9-0.9l0.4,0l1.3,0.3l1.2-0.1l2.6-0.4l0.7,0.2l0.6,0.1l0.7-0.2l0.7-0.4l0.5-0.6
					l0.4-0.7l0.4-0.7l0.3-0.1l0.7,0l0.3-0.3l0.1-0.4l-0.1-1.1l0.3-0.7l0-0.7l-0.2-0.6l-0.1-0.6l0.2-1.7l0.1-0.3l0.3-0.4l0-0.6
					l-0.2-0.3l-0.5-0.6l0-0.8l0.3-0.4l0.7-0.8l0.5-1.3l0-0.6l-0.2-1.5l0.1-0.4l1.1-1.4l0.1-0.5l0.1-0.6l-0.1-0.4l-0.2-0.5l-0.1-0.6
					l-0.3-0.3l-0.3-0.2l0,0"/>
			</g>
			<g>
				<defs>
					<rect id="SVGID_83_" x="21.5" y="10.8" width="417.7" height="324"/>
				</defs>
				<clipPath id="SVGID_84_">
					<use xlink:href="#SVGID_83_"  style="overflow:visible;"/>
				</clipPath>
				<path class="st42" d="M207.1,114.7l1.9-1.2l1.6-0.3l1,0.1l0.9,0.2l0.6,0.4l1.4,1.1l2.7,1.3l5.8,1l0.5,0.4l1.6,1.7l0.2,0.6
					l0.5,1.2l0.8,1.4l1.3,1.2l0.6,0.5l0.6,0.2l0.7,0.3l0.6,0.6l0.8,0.7l0.4,0l0.5-0.2l0.6-0.2l0.4,0.1l1.7,0.6l0.9,0l0.8-0.2
					l1.4-0.3l1.5-0.2l1.4-0.4l0.7,0l1.3,0.2l2.2-0.4l0.9-0.6l0.8-0.9l0.9-0.6l0.7-0.5l0.6-0.1l2.9-0.2l0.6,0.1l0.5,0.3l0.7,0.4
					l0.6,0l1.4-0.1l2.1,0.3l2.3,0.7l1.7-0.4l1.4-0.4l0.8-0.6l3.3-2.1l0.9-0.1l2.1-0.3l0.8-0.4l1.4-0.9l0.2-0.4l0.3-0.8l0.5-0.5
					l0.6-0.3l2.3-0.7l1.4,0l0.5-0.4l1.9-1.4l0.6-0.1l0.5,0.1l0.6,0.1l0.4-0.2l0.7-0.3l0.5,0l1.6,0.2l0.3,0.3l0.9,1.5l1.1,0.6l1,0.4
					l1.5,0.1l1.1,0.2l1.6,0.6l1.9,1l1.3,0.2l0.4-0.1l3.4-1.1l1,0l0.8,0l2.1-0.1l3.3,0l0.7-0.3l0.3-0.2l0,0"/>
			</g>
			<g>
				<defs>
					<rect id="SVGID_85_" x="21.5" y="10.8" width="417.7" height="324"/>
				</defs>
				<clipPath id="SVGID_86_">
					<use xlink:href="#SVGID_85_"  style="overflow:visible;"/>
				</clipPath>
				<path class="st43" d="M208.3,288.6L208.3,288.6L208.3,288.6L208.3,288.6"/>
			</g>
			<g>
				<defs>
					<rect id="SVGID_87_" x="21.5" y="10.8" width="417.7" height="324"/>
				</defs>
				<clipPath id="SVGID_88_">
					<use xlink:href="#SVGID_87_"  style="overflow:visible;"/>
				</clipPath>
				<path class="st44" d="M208.4,288.5l1.3,0.5l1.1-0.1l0.3,0.3l0.4,0.5l0.6,0.3l2.1,0.5l0.6-0.3l0.7-0.4l0.4,0l1,0.2l1-0.2l1,0.3
					l0.5,0.3l0.8,0.2l0.5,0.1l0.7-0.1l2.9-0.7l0.4-0.1l0.3-0.3l0.3-0.2l0.7-0.3l0.5-0.2l0.5,0l0.3,0.3l0.6,0.5l0.4,0.2l0.4-0.1
					l0.3-0.3l1.4-2.5l1.7-0.9l1.2,0l1.5-0.2l1.3-0.6l0.5,0.1l0.9,0.2l0.8-0.1l1.1-0.4l0.7-0.5l1.1-0.7l0.5,0.1l0.7,0.2l0.6-0.1
					l0.5-0.3l0.4-0.2l0.7-0.1l0.3-0.2l0.4-0.2l0.1-0.3l0.1-0.7l0.4-0.3l0.9-0.6l0.3-0.6l0.5-1.9l0.7-1.2l-0.1-0.7l-0.4-2l0.2-0.8
					l0.7-2.6l-0.1-1l-0.3-1.6l0.3-0.8l0.3-0.4l0.5-0.4l0.1-0.4l0-1.5l0-0.5l-0.2-0.6l-0.6-1.6l-0.5-0.9l0.1-0.3l0.6-0.9l0.7-1.2
					l0.4-1.6l0.4-0.3l0.5-0.1l0.9,0.1l0.2-0.2l0.1-0.3l0-0.7l0.3-0.5l0.3-0.2l1.1-0.3l0.8-0.4l2-0.4l0.9-0.3l0.9,0.1l0.9,0.2
					l0.7,0.1l1-0.1l0.6,0l0.7,0.1l0.3-0.2l0.6-0.5l0.6-0.5l0.4-0.1l0.3,0.1l0.4,0.3l0.5,0.2l0.4,0.2l0.5-0.1l0.7-0.3l1.2-0.8
					l0.4,0.2l0.4,0.2l0.7,0.1l0.4,0.1l0.2-0.2l0-0.3l0-0.4l0.4-0.8l0.5-0.8l1.1-0.6l0.6,0.3l0.5,0.4l0.6,0.5l0.3,0.3l1.3,0.2
					l0.6,0.2l0.4,0l0.2,0.2l0.2,0.3l0.5,0.2l0.7,0l0.1,0.4l0.1,0.8l0.1,0.4l0.3,0.2l0.7,0.1l0.3-0.2l0.2-0.3l0.4-1.5l0.3-0.2
					l0.7-0.2l0.6-0.6l1-0.3l1.4-0.2l0.8,0.2l1,0.5l1.3,0.9l1.9,1.5l0.5,0l0.4-0.3l0.4-0.6l0.7-1.6l0.8-2l0.5-0.6l0,0"/>
			</g>
			<g>
				<defs>
					<rect id="SVGID_89_" x="21.5" y="10.8" width="417.7" height="324"/>
				</defs>
				<clipPath id="SVGID_90_">
					<use xlink:href="#SVGID_89_"  style="overflow:visible;"/>
				</clipPath>
				<path class="st45" d="M208.4,288.5l0.4-0.3l0.6-0.3l0.5-0.2l0.6-0.4l0.7-0.9l1.4-1.7l1.9-2.8l0.4-1l0.4-1l0.3-0.6l0.1-1.6
					l-0.2-0.4l-0.6-1l0.1-0.8l0.1-0.4l0.3-0.8l0.1-0.7l0.2-0.3l0,0"/>
			</g>
			<g>
				<defs>
					<rect id="SVGID_91_" x="21.5" y="10.8" width="417.7" height="324"/>
				</defs>
				<clipPath id="SVGID_92_">
					<use xlink:href="#SVGID_91_"  style="overflow:visible;"/>
				</clipPath>
				<path class="st46" d="M233.2,231.2l0.2-0.1l0.2-0.2l0.5-0.2l0.4,0l0.6,0.1l0.3-0.1l1.4-0.9l0.7-0.1l1.2-0.3l0.8-0.4l0.5-0.5
					l0.3-0.7l0.3-0.6l0.5-0.4l0.3-0.1l2.6-0.3l1.3,0.1l0.8-0.5l1.6-1l0.6-0.4l0.5-0.7l0.5-0.4l1.1-0.7l1.2-0.9l0.9-0.4l1.1-0.4
					l0.6-0.5l0.2-0.5l0.1-0.5l0.5-0.8l0.7-0.3l0.7-0.3l0.2-0.4l0-0.5l0-0.7l0.2-0.3l0.4-0.6l0.5-1.1l0.6-0.4l0.7-0.6l0.4-0.7
					l0.5-0.4l1.1-0.3l0.8,0l0,0"/>
			</g>
			<g>
				<defs>
					<rect id="SVGID_93_" x="21.5" y="10.8" width="417.7" height="324"/>
				</defs>
				<clipPath id="SVGID_94_">
					<use xlink:href="#SVGID_93_"  style="overflow:visible;"/>
				</clipPath>
				<path class="st47" d="M261.6,212.4l0.4,0.2l0.6,0.3l1,1.2l0.7,0.2l0.5,0.2l0.4,0.5l0.8,1.2l1.6,1.6l1.2,1.7l1,0.7l2.4,1.6
					l0.5,0.1l0.9,0l2.5,0.8l0.4,0.3l0.7,0.4l0.9,0.8l1.7,0.9l0.9,0.3l1.1,0l0.7-0.2l0.9-0.3l0.5,0.1l0.4,0.3l0.9,1.1l0.5,0.4
					l0.1,0.3l0.2,0.8l0.3,0.6l0,0.8l0,0l0,0"/>
			</g>
			<g>
				<defs>
					<rect id="SVGID_95_" x="21.5" y="10.8" width="417.7" height="324"/>
				</defs>
				<clipPath id="SVGID_96_">
					<use xlink:href="#SVGID_95_"  style="overflow:visible;"/>
				</clipPath>
				<path class="st48" d="M261.6,212.4l0.6,0.1l0.7,0.2l0.2-0.2l0.3-0.3l1.4-0.4l0.2-0.3l0.1-0.6l0.3-0.3l0.9-0.4l0.4,0.1l0.6,0.1
					l0.5-0.1l0.6-0.4l0.5-0.6l0-0.4l-0.3-0.9l0.2-0.2l0.4-0.4l0.5-0.2l1.1-0.4l0.3-0.2l1.3-0.4l0.9-0.7l0.6-0.4l1.2-0.5l0.6-0.4
					l0.4,0l0.5,0.2l0.8,0.5l0.5,0.4l0.6,0.1l0.7-0.2l0.3-0.1l0.5-0.3l0.8-0.1l1-0.4l0,0"/>
			</g>
			<g>
				<defs>
					<rect id="SVGID_97_" x="21.5" y="10.8" width="417.7" height="324"/>
				</defs>
				<clipPath id="SVGID_98_">
					<use xlink:href="#SVGID_97_"  style="overflow:visible;"/>
				</clipPath>
				<path class="st49" d="M281.6,204.1L281.6,204.1L281.6,204.1L281.6,204.1l0.1,0l0.1,0l0.1,0l0.1,0l0,0l0,0"/>
			</g>
			<g>
				<defs>
					<rect id="SVGID_99_" x="21.5" y="10.8" width="417.7" height="324"/>
				</defs>
				<clipPath id="SVGID_100_">
					<use xlink:href="#SVGID_99_"  style="overflow:visible;"/>
				</clipPath>
				<path class="st50" d="M281.9,204.1l0.2-0.3l0.3-0.6l1.2-1.7l0.8-1.7l0.5-0.3l0.7-0.2l0.4-0.2l0.4-0.4l0.1-0.5l0.1-0.4l0.4-0.3
					l1-0.2l0.9-0.3l0.8-0.5l0.4-0.5l0.7-0.9l0.8-0.7l1.9-1.4l1.3-1l0.9-0.1l0.5-0.3l0.4-0.2l0.4-0.2l0.5-0.4l0.6-0.2l1.4-0.9
					l0.3-0.3l0.5-0.1l2.7-0.6l0.5-0.4l0.1-0.4l0-0.3l0.5-1l0.4-0.2l0.7,0l0.5,0l1.7-0.8l1.4-1.2l0.7-0.6l0.4-0.7l1.6-1.6l0.8-0.3
					l1.4,0l0.9,0.2l0.3-0.1l0.9-1.2l0.2-0.4l0.4-0.3l0.6-0.1l1.1,0.1l0.4-0.4l0.5-0.3l0.5,0l0.8,0.1l0.7-0.3l1.7-0.1l0.6-0.4
					l0.4-0.5l0.1-0.4l0-0.5l0.6-0.9l0.3-0.1l0.8-0.2l0.9-0.2l0.3,0l0.4-0.1l0.9-0.1l0.4,0l1.9-0.8l0.7,0l0.8-0.3l0.4-0.2l0.4-0.1
					l0.5-0.3l0.4-0.1l0.7-0.4l0.9,0.1l0.4-0.2l0.3-0.2l0.4-0.3l0.9-0.2l0.4-0.3l3-1.9l1.5-0.8l1.6-0.6l0.7-0.1l0,0"/>
			</g>
			<g>
				<defs>
					<rect id="SVGID_101_" x="21.5" y="10.8" width="417.7" height="324"/>
				</defs>
				<clipPath id="SVGID_102_">
					<use xlink:href="#SVGID_101_"  style="overflow:visible;"/>
				</clipPath>
				<path class="st51" d="M281.9,204.1l0.2,0.1l0.1,0.1l0.1,0.9l0.4,0.5l0.6,0l0.4-0.1l0.3,0l0.2,0.2l0,0.4l-0.3,1.3l0.2,0.2
					l0.6,0.4l0.3,0.4l2.1,1.8l0.9,2.1l1.2,1.6l0,0.3l-0.2,0.4l-0.4,0.5l-0.6,0.3l-3.6,1.6l0,0.3l0.2,0.3l0.4,0.2l0.6,0.2l0.3,0.3
					l0.2,0.6l-0.1,0.3l-0.2,0.2l-0.4,0.4l-0.2,0.6l-0.1,0.9l0.2,0.5l0.4,0.5l0.5,0.2l0.4,0.3l0.4,0.6l-0.1,0.3l-0.3,0.5l0.1,0.3
					l0.2,0.7l-0.1,0.6l0.2,0.2l0.3,0.3l0.1,0.5l-0.1,0.5l-0.2,0.2l-0.5,0.3l-0.2,0.3l-0.1,0.6l0,0"/>
			</g>
			<g>
				<defs>
					<rect id="SVGID_103_" x="21.5" y="10.8" width="417.7" height="324"/>
				</defs>
				<clipPath id="SVGID_104_">
					<use xlink:href="#SVGID_103_"  style="overflow:visible;"/>
				</clipPath>
				<path class="st52" d="M286.3,229.2l0,1.6l-0.4,0.9l0.1,0.5l0.5,0.8l0.3,0.2l1.4,0.6l0.4,0.6l1.7,2.9l0,0.8l0.2,6.4l0.3,0.5
					l0.5,0.3l0.5,0.1l1.2,0l0,0.2l-0.1,0.8l-0.2,1.1l0,0.8l0.2,0.9l0,0"/>
			</g>
			<g>
				<defs>
					<rect id="SVGID_105_" x="21.5" y="10.8" width="417.7" height="324"/>
				</defs>
				<clipPath id="SVGID_106_">
					<use xlink:href="#SVGID_105_"  style="overflow:visible;"/>
				</clipPath>
				<path class="st53" d="M292.8,249.2l0.7-0.5l2.1-1.1l1-0.4l1-0.2l1.3-0.6l0.6-0.6l0.4-0.7l0.4-0.7l0.5-0.4l0.9-0.4l0.2-0.4
					l0.2-0.6l0.4-0.3l0.9-0.5l0.4-0.2l1.7-0.1l0.8,0.2l1.3-0.3l2.2-1.2l0.6-0.9l0.7-0.5l0.8-0.3l0.6-0.3l1.3-0.9l0.6,0l0.6,0.3
					l1,0.4l0.7,0l0.7-0.2l0.5-0.4l1.1-0.9l0.5,0l2.6,0.6l1,0.1l0.9,0.4l0.9,0.4l2.5,0.5l1,0.5l0.7,0.1l3.5,0l0.8-0.1l0.7-0.3
					l0.7-0.5l0.5-0.7l0.3-0.8l0-0.9l-0.1-2.5l0.3-1l0.5-1.1l0.3-0.8l0-0.7l-0.8-3.7l-0.2-0.7l0-0.8l0.3-1.8l0-1.6l0.2-0.9l0.2-0.9
					l0.1-1.6l0.3-0.4l0.5-0.2l0.6,0l1.3,0.2l0.7-0.2l0.6-0.4l0.4-0.5l0.4-0.7l0.1-0.8l-0.1-0.8l-0.7-2.4l0-1l0.2-1l0.5-1l0.9-1.5
					l0.4-1.2l0-0.8l-0.3-0.7l-0.4-1l-0.1-2.1l0.7-0.7l0.4-0.3l0.1-0.3l0.1-0.4l0.2-0.5l-0.1-0.2l-0.2-0.7l0.1-0.5l-0.1-0.9l0-0.3
					l-0.1-0.8l0-0.6l-0.2-0.6l-0.1-0.3l0.1-0.3l0.3-0.5l-0.1-0.4l0-0.3l0.1-0.2l0.4-0.4l0.5-0.2l0.1-0.3l-0.1-0.3l-0.3-0.2l-0.3-0.2
					l-0.4-0.7l0.1-0.3l0.5-0.5l0.3-0.5l-0.1-0.3l-0.1-0.4l0-0.6l0.3-0.2l0.6-0.2l0.4,0l0.2-0.2l0-0.3l-0.2-0.3l0-0.3l-0.1-0.3
					l-0.4-0.3l-0.7-0.8l-0.1-0.5l-0.1-0.3l0-0.5l-0.2-0.4l0-0.7l0.2-0.2l0.4-0.1l0.4-0.4l0.3-0.9l0.2-0.3l-0.1-0.3l-0.1-0.3l0.2-1
					l0.1-0.5l-0.8-2.8l0.1-2.6l-0.2-0.8l0.1-0.5l0.3-1.1l0-0.7l-0.1-1l0-0.1l0,0"/>
			</g>
			<g>
				<defs>
					<rect id="SVGID_107_" x="21.5" y="10.8" width="417.7" height="324"/>
				</defs>
				<clipPath id="SVGID_108_">
					<use xlink:href="#SVGID_107_"  style="overflow:visible;"/>
				</clipPath>
				<path class="st54" d="M292.8,249.2l0.4,1l1.4,2.2l2.8,4.5l0.3,1.1l0.1,1.2l0.2,2.4l0.3,0.6l0.7,0.8l1.4,1.4l3.8,3l0.7,0.9l0.5,1
					l0.4,1.4l0.7,2.4l0.5,1l1.7,2.6l0.9,0.7l0.7,0.3l0.8,0.3l0.5,0.4l0.3,0.5l0.1,0.6l-0.1,0.6l-0.3,0.7l-0.3,0.7l0.1,0.5l0.4,0.7
					l0.1,0.2l0,0"/>
			</g>
			<g>
				<defs>
					<rect id="SVGID_109_" x="21.5" y="10.8" width="417.7" height="324"/>
				</defs>
				<clipPath id="SVGID_110_">
					<use xlink:href="#SVGID_109_"  style="overflow:visible;"/>
				</clipPath>
				<path class="st55" d="M304.4,92.3l0.7,0.1l1.3,0.4l0.6-0.1l2.4-1.1l1-0.1l0.8,0.1L312,92l0.7-0.1l0.8,0l0.1,0l0,0"/>
			</g>
			<g>
				<defs>
					<rect id="SVGID_111_" x="21.5" y="10.8" width="417.7" height="324"/>
				</defs>
				<clipPath id="SVGID_112_">
					<use xlink:href="#SVGID_111_"  style="overflow:visible;"/>
				</clipPath>
				<path class="st56" d="M308.1,117.5l-0.2-1.8l0.2-0.8l0.7-1.4l0.5-1.2l0.1-1l0.1-1.2l0.4-0.6l0.4-0.8l0.2-0.9l0.4-3.6l0.4-0.8
					l0.4-1l0.1-0.8l0.1-1.1l0.1-1.1l-0.1-1.3l-0.3-1.4l-0.4-1.4l0.2-0.3l1.2-1.7l0.7-1.3l0.3-0.2l0,0"/>
			</g>
			<g>
				<defs>
					<rect id="SVGID_113_" x="21.5" y="10.8" width="417.7" height="324"/>
				</defs>
				<clipPath id="SVGID_114_">
					<use xlink:href="#SVGID_113_"  style="overflow:visible;"/>
				</clipPath>
				<path class="st57" d="M308.1,117.5l1.5-0.7l0.7,0l1,0l1.6-0.1l2.2,0l1.7,0.1l1.5-0.1l0.9,0.1l2.8,1.1l0.7,0l0.8-0.1l0.6,0.2
					l0.5,0.4l0.4,0.8l0.4,0.5l0.5,0.2l0.5,0l2.2-0.3l1.6-0.3l0.6,0.3l0,0l0,0"/>
			</g>
			<g>
				<defs>
					<rect id="SVGID_115_" x="21.5" y="10.8" width="417.7" height="324"/>
				</defs>
				<clipPath id="SVGID_116_">
					<use xlink:href="#SVGID_115_"  style="overflow:visible;"/>
				</clipPath>
				<path class="st58" d="M313.6,91.9l2-0.4l0.9,0.1l0.7,0.3l0.8,0l0.8-0.2l0.6-0.1l3.4,0l3.2,1.3l0.2,0.4l0.5,1.1l0.6,0.8l0.8,0.6
					l0.6,0.3l4,0.9l1,0l2.4-0.5l0.7-0.2l0.6,0.1l1,0.2l0.7-0.2l1-0.6l2-1l1.7-0.4l1.5-0.2l0.6-0.5l0,0"/>
			</g>
			<g>
				<defs>
					<rect id="SVGID_117_" x="21.5" y="10.8" width="417.7" height="324"/>
				</defs>
				<clipPath id="SVGID_118_">
					<use xlink:href="#SVGID_117_"  style="overflow:visible;"/>
				</clipPath>
				<path class="st59" d="M330.8,119.5l0.8,0.3l0.5-0.1l0.4-0.3l0.5-0.7l0.4-0.1l1.2-0.1l1-0.7l0.9-0.3l1.2-0.5l0.7-0.1l0.5,0
					l1.1-0.3l1,0.4l1.2-0.1l1,0.2l0.8-0.2l2.8-1l1.8-1.8l0.4-0.4l0.5-0.2l0.7-0.1l0.2,0.1l0,0"/>
			</g>
			<g>
				<defs>
					<rect id="SVGID_119_" x="21.5" y="10.8" width="417.7" height="324"/>
				</defs>
				<clipPath id="SVGID_120_">
					<use xlink:href="#SVGID_119_"  style="overflow:visible;"/>
				</clipPath>
				<path class="st60" d="M330.8,119.5l1.3,0.9l0,0.4l-0.1,0.3l-0.6,0.9l-0.1,0.7l0.1,0.9l0.2,0.5l0.5,0.9l0.1,0.7l0.3,0.2l0.5,0.2
					l0.9,0.6l0.8,0.2l0.7,0.1l2.1,0.7l0.2,0.3l1.1,1l0.4,0.4l0.4,0.1l1.3,0.2l0.7,0.4l0.4-0.1l0.3-0.3l0.4-0.5l0.4-0.1l0.5,0.2
					l1.6,0.6l0.5-0.1l0.3-0.3l1-1.4l0.4,0l1.3,0.1l0.5-0.2l0.3-0.4l0.4-0.5l0.5-0.2l0.7-0.3l0.2-0.4l0.4-0.9l1.5-1.3l0.3-0.2
					l0.7-0.2l0.6-0.4l1.3-0.4l0.7-0.4l0.6,0l0.4,0.2l0,0"/>
			</g>
			<g>
				<defs>
					<rect id="SVGID_121_" x="21.5" y="10.8" width="417.7" height="324"/>
				</defs>
				<clipPath id="SVGID_122_">
					<use xlink:href="#SVGID_121_"  style="overflow:visible;"/>
				</clipPath>
				<path class="st61" d="M335.2,63.5l0.2,0.2l0.5,1.1l0.2,0.4l0.4,0.3l0.7,0.5l0.3,0.5l0,0.4l-0.1,1.1l0.2,2.4l-0.4,1.5l-0.2,0.3
					l-0.3,0.4l-0.1,0.4l0,0.7l0,0.8l0.2,0.5l0.3,0.3l0.5,0.4l0.2,0.4l0.5,2.5l0.4,1l1.1,1.3l0.8,1.3l0.9,0.7l0.5,1l0.3,0.6l0.4,0.3
					l1.1,0.5l0.3,0.4l0.2,0.7l0.2,1.9l-0.3,1.2l0.2,0.4l0.7,0.9l0.2,1l0.4,1.6l0.4,0.3l0,0"/>
			</g>
			<g>
				<defs>
					<rect id="SVGID_123_" x="21.5" y="10.8" width="417.7" height="324"/>
				</defs>
				<clipPath id="SVGID_124_">
					<use xlink:href="#SVGID_123_"  style="overflow:visible;"/>
				</clipPath>
				<path class="st62" d="M344.7,168.3L344.7,168.3L344.7,168.3l0-0.1l0-0.1l0-0.1l0-0.1l0-0.1l0-0.1l0-0.1l0.1-0.1l0.1-0.1l0.1-0.1
					l0-0.1l0,0l0.1-0.1l0.1-0.1l0,0l0.2-0.2l0.3-0.3l0.1-0.1l0.2-0.1l0,0l0.1-0.1l0.2-0.2l1.1-0.9l0.7-0.6l0.3-0.3l0,0l0.1-0.1
					l0.1-0.1l0.1-0.1l0.1-0.1l0.1-0.1l0.1-0.1l0,0l0.1-0.1l0-0.1l0.1-0.1l0.1-0.1l0-0.1l0-0.1l0-0.1l0.1-0.2l0.1-0.2l0.1-0.2
					l0.1-0.2l0-0.2l0-0.1l0-0.2l0-0.2l0-0.1l0-0.1l0-0.1l0-0.1l0,0l0-0.1l0-0.2l0-0.2l0-0.1l0-0.1l0,0l0-0.1l0-0.1l0-0.1l0-0.1l0,0
					l0-0.1l0-0.2l0-0.1l0-0.1l0-0.1l0,0l0,0l0,0"/>
			</g>
			<g>
				<defs>
					<rect id="SVGID_125_" x="21.5" y="10.8" width="417.7" height="324"/>
				</defs>
				<clipPath id="SVGID_126_">
					<use xlink:href="#SVGID_125_"  style="overflow:visible;"/>
				</clipPath>
				<path class="st63" d="M346,93.6L346,93.6L346,93.6L346,93.6L346,93.6l0.1,0.1l0,0l0,0l0.1,0l0,0l0,0l0,0l0,0l0,0l0.1,0l0,0l0,0
					l0,0l0,0l0,0l0,0l0,0l0,0l0,0l0.1,0l0.1,0l0.1,0l0.1,0l0.2,0l0.1,0l0.1,0l0.1,0l0.1,0l0.1,0l0.1,0l0,0l0,0l0,0l0,0l0,0l0,0l0,0
					l0,0l0,0l0,0l0,0l0,0l0,0l0,0l0,0l0,0l0,0l0,0l0,0l0,0l0,0l0,0l0,0l0,0l0.1,0l0.3,0.2l0,0l0,0l0.1,0.1l0.1,0l0.1,0l0,0l0,0l0,0
					l0,0l0,0l0,0l0,0l0,0l0,0l0,0l0,0l0,0l0,0l0.1,0l0.1,0l0.1,0l0,0l0.2,0l0.1,0l0.1,0l0.1,0l0.1,0l0.1,0l0.1,0l0.1,0l0.2,0l0.1,0
					l0.1,0l0.2,0l0,0l0.6,0.1l0.3,0.1l0.1,0l0.2,0l0.5,0.1l0.5,0.1l0.1,0l0.1,0l0.1,0l0.1,0l0.1,0l0.1,0l0.1,0l0.1,0l0,0l0,0l0,0
					l0,0l0,0l0.1,0.1l0.1,0.1l0.1,0.1l0.2,0.2l0,0l0,0l0,0l0.1,0.1l0.2,0.2l0,0l0.1,0.1l0,0"/>
			</g>
			<g>
				<defs>
					<rect id="SVGID_127_" x="21.5" y="10.8" width="417.7" height="324"/>
				</defs>
				<clipPath id="SVGID_128_">
					<use xlink:href="#SVGID_127_"  style="overflow:visible;"/>
				</clipPath>
				<path class="st64" d="M350,159.6l-0.5-2.1l-0.7-1.3l-0.5-1.2l-0.2-1l0-1.2l0.3-1.1l0.5-1l0.7-1.3l0.2-0.9l0-1.8l0.1-3.3l0.3-1.2
					l0.5-1.2l0.6-1l0.7-0.8l1-0.6l1.7-1l1.4-1.5l2.3-2.6l0.5-0.9l0,0"/>
			</g>
			<g>
				<defs>
					<rect id="SVGID_129_" x="21.5" y="10.8" width="417.7" height="324"/>
				</defs>
				<clipPath id="SVGID_130_">
					<use xlink:href="#SVGID_129_"  style="overflow:visible;"/>
				</clipPath>
				<path class="st65" d="M350,159.6l1.4,0l0.8,0.3l0.6,0.1l0.5-0.1l0.4-0.3l0.7-1l0.4,0.1l2.4,0.9l0.8,0.1l3,0.1l0.7,0.3l2,1.2
					l1.5,1.3l0.1,0l0,0"/>
			</g>
			<g>
				<defs>
					<rect id="SVGID_131_" x="21.5" y="10.8" width="417.7" height="324"/>
				</defs>
				<clipPath id="SVGID_132_">
					<use xlink:href="#SVGID_131_"  style="overflow:visible;"/>
				</clipPath>
				<path class="st66" d="M355.3,95.9l0.3-0.4l0.4-0.1l0.9,0.1l0.9,0l1.4-0.2l1.6,0.3l0.5,0.4l1.3,1.2l0.5,0.1l1.4,0l0.8-0.2l1-0.3
					l0.8,0l1,0.1l0,0"/>
			</g>
			<g>
				<defs>
					<rect id="SVGID_133_" x="21.5" y="10.8" width="417.7" height="324"/>
				</defs>
				<clipPath id="SVGID_134_">
					<use xlink:href="#SVGID_133_"  style="overflow:visible;"/>
				</clipPath>
				<path class="st67" d="M355.3,95.9l0.6,0.7l0.5,1.1l0.6,0.8l0.9,1.1l0.4,0.9l0,0.6l0.1,0.9l0.4,0.6l1.1,1.8l2.6,4l1.3,1.5
					l1.5,1.5l0.6,0.6l0,0"/>
			</g>
			<g>
				<defs>
					<rect id="SVGID_135_" x="21.5" y="10.8" width="417.7" height="324"/>
				</defs>
				<clipPath id="SVGID_136_">
					<use xlink:href="#SVGID_135_"  style="overflow:visible;"/>
				</clipPath>
				<path class="st68" d="M356.9,118.2L356.9,118.2L356.9,118.2L356.9,118.2L356.9,118.2L356.9,118.2L356.9,118.2l0.1,0l0,0l0.2,0
					l0.1,0l0.1,0l0.1,0l0.1,0l0,0l0,0l0.1,0l0.1,0l0,0"/>
			</g>
			<g>
				<defs>
					<rect id="SVGID_137_" x="21.5" y="10.8" width="417.7" height="324"/>
				</defs>
				<clipPath id="SVGID_138_">
					<use xlink:href="#SVGID_137_"  style="overflow:visible;"/>
				</clipPath>
				<path class="st69" d="M357.5,122.5L357.5,122.5l0,0.1l0,0.1l0,0.1l0,0.1l0,0.1l0,0l0,0l0,0.1l0,0.1l0,0.1l0,0.1l0,0.1l0,0.1
					l0,0.1l0,0l0,0l0,0.1l0,0.1l0,0.1l0,0.1l0,0.1l0,0.1l0,0l0,0.1l0,0.1l0,0l0,0l0,0.1l0,0l0,0.1l0.1,0.1l0.1,0.1l0,0.1l0.1,0.1
					l0.1,0.1l0.4,0.7l0,0.1l0.1,0.2l0,0.1l0,0l0.1,0.2l0,0l0,0l0,0l0,0.1l0,0.1l0,0.1l0,0.1l0,0.1l0,0.1l0,0.2l0,0.2l0,0l0.1,0.7
					l0,0.1l0,0.2l0,0.1l0,0l0,0l0,0.1l0,0l0,0.1l0,0.3l0,0.2l0,0.2l0,0.2l0,0.2l0,0.2l0,0.1l0,0l0,0.1l0,0l0,0.1l0,0.1l0,0l0,0l0,0
					l0,0.1l0,0l0,0.1l0,0.1l0,0.1l0,0.1l0,0.1l0,0.1l0,0.1l0,0.1l0,0l-0.1,0.2l0,0.1l0,0.1l0,0.1l0,0.1"/>
			</g>
			<g>
				<defs>
					<rect id="SVGID_139_" x="21.5" y="10.8" width="417.7" height="324"/>
				</defs>
				<clipPath id="SVGID_140_">
					<use xlink:href="#SVGID_139_"  style="overflow:visible;"/>
				</clipPath>
				<path class="st70" d="M357.5,122.5L357.5,122.5l0-0.1l0-0.1l0-0.2l0-0.1l0-0.1l0-0.1l0,0l0,0l0-0.1l0-0.2l0,0l0,0l0,0l0-0.1
					l0-0.1l0.2-0.9l0,0l0-0.1l0,0l0,0l0,0l0,0l0,0l0.1-0.1l0,0l0,0l0,0l0,0l0,0l0,0l0,0l0,0l0,0l0,0l0,0l0-0.1l0-0.1l0,0l0,0l0,0
					l0,0l0,0l0,0l0,0l0,0l0,0l0-0.1l0-0.1l0,0l0,0l0,0l0,0l0,0l0,0l0,0l0,0l0,0l0,0l0,0l0,0l0,0l0,0l0,0l0,0l0,0l0,0l0,0l0,0l0,0
					l0,0l0,0l-0.1,0l-0.1,0l0,0"/>
			</g>
			<g>
				<defs>
					<rect id="SVGID_141_" x="21.5" y="10.8" width="417.7" height="324"/>
				</defs>
				<clipPath id="SVGID_142_">
					<use xlink:href="#SVGID_141_"  style="overflow:visible;"/>
				</clipPath>
				<path class="st71" d="M357.5,122.5l0.2,0l0.2-0.2l0.5-1.2l0.4-0.1l0.4,0.1l1.3,0.3l1.3,0l0.7,0.1l0.7,0.2l1.1,0.4l0.5-0.1l1-0.4
					l1.3-0.2l0.6,0l0.7,0.2l0.5-0.2l0.6-0.5l0.2-0.5l-0.1-0.5l-0.2-0.8l0.1-0.5l0.1-0.2l0,0"/>
			</g>
			<g>
				<defs>
					<rect id="SVGID_143_" x="21.5" y="10.8" width="417.7" height="324"/>
				</defs>
				<clipPath id="SVGID_144_">
					<use xlink:href="#SVGID_143_"  style="overflow:visible;"/>
				</clipPath>
				<path class="st72" d="M357.9,118.5l0.7,0.4l0.2,0.1l1.1-0.2l1.1,0.1l0.1-0.2l0.1-0.5l0.3-0.2l0.4-0.3l0.3-0.7l0.3-0.3l0.3-0.2
					l0.1-0.5l0.2-0.5l0.1-0.3l0.2-0.4l0.7-0.8l0,0"/>
			</g>
			<g>
				<defs>
					<rect id="SVGID_145_" x="21.5" y="10.8" width="417.7" height="324"/>
				</defs>
				<clipPath id="SVGID_146_">
					<use xlink:href="#SVGID_145_"  style="overflow:visible;"/>
				</clipPath>
				<path class="st73" d="M358.8,132.5l1.1,0.5l2.5,2.3l0,1.1l0,0.6l-0.3,0.5l-0.4,0.8l-0.3,0.9l0,0.9l0.2,0.9l0.4,0.9l0.5,0.6
					l2.3,2.7l0.3,1l0.2,1.4l0.3,2.1l0.5,1.4l0.6,1.1l0.7,0.8l0.8,0.6l0.8,0.4l2.1,0.9l0.6,0.6l0.1,0.2l0,0"/>
			</g>
			<g>
				<defs>
					<rect id="SVGID_147_" x="21.5" y="10.8" width="417.7" height="324"/>
				</defs>
				<clipPath id="SVGID_148_">
					<use xlink:href="#SVGID_147_"  style="overflow:visible;"/>
				</clipPath>
				<path class="st74" d="M365.1,162.7l-1.8,1.3l-0.5,0.6l-0.1,0.6l0.1,0.5l0.4,0.5l0.6,0.9l0.1,0.6l-0.1,0.6l-0.3,1l0.2,0.8
					l0.1,0.8l-0.1,0.8l-0.3,1.3l-0.2,0.7l-0.1,0.6l0.1,0.6l0.4,0.6l0.3,0.7l0.3,0.8l0.5,1.1l0.3,0.8l1.3,1.9l0.4,0.9l0.1,0.8l0,1.6
					l0.6,2.1l1.7,1.5l0.8,0.5l0.1,0.4l0.1,0.7l0.9,1.1l1,0.3l0.3,0.4l0.6,0.9l0,0"/>
			</g>
			<g>
				<defs>
					<rect id="SVGID_149_" x="21.5" y="10.8" width="417.7" height="324"/>
				</defs>
				<clipPath id="SVGID_150_">
					<use xlink:href="#SVGID_149_"  style="overflow:visible;"/>
				</clipPath>
				<path class="st75" d="M363.5,113.5L363.5,113.5L363.5,113.5l0,0.1l0,0l0,0l0,0l0,0l0,0l0,0l0.1,0.1l0.1,0.1l0.1,0.1"/>
			</g>
			<g>
				<defs>
					<rect id="SVGID_151_" x="21.5" y="10.8" width="417.7" height="324"/>
				</defs>
				<clipPath id="SVGID_152_">
					<use xlink:href="#SVGID_151_"  style="overflow:visible;"/>
				</clipPath>
				<path class="st76" d="M364,114L364,114l0.2-0.2l0,0l0,0l0,0l0,0l0,0l0.1-0.1l0.4-0.4l0-0.1l0.1-0.1l0,0l0.1-0.1l0,0l0,0l0,0
					l0.2-0.2l0.2-0.2l0,0l0.1-0.1l0-0.1l0,0l0,0l0,0l0,0"/>
			</g>
			<g>
				<defs>
					<rect id="SVGID_153_" x="21.5" y="10.8" width="417.7" height="324"/>
				</defs>
				<clipPath id="SVGID_154_">
					<use xlink:href="#SVGID_153_"  style="overflow:visible;"/>
				</clipPath>
				<path class="st77" d="M364,114L364,114L364,114l0.2,0.2l0,0l0,0l0,0l0.1,0l0,0l0,0l0,0l0,0l0,0l0.1,0.1l0.1,0l0.1,0l0.1,0
					l0.2,0.1l0.2,0.1l0.1,0l0.1,0l0.3,0.1l0.1,0l0.1,0l0.1,0l0.1,0l0.1,0l0.1,0l0,0l0,0l0,0l0,0l0,0l0,0l0,0l0,0l0,0l0,0.1l0.1,0.1
					l0,0.1l0,0.1l0,0.1l0,0l0,0l0,0.1l0,0l0,0l0,0l0,0.1l0,0.1l0,0l0,0.1l0,0.1l0,0.1l0,0.1l0,0.1l0,0.1l0,0l0,0l0,0.1l0,0l0,0.1
					l0,0l0,0l0,0l0,0l0,0l0,0l0.1,0l0,0l0.1,0l0.1,0l0.6,0.2l0.1,0l0,0l0,0l0,0l0,0l0,0l0,0l0,0l0,0l0,0l0,0l0,0.1l0,0.1l0.1,0.4
					l0,0l0,0l0,0l0,0l0,0l0,0l0,0l0,0l0,0l0,0l0,0l0,0l0,0l0,0l0.1,0l0,0l0.2,0l0.1,0l0,0l0.1,0l0,0"/>
			</g>
			<g>
				<defs>
					<rect id="SVGID_155_" x="21.5" y="10.8" width="417.7" height="324"/>
				</defs>
				<clipPath id="SVGID_156_">
					<use xlink:href="#SVGID_155_"  style="overflow:visible;"/>
				</clipPath>
				<path class="st78" d="M365.1,162.7L365.1,162.7L365.1,162.7L365.1,162.7L365.1,162.7l0.1,0.1l0,0l0.1,0.1l0,0l0,0l0,0l0,0l0,0
					l0,0l0.1,0l0,0l0,0l0,0l0,0l0,0l0,0l0,0"/>
			</g>
			<g>
				<defs>
					<rect id="SVGID_157_" x="21.5" y="10.8" width="417.7" height="324"/>
				</defs>
				<clipPath id="SVGID_158_">
					<use xlink:href="#SVGID_157_"  style="overflow:visible;"/>
				</clipPath>
				<path class="st79" d="M365.1,162.7L365.1,162.7L365.1,162.7l0.2-0.1l0.1-0.1l0.1,0l0,0l0,0l0,0l0.1,0l0.1-0.1l0,0l0.1-0.1
					l0.1-0.1l0.1-0.1l0.1-0.1l0.1-0.1l0.1-0.1l0-0.1l0-0.1l0,0l0.1-0.1l0.1-0.1l0.1-0.1l0.1-0.1l0,0l0.1-0.1l0.1-0.1l0.1-0.1l0-0.1
					l0.2-0.3l0.4-0.9l0.2-0.5l0,0l0-0.1l0-0.1l0-0.1l0-0.1l0.1-0.1l0,0l0,0l0.1-0.1l0.1-0.1l0.1-0.1l0.1-0.1l0,0l0,0l0,0l0,0l0,0
					l0.1,0l0.1,0l0,0l0,0l0.1,0l0.1-0.1l0.1,0l0.1,0l0,0l0.1-0.1l0.1-0.1l0.1,0l0.1-0.1l0.1-0.1l0.1-0.1l0,0l0.1,0l0.1-0.1l0.1-0.1
					l0.1-0.1l0,0l0.1-0.1l0.1-0.1l0,0l0.1-0.1l0.2-0.2l0,0l0.1-0.1l0.1-0.1l0.1-0.1l0.1-0.1l0.1-0.1l0,0l0.1-0.1l0,0l0,0l0.1,0
					l0.1,0l0,0l0.2-0.1l0,0"/>
			</g>
			<g>
				<defs>
					<rect id="SVGID_159_" x="21.5" y="10.8" width="417.7" height="324"/>
				</defs>
				<clipPath id="SVGID_160_">
					<use xlink:href="#SVGID_159_"  style="overflow:visible;"/>
				</clipPath>
				<path class="st80" d="M365.8,112.1l0.4-0.6l0-0.8l0.4-1.1l0.2-0.4l0.2-0.5l0.3-0.6l0.6-1l0.2-0.8l0.1-0.8l0.2-0.2l0.4,0l1.1,0
					l0.3-0.3l0.1-0.3l0.3-0.9l0.2-0.8l-0.1-0.5l-0.3-0.8l0.1-0.5l0.3-1.5l-0.2-1.7l-0.2-0.2l-1.6-1.3l-0.6,0l-0.2,0.1l0,0"/>
			</g>
			<g>
				<defs>
					<rect id="SVGID_161_" x="21.5" y="10.8" width="417.7" height="324"/>
				</defs>
				<clipPath id="SVGID_162_">
					<use xlink:href="#SVGID_161_"  style="overflow:visible;"/>
				</clipPath>
				<path class="st81" d="M368,96.7l0.3-1l0.1-1.1l0.2-0.9l0.3-1.3l0.5-0.4l1.5-1.1l0.8-0.6l0.4-0.6l1.3-3.8l-0.2-0.6l-0.2-0.9
					l0.1-0.7l0.4-1l0.6-0.9l0.8-0.9l0.5-0.3l0.7-0.4l0.2-0.4l0.5-1.3l0.5-0.6l0.8-0.9l0.1-0.6l0-1.8l0.4-1.8l-0.1-0.6l-0.3-0.6
					l-0.4-0.8l0-0.5l0.6-1.6l0.4-0.4l0.5-0.2l1.6-0.7l0.4-0.5l0.2-0.6l-0.1-0.6l0-0.7l0.3-0.7l0.5-1.3l0.1-0.8l-0.2-0.6l-0.3-0.5
					l-0.8-1l-0.3-0.3l-1-0.8l-0.2-0.5l-0.2-0.9l-0.3-0.8l0.1-0.5l0-0.1l0,0"/>
			</g>
			<g>
				<defs>
					<rect id="SVGID_163_" x="21.5" y="10.8" width="417.7" height="324"/>
				</defs>
				<clipPath id="SVGID_164_">
					<use xlink:href="#SVGID_163_"  style="overflow:visible;"/>
				</clipPath>
				<path class="st82" d="M369.6,118.5l2.4,1l1.2,0.8l1,0.3l0.9,0.1l1.8,0.1l2,0.5l0.8,0.4l0.7,0.6l1.8,1.7l0.7,0.7l0.7,1l0.7,0.9
					l0.9,0.8l0.9,0.6l2.9,1.3l1,0.2l1.4,0.1l1.1,0.2l2,0.7l0.8,0.4l0.4,0.4l0.2,0.6l0,0.1l0,0"/>
			</g>
			<g>
				<defs>
					<rect id="SVGID_165_" x="21.5" y="10.8" width="417.7" height="324"/>
				</defs>
				<clipPath id="SVGID_166_">
					<use xlink:href="#SVGID_165_"  style="overflow:visible;"/>
				</clipPath>
				<path class="st83" d="M371.6,155.7L371.6,155.7l0.2-0.1l0,0l0.1-0.1l0.2-0.1l0.2-0.1l0.1,0l0.2-0.1l0.3-0.1l0.1,0l0.3-0.1l0,0
					l0.1,0l0.2-0.1l0.1,0l0.1,0l0.1,0l0.1,0l0.1,0l0.1,0l0.2,0l0.2,0l0,0l0.1,0l0.1,0l0.1,0l0.1,0l0.1,0l0.1,0l0.1,0l0,0l0,0l0,0
					l0.1,0l0.1-0.1l0,0l0,0l0.3-0.2l0,0l0,0l0,0l0,0l0,0l0,0l0,0l0,0l0,0l0,0l0,0l0,0l0,0l0,0l0-0.1l0-0.1l-0.4-0.8l0-0.1l0,0l0,0"
					/>
			</g>
			<g>
				<defs>
					<rect id="SVGID_167_" x="21.5" y="10.8" width="417.7" height="324"/>
				</defs>
				<clipPath id="SVGID_168_">
					<use xlink:href="#SVGID_167_"  style="overflow:visible;"/>
				</clipPath>
				<path class="st84" d="M371.6,155.7l0.4,0.5l0,0l0,0l0,0l0.1,0.1l0.1,0.1l0.1,0.1l0.1,0.1l0.1,0.2l0.1,0.2l0.2,0.2l0,0l0.1,0.1
					l0,0l0,0l0.2,0.3l0,0l0,0l0,0l0,0l0,0l0,0l0,0l0,0l0,0l0,0l0,0l0,0l0,0l0,0l0,0l0,0l0,0l0,0l0,0l0,0l0,0l0,0l0,0l-0.1,0.1l0,0
					l0,0l0,0l0,0l0,0l0,0l0,0l0,0l0,0l0,0l0,0l0,0"/>
			</g>
			<g>
				<defs>
					<rect id="SVGID_169_" x="21.5" y="10.8" width="417.7" height="324"/>
				</defs>
				<clipPath id="SVGID_170_">
					<use xlink:href="#SVGID_169_"  style="overflow:visible;"/>
				</clipPath>
				<path class="st85" d="M396.1,131.9l0,0.6l-0.2,2.5l0.2,0.7l0.4,0.6l0.6,0.4l0.9,0.3l1.2,0.3l0.6,0.2l0.6,0.2l1.1,0.2l2.8,2
					l0.7,0.1l2.4,0.5l0.9,0.5l1.3,0.7l0.5,0l0.7,0l0.6,0.2l0.8,0.3l0.8,0l0.8-0.2l0.6-0.3l1.2-0.7l0.6,0l0.5,0.2l0.2,0.1l0,0"/>
			</g>
			<g>
				<defs>
					<rect id="SVGID_171_" x="21.5" y="10.8" width="417.7" height="324"/>
				</defs>
				<clipPath id="SVGID_172_">
					<use xlink:href="#SVGID_171_"  style="overflow:visible;"/>
				</clipPath>
				<path class="st86" d="M396.1,131.9l0.3-0.2l1-0.8l0.6-0.1l0.7-0.1l0.6-0.3l0.3-0.2l0.9-0.8l0.5,0l0.3,0.1l1.3,1.1l0.7,0.2l0.7,0
					l0.7-0.2l1.8-0.9l0.5-0.3l0.4-0.4l0.2-0.5l0.4-1.3l0.6-0.9l0.3-0.5l0.4-0.8l0.7-0.7l0.5-0.2l0.6,0l0.4,0.1l1.7,0.8l0.3,0.1l0,0"
					/>
			</g>
		</g>
		<g id="legend_1">
			<g id="patch_2">
				<path class="st87" d="M365.5,77.5h66.8c1.3,0,2-0.7,2-2V17.8c0-1.3-0.7-2-2-2h-66.8c-1.3,0-2,0.7-2,2v57.7
					C363.5,76.8,364.2,77.5,365.5,77.5z"/>
			</g>
			<g id="PathCollection_1">
				<g>
					<g>
						<path id="m44f98e7f17" class="st88" d="M377.5,29.8c1.3,0,2.6-0.5,3.5-1.5c0.9-0.9,1.5-2.2,1.5-3.5s-0.5-2.6-1.5-3.5
							c-0.9-0.9-2.2-1.5-3.5-1.5s-2.6,0.5-3.5,1.5c-0.9,0.9-1.5,2.2-1.5,3.5s0.5,2.6,1.5,3.5C374.9,29.2,376.2,29.8,377.5,29.8z"/>
					</g>
				</g>
			</g>
			<g id="text_1">
				<g transform="translate(395.502371 27.398438)scale(0.1 -0.1)">
					<g>
						<path id="DejaVuSans-30" d="M31.8,66.4c-5.1,0-8.9-2.5-11.5-7.5c-2.6-5-3.8-12.5-3.8-22.5c0-10,1.3-17.5,3.8-22.5
							c2.6-5,6.4-7.5,11.5-7.5c5.1,0,8.9,2.5,11.5,7.5c2.6,5,3.8,12.5,3.8,22.5c0,10-1.3,17.5-3.8,22.5
							C40.7,63.9,36.9,66.4,31.8,66.4z M31.8,74.2c8.2,0,14.4-3.2,18.7-9.7c4.3-6.5,6.5-15.8,6.5-28.1c0-12.3-2.2-21.6-6.5-28.1
							C46.2,1.8,40-1.4,31.8-1.4c-8.2,0-14.4,3.2-18.7,9.7c-4.3,6.5-6.5,15.8-6.5,28.1c0,12.3,2.2,21.7,6.5,28.1
							C17.4,71,23.6,74.2,31.8,74.2z"/>
					</g>
					<g>
						<path id="DejaVuSans-20" d="M63.6,0"/>
					</g>
					<g>
						<path id="DejaVuSans-6d" d="M147.4,44.2c2.2,4,4.9,7,8.1,8.9s6.8,2.9,11,2.9c5.7,0,10.1-2,13.2-6c3.1-4,4.6-9.6,4.6-17V0h-9
							v32.7c0,5.2-0.9,9.1-2.8,11.7c-1.9,2.5-4.7,3.8-8.5,3.8c-4.7,0-8.3-1.5-11-4.6c-2.7-3.1-4-7.3-4-12.6V0h-9v32.7
							c0,5.3-0.9,9.2-2.8,11.7c-1.9,2.5-4.7,3.8-8.6,3.8c-4.6,0-8.2-1.6-11-4.7c-2.7-3.1-4-7.3-4-12.6V0h-9v54.7h9v-8.5
							c2.1,3.4,4.5,5.8,7.4,7.4c2.9,1.6,6.3,2.4,10.2,2.4c4,0,7.4-1,10.1-3C144,51,146.1,48,147.4,44.2z"/>
					</g>
					<g>
						<path id="DejaVuSans-69" d="M202.2,54.7h9V0h-9V54.7z M202.2,76h9V64.6h-9V76z"/>
					</g>
					<g>
						<path id="DejaVuSans-6e" d="M275.5,33V0h-9v32.7c0,5.2-1,9-3,11.6c-2,2.6-5,3.9-9.1,3.9c-4.9,0-8.7-1.5-11.5-4.6
							c-2.8-3.1-4.2-7.3-4.2-12.6V0h-9v54.7h9v-8.5c2.2,3.3,4.7,5.8,7.6,7.4c2.9,1.6,6.3,2.4,10.1,2.4c6.3,0,11-1.9,14.2-5.8
							C273.9,46.3,275.5,40.6,275.5,33z"/>
					</g>
				</g>
			</g>
			<g id="PathCollection_2">
				<g>
					<g>
						<path id="m49ef74b461" class="st89" d="M377.5,44.5c1.3,0,2.6-0.5,3.5-1.5c0.9-0.9,1.5-2.2,1.5-3.5s-0.5-2.6-1.5-3.5
							c-0.9-0.9-2.2-1.5-3.5-1.5s-2.6,0.5-3.5,1.5c-0.9,0.9-1.5,2.2-1.5,3.5S373,42,374,43C374.9,43.9,376.2,44.5,377.5,44.5z"/>
					</g>
				</g>
			</g>
			<g id="text_2">
				<g transform="translate(395.502371 42.076563)scale(0.1 -0.1)">
					<g>
						<path id="DejaVuSans-31" d="M12.4,8.3h16.1v55.6L11,60.4v9l17.4,3.5h9.9V8.3h16.1V0h-42V8.3z"/>
					</g>
					<g>
						<path id="DejaVuSans-35" d="M74.4,72.9h38.7v-8.3H83.5V46.7c1.4,0.5,2.9,0.9,4.3,1.1c1.4,0.2,2.9,0.4,4.3,0.4
							c8.1,0,14.6-2.2,19.3-6.7c4.8-4.5,7.1-10.5,7.1-18.1c0-7.8-2.4-13.9-7.3-18.3c-4.9-4.3-11.8-6.5-20.7-6.5
							c-3.1,0-6.2,0.3-9.4,0.8c-3.2,0.5-6.4,1.3-9.8,2.3v9.9c2.9-1.6,6-2.8,9.1-3.6s6.4-1.2,9.9-1.2c5.6,0,10.1,1.5,13.4,4.4
							c3.3,3,4.9,7,4.9,12.1c0,5.1-1.6,9.1-4.9,12c-3.3,3-7.7,4.5-13.4,4.5c-2.6,0-5.3-0.3-7.9-0.9c-2.6-0.6-5.3-1.5-8-2.7V72.9z"/>
					</g>
					<g>
						<path id="DejaVuSans-20_1_" d="M127.2,0"/>
					</g>
					<g>
						<path id="DejaVuSans-6d_1_" d="M211,44.2c2.2,4,4.9,7,8.1,8.9s6.8,2.9,11,2.9c5.7,0,10.1-2,13.2-6c3.1-4,4.6-9.6,4.6-17V0h-9
							v32.7c0,5.2-0.9,9.1-2.8,11.7c-1.9,2.5-4.7,3.8-8.5,3.8c-4.7,0-8.3-1.5-11-4.6c-2.7-3.1-4-7.3-4-12.6V0h-9v32.7
							c0,5.3-0.9,9.2-2.8,11.7c-1.9,2.5-4.7,3.8-8.6,3.8c-4.6,0-8.2-1.6-11-4.7c-2.7-3.1-4-7.3-4-12.6V0h-9v54.7h9v-8.5
							c2.1,3.4,4.5,5.8,7.4,7.4c2.9,1.6,6.3,2.4,10.2,2.4c4,0,7.4-1,10.1-3C207.6,51,209.7,48,211,44.2z"/>
					</g>
					<g>
						<path id="DejaVuSans-69_1_" d="M265.9,54.7h9V0h-9V54.7z M265.9,76h9V64.6h-9V76z"/>
					</g>
					<g>
						<path id="DejaVuSans-6e_1_" d="M339.1,33V0h-9v32.7c0,5.2-1,9-3,11.6c-2,2.6-5,3.9-9.1,3.9c-4.9,0-8.7-1.5-11.5-4.6
							c-2.8-3.1-4.2-7.3-4.2-12.6V0h-9v54.7h9v-8.5c2.2,3.3,4.7,5.8,7.6,7.4c2.9,1.6,6.3,2.4,10.1,2.4c6.3,0,11-1.9,14.2-5.8
							C337.5,46.3,339.1,40.6,339.1,33z"/>
					</g>
				</g>
			</g>
			<g id="PathCollection_3">
				<g>
					<g>
						<path id="me79d7a1b3c" class="st90" d="M377.5,59.1c1.3,0,2.6-0.5,3.5-1.5c0.9-0.9,1.5-2.2,1.5-3.5s-0.5-2.6-1.5-3.5
							c-0.9-0.9-2.2-1.5-3.5-1.5s-2.6,0.5-3.5,1.5c-0.9,0.9-1.5,2.2-1.5,3.5s0.5,2.6,1.5,3.5C374.9,58.6,376.2,59.1,377.5,59.1z"/>
					</g>
				</g>
			</g>
			<g id="text_3">
				<g transform="translate(395.502371 56.754688)scale(0.1 -0.1)">
					<g>
						<path id="DejaVuSans-33" d="M40.6,39.3c4.7-1,8.4-3.1,11-6.3c2.7-3.2,4-7.1,4-11.8c0-7.2-2.5-12.8-7.4-16.7
							c-4.9-3.9-12-5.9-21.1-5.9c-3.1,0-6.2,0.3-9.4,0.9S11.1,1,7.6,2.2v9.5c2.7-1.6,5.7-2.8,9-3.6c3.3-0.8,6.7-1.2,10.2-1.2
							c6.2,0,10.9,1.2,14.1,3.7s4.9,6,4.9,10.6c0,4.3-1.5,7.7-4.5,10.1c-3,2.4-7.2,3.6-12.6,3.6h-8.5V43h8.9c4.8,0,8.6,1,11.1,2.9
							s3.9,4.7,3.9,8.4c0,3.7-1.3,6.6-4,8.6c-2.6,2-6.4,3-11.4,3c-2.7,0-5.6-0.3-8.7-0.9c-3.1-0.6-6.5-1.5-10.2-2.7v8.8
							c3.8,1,7.3,1.8,10.5,2.3s6.4,0.8,9.2,0.8c7.5,0,13.4-1.7,17.8-5.1c4.4-3.4,6.5-8,6.5-13.8c0-4-1.2-7.5-3.5-10.2
							S44.8,40.4,40.6,39.3z"/>
					</g>
					<g>
						<path id="DejaVuSans-30_1_" d="M95.4,66.4c-5.1,0-8.9-2.5-11.5-7.5c-2.6-5-3.8-12.5-3.8-22.5c0-10,1.3-17.5,3.8-22.5
							c2.6-5,6.4-7.5,11.5-7.5c5.1,0,8.9,2.5,11.5,7.5c2.6,5,3.8,12.5,3.8,22.5c0,10-1.3,17.5-3.8,22.5
							C104.4,63.9,100.5,66.4,95.4,66.4z M95.4,74.2c8.2,0,14.4-3.2,18.7-9.7c4.3-6.5,6.5-15.8,6.5-28.1c0-12.3-2.2-21.6-6.5-28.1
							c-4.3-6.5-10.6-9.7-18.7-9.7c-8.2,0-14.4,3.2-18.7,9.7c-4.3,6.5-6.5,15.8-6.5,28.1c0,12.3,2.2,21.7,6.5,28.1
							C81,71,87.2,74.2,95.4,74.2z"/>
					</g>
					<g>
						<path id="DejaVuSans-20_2_" d="M127.2,0"/>
					</g>
					<g>
						<path id="DejaVuSans-6d_2_" d="M211,44.2c2.2,4,4.9,7,8.1,8.9s6.8,2.9,11,2.9c5.7,0,10.1-2,13.2-6c3.1-4,4.6-9.6,4.6-17V0h-9
							v32.7c0,5.2-0.9,9.1-2.8,11.7c-1.9,2.5-4.7,3.8-8.5,3.8c-4.7,0-8.3-1.5-11-4.6c-2.7-3.1-4-7.3-4-12.6V0h-9v32.7
							c0,5.3-0.9,9.2-2.8,11.7c-1.9,2.5-4.7,3.8-8.6,3.8c-4.6,0-8.2-1.6-11-4.7c-2.7-3.1-4-7.3-4-12.6V0h-9v54.7h9v-8.5
							c2.1,3.4,4.5,5.8,7.4,7.4c2.9,1.6,6.3,2.4,10.2,2.4c4,0,7.4-1,10.1-3C207.6,51,209.7,48,211,44.2z"/>
					</g>
					<g>
						<path id="DejaVuSans-69_2_" d="M265.9,54.7h9V0h-9V54.7z M265.9,76h9V64.6h-9V76z"/>
					</g>
					<g>
						<path id="DejaVuSans-6e_2_" d="M339.1,33V0h-9v32.7c0,5.2-1,9-3,11.6c-2,2.6-5,3.9-9.1,3.9c-4.9,0-8.7-1.5-11.5-4.6
							c-2.8-3.1-4.2-7.3-4.2-12.6V0h-9v54.7h9v-8.5c2.2,3.3,4.7,5.8,7.6,7.4c2.9,1.6,6.3,2.4,10.1,2.4c6.3,0,11-1.9,14.2-5.8
							C337.5,46.3,339.1,40.6,339.1,33z"/>
					</g>
				</g>
			</g>
			<g id="PathCollection_4">
				<g>
					<g>
						<path id="mde5c808b67" class="st91" d="M377.5,73.8c1.3,0,2.6-0.5,3.5-1.5c0.9-0.9,1.5-2.2,1.5-3.5s-0.5-2.6-1.5-3.5
							c-0.9-0.9-2.2-1.5-3.5-1.5s-2.6,0.5-3.5,1.5c-0.9,0.9-1.5,2.2-1.5,3.5s0.5,2.6,1.5,3.5C374.9,73.3,376.2,73.8,377.5,73.8z"/>
					</g>
				</g>
			</g>
			<g id="text_4">
				<g transform="translate(395.502371 71.432813)scale(0.1 -0.1)">
					<g>
						<path id="DejaVuSans-34" d="M37.8,64.3L12.9,25.4h24.9V64.3z M35.2,72.9h12.4V25.4H58v-8.2H47.6V0h-9.8v17.2H4.9v9.5
							L35.2,72.9z"/>
					</g>
					<g>
						<path id="DejaVuSans-35_1_" d="M74.4,72.9h38.7v-8.3H83.5V46.7c1.4,0.5,2.9,0.9,4.3,1.1c1.4,0.2,2.9,0.4,4.3,0.4
							c8.1,0,14.6-2.2,19.3-6.7c4.8-4.5,7.1-10.5,7.1-18.1c0-7.8-2.4-13.9-7.3-18.3c-4.9-4.3-11.8-6.5-20.7-6.5
							c-3.1,0-6.2,0.3-9.4,0.8c-3.2,0.5-6.4,1.3-9.8,2.3v9.9c2.9-1.6,6-2.8,9.1-3.6s6.4-1.2,9.9-1.2c5.6,0,10.1,1.5,13.4,4.4
							c3.3,3,4.9,7,4.9,12.1c0,5.1-1.6,9.1-4.9,12c-3.3,3-7.7,4.5-13.4,4.5c-2.6,0-5.3-0.3-7.9-0.9c-2.6-0.6-5.3-1.5-8-2.7V72.9z"/>
					</g>
					<g>
						<path id="DejaVuSans-20_3_" d="M127.2,0"/>
					</g>
					<g>
						<path id="DejaVuSans-6d_3_" d="M211,44.2c2.2,4,4.9,7,8.1,8.9s6.8,2.9,11,2.9c5.7,0,10.1-2,13.2-6c3.1-4,4.6-9.6,4.6-17V0h-9
							v32.7c0,5.2-0.9,9.1-2.8,11.7c-1.9,2.5-4.7,3.8-8.5,3.8c-4.7,0-8.3-1.5-11-4.6c-2.7-3.1-4-7.3-4-12.6V0h-9v32.7
							c0,5.3-0.9,9.2-2.8,11.7c-1.9,2.5-4.7,3.8-8.6,3.8c-4.6,0-8.2-1.6-11-4.7c-2.7-3.1-4-7.3-4-12.6V0h-9v54.7h9v-8.5
							c2.1,3.4,4.5,5.8,7.4,7.4c2.9,1.6,6.3,2.4,10.2,2.4c4,0,7.4-1,10.1-3C207.6,51,209.7,48,211,44.2z"/>
					</g>
					<g>
						<path id="DejaVuSans-69_3_" d="M265.9,54.7h9V0h-9V54.7z M265.9,76h9V64.6h-9V76z"/>
					</g>
					<g>
						<path id="DejaVuSans-6e_3_" d="M339.1,33V0h-9v32.7c0,5.2-1,9-3,11.6c-2,2.6-5,3.9-9.1,3.9c-4.9,0-8.7-1.5-11.5-4.6
							c-2.8-3.1-4.2-7.3-4.2-12.6V0h-9v54.7h9v-8.5c2.2,3.3,4.7,5.8,7.6,7.4c2.9,1.6,6.3,2.4,10.1,2.4c6.3,0,11-1.9,14.2-5.8
							C337.5,46.3,339.1,40.6,339.1,33z"/>
					</g>
				</g>
			</g>
		</g>
		<g id="PathCollection_5">
			<g>
				<defs>
					<rect id="SVGID_173_" x="21.5" y="10.8" width="417.7" height="324"/>
				</defs>
				<clipPath id="SVGID_174_">
					<use xlink:href="#SVGID_173_"  style="overflow:visible;"/>
				</clipPath>
				<g class="st92">
					<g>
						<path id="m44f98e7f17_1_" class="st88" d="M182.9,124.6c1.3,0,2.6-0.5,3.5-1.5c0.9-0.9,1.5-2.2,1.5-3.5s-0.5-2.6-1.5-3.5
							c-0.9-0.9-2.2-1.5-3.5-1.5s-2.6,0.5-3.5,1.5c-0.9,0.9-1.5,2.2-1.5,3.5s0.5,2.6,1.5,3.5C180.3,124.1,181.6,124.6,182.9,124.6z"
							/>
					</g>
					<g>
						<path id="m44f98e7f17_2_" class="st88" d="M168.3,304.8c1.3,0,2.6-0.5,3.5-1.5c0.9-0.9,1.5-2.2,1.5-3.5c0-1.3-0.5-2.6-1.5-3.5
							c-0.9-0.9-2.2-1.5-3.5-1.5s-2.6,0.5-3.5,1.5c-0.9,0.9-1.5,2.2-1.5,3.5c0,1.3,0.5,2.6,1.5,3.5
							C165.7,304.2,167,304.8,168.3,304.8z"/>
					</g>
					<g>
						<path id="m44f98e7f17_3_" class="st88" d="M187,305.9c1.3,0,2.6-0.5,3.5-1.5c0.9-0.9,1.5-2.2,1.5-3.5c0-1.3-0.5-2.6-1.5-3.5
							c-0.9-0.9-2.2-1.5-3.5-1.5s-2.6,0.5-3.5,1.5c-0.9,0.9-1.5,2.2-1.5,3.5c0,1.3,0.5,2.6,1.5,3.5
							C184.4,305.3,185.7,305.9,187,305.9z"/>
					</g>
					<g>
						<path id="m44f98e7f17_4_" class="st88" d="M190.6,297.6c1.3,0,2.6-0.5,3.5-1.5c0.9-0.9,1.5-2.2,1.5-3.5c0-1.3-0.5-2.6-1.5-3.5
							c-0.9-0.9-2.2-1.5-3.5-1.5s-2.6,0.5-3.5,1.5c-0.9,0.9-1.5,2.2-1.5,3.5c0,1.3,0.5,2.6,1.5,3.5
							C188,297.1,189.2,297.6,190.6,297.6z"/>
					</g>
					<g>
						<path id="m44f98e7f17_5_" class="st88" d="M186.1,135.6c1.3,0,2.6-0.5,3.5-1.5s1.5-2.2,1.5-3.5s-0.5-2.6-1.5-3.5
							c-0.9-0.9-2.2-1.5-3.5-1.5s-2.6,0.5-3.5,1.5c-0.9,0.9-1.5,2.2-1.5,3.5s0.5,2.6,1.5,3.5S184.8,135.6,186.1,135.6z"/>
					</g>
					<g>
						<path id="m44f98e7f17_6_" class="st88" d="M213.3,107.1c1.3,0,2.6-0.5,3.5-1.5c0.9-0.9,1.5-2.2,1.5-3.5s-0.5-2.6-1.5-3.5
							c-0.9-0.9-2.2-1.5-3.5-1.5s-2.6,0.5-3.5,1.5c-0.9,0.9-1.5,2.2-1.5,3.5s0.5,2.6,1.5,3.5C210.7,106.5,212,107.1,213.3,107.1z"/>
					</g>
					<g>
						<path id="m44f98e7f17_7_" class="st88" d="M302.4,122.9c1.3,0,2.6-0.5,3.5-1.5c0.9-0.9,1.5-2.2,1.5-3.5s-0.5-2.6-1.5-3.5
							c-0.9-0.9-2.2-1.5-3.5-1.5s-2.6,0.5-3.5,1.5c-0.9,0.9-1.5,2.2-1.5,3.5s0.5,2.6,1.5,3.5C299.9,122.3,301.1,122.9,302.4,122.9z"
							/>
					</g>
					<g>
						<path id="m44f98e7f17_8_" class="st88" d="M292.8,254.2c1.3,0,2.6-0.5,3.5-1.5c0.9-0.9,1.5-2.2,1.5-3.5s-0.5-2.6-1.5-3.5
							c-0.9-0.9-2.2-1.5-3.5-1.5s-2.6,0.5-3.5,1.5c-0.9,0.9-1.5,2.2-1.5,3.5s0.5,2.6,1.5,3.5C290.2,253.7,291.5,254.2,292.8,254.2z"
							/>
					</g>
					<g>
						<path id="m44f98e7f17_9_" class="st88" d="M286.3,234.2c1.3,0,2.6-0.5,3.5-1.5c0.9-0.9,1.5-2.2,1.5-3.5s-0.5-2.6-1.5-3.5
							c-0.9-0.9-2.2-1.5-3.5-1.5s-2.6,0.5-3.5,1.5c-0.9,0.9-1.5,2.2-1.5,3.5s0.5,2.6,1.5,3.5C283.7,233.7,285,234.2,286.3,234.2z"/>
					</g>
					<g>
						<path id="m44f98e7f17_10_" class="st88" d="M335.2,178c1.3,0,2.6-0.5,3.5-1.5c0.9-0.9,1.5-2.2,1.5-3.5s-0.5-2.6-1.5-3.5
							c-0.9-0.9-2.2-1.5-3.5-1.5s-2.6,0.5-3.5,1.5c-0.9,0.9-1.5,2.2-1.5,3.5s0.5,2.6,1.5,3.5C332.6,177.5,333.9,178,335.2,178z"/>
					</g>
					<g>
						<path id="m44f98e7f17_11_" class="st88" d="M344.9,182c1.3,0,2.6-0.5,3.5-1.5c0.9-0.9,1.5-2.2,1.5-3.5s-0.5-2.6-1.5-3.5
							c-0.9-0.9-2.2-1.5-3.5-1.5s-2.6,0.5-3.5,1.5c-0.9,0.9-1.5,2.2-1.5,3.5s0.5,2.6,1.5,3.5C342.3,181.5,343.6,182,344.9,182z"/>
					</g>
					<g>
						<path id="m44f98e7f17_12_" class="st88" d="M310.7,110.5c1.3,0,2.6-0.5,3.5-1.5c0.9-0.9,1.5-2.2,1.5-3.5s-0.5-2.6-1.5-3.5
							c-0.9-0.9-2.2-1.5-3.5-1.5s-2.6,0.5-3.5,1.5c-0.9,0.9-1.5,2.2-1.5,3.5s0.5,2.6,1.5,3.5C308.1,110,309.3,110.5,310.7,110.5z"/>
					</g>
					<g>
						<path id="m44f98e7f17_13_" class="st88" d="M313.6,96.9c1.3,0,2.6-0.5,3.5-1.5c0.9-0.9,1.5-2.2,1.5-3.5s-0.5-2.6-1.5-3.5
							c-0.9-0.9-2.2-1.5-3.5-1.5s-2.6,0.5-3.5,1.5c-0.9,0.9-1.5,2.2-1.5,3.5s0.5,2.6,1.5,3.5C311,96.4,312.2,96.9,313.6,96.9z"/>
					</g>
					<g>
						<path id="m44f98e7f17_14_" class="st88" d="M320.2,122.2c1.3,0,2.6-0.5,3.5-1.5c0.9-0.9,1.5-2.2,1.5-3.5s-0.5-2.6-1.5-3.5
							c-0.9-0.9-2.2-1.5-3.5-1.5s-2.6,0.5-3.5,1.5c-0.9,0.9-1.5,2.2-1.5,3.5s0.5,2.6,1.5,3.5C317.6,121.7,318.9,122.2,320.2,122.2z"
							/>
					</g>
					<g>
						<path id="m44f98e7f17_15_" class="st88" d="M336.8,132.5c1.3,0,2.6-0.5,3.5-1.5c0.9-0.9,1.5-2.2,1.5-3.5s-0.5-2.6-1.5-3.5
							c-0.9-0.9-2.2-1.5-3.5-1.5s-2.6,0.5-3.5,1.5c-0.9,0.9-1.5,2.2-1.5,3.5s0.5,2.6,1.5,3.5C334.2,131.9,335.5,132.5,336.8,132.5z"
							/>
					</g>
					<g>
						<path id="m44f98e7f17_16_" class="st88" d="M356.8,127.3c1.3,0,2.6-0.5,3.5-1.5c0.9-0.9,1.5-2.2,1.5-3.5s-0.5-2.6-1.5-3.5
							c-0.9-0.9-2.2-1.5-3.5-1.5s-2.6,0.5-3.5,1.5c-0.9,0.9-1.5,2.2-1.5,3.5s0.5,2.6,1.5,3.5C354.2,126.8,355.5,127.3,356.8,127.3z"
							/>
					</g>
					<g>
						<path id="m44f98e7f17_17_" class="st88" d="M349.7,152.9c1.3,0,2.6-0.5,3.5-1.5c0.9-0.9,1.5-2.2,1.5-3.5s-0.5-2.6-1.5-3.5
							c-0.9-0.9-2.2-1.5-3.5-1.5s-2.6,0.5-3.5,1.5c-0.9,0.9-1.5,2.2-1.5,3.5s0.5,2.6,1.5,3.5C347.1,152.4,348.4,152.9,349.7,152.9z"
							/>
					</g>
					<g>
						<path id="m44f98e7f17_18_" class="st88" d="M358.8,137.5c1.3,0,2.6-0.5,3.5-1.5c0.9-0.9,1.5-2.2,1.5-3.5s-0.5-2.6-1.5-3.5
							c-0.9-0.9-2.2-1.5-3.5-1.5s-2.6,0.5-3.5,1.5c-0.9,0.9-1.5,2.2-1.5,3.5s0.5,2.6,1.5,3.5C356.2,137,357.5,137.5,358.8,137.5z"/>
					</g>
					<g>
						<path id="m44f98e7f17_19_" class="st88" d="M373.3,91.1c1.3,0,2.6-0.5,3.5-1.5c0.9-0.9,1.5-2.2,1.5-3.5s-0.5-2.6-1.5-3.5
							c-0.9-0.9-2.2-1.5-3.5-1.5s-2.6,0.5-3.5,1.5c-0.9,0.9-1.5,2.2-1.5,3.5s0.5,2.6,1.5,3.5C370.7,90.5,372,91.1,373.3,91.1z"/>
					</g>
					<g>
						<path id="m44f98e7f17_20_" class="st88" d="M396.1,136.9c1.3,0,2.6-0.5,3.5-1.5c0.9-0.9,1.5-2.2,1.5-3.5s-0.5-2.6-1.5-3.5
							c-0.9-0.9-2.2-1.5-3.5-1.5s-2.6,0.5-3.5,1.5c-0.9,0.9-1.5,2.2-1.5,3.5s0.5,2.6,1.5,3.5C393.5,136.4,394.8,136.9,396.1,136.9z"
							/>
					</g>
				</g>
			</g>
		</g>
		<g id="PathCollection_6">
		</g>
		<g id="PathCollection_7">
			<g>
				<defs>
					<rect id="SVGID_175_" x="21.5" y="10.8" width="417.7" height="324"/>
				</defs>
				<clipPath id="SVGID_176_">
					<use xlink:href="#SVGID_175_"  style="overflow:visible;"/>
				</clipPath>
				<g class="st93">
					<g>
						<path id="me79d7a1b3c_1_" class="st90" d="M138.6,209.3c1.3,0,2.6-0.5,3.5-1.5s1.5-2.2,1.5-3.5s-0.5-2.6-1.5-3.5
							s-2.2-1.5-3.5-1.5s-2.6,0.5-3.5,1.5s-1.5,2.2-1.5,3.5s0.5,2.6,1.5,3.5S137.2,209.3,138.6,209.3z"/>
					</g>
					<g>
						<path id="me79d7a1b3c_2_" class="st90" d="M147.8,276.8c1.3,0,2.6-0.5,3.5-1.5c0.9-0.9,1.5-2.2,1.5-3.5c0-1.3-0.5-2.6-1.5-3.5
							c-0.9-0.9-2.2-1.5-3.5-1.5s-2.6,0.5-3.5,1.5c-0.9,0.9-1.5,2.2-1.5,3.5c0,1.3,0.5,2.6,1.5,3.5
							C145.2,276.3,146.5,276.8,147.8,276.8z"/>
					</g>
					<g>
						<path id="me79d7a1b3c_3_" class="st90" d="M261.3,215.9c1.3,0,2.6-0.5,3.5-1.5c0.9-0.9,1.5-2.2,1.5-3.5s-0.5-2.6-1.5-3.5
							c-0.9-0.9-2.2-1.5-3.5-1.5s-2.6,0.5-3.5,1.5c-0.9,0.9-1.5,2.2-1.5,3.5s0.5,2.6,1.5,3.5C258.7,215.4,260,215.9,261.3,215.9z"/>
					</g>
				</g>
			</g>
		</g>
		<g id="PathCollection_8">
			<g>
				<defs>
					<rect id="SVGID_177_" x="21.5" y="10.8" width="417.7" height="324"/>
				</defs>
				<clipPath id="SVGID_178_">
					<use xlink:href="#SVGID_177_"  style="overflow:visible;"/>
				</clipPath>
				<g class="st94">
					<g>
						<path id="mde5c808b67_1_" class="st91" d="M123.5,200.7c1.3,0,2.6-0.5,3.5-1.5c0.9-0.9,1.5-2.2,1.5-3.5s-0.5-2.6-1.5-3.5
							c-0.9-0.9-2.2-1.5-3.5-1.5s-2.6,0.5-3.5,1.5c-0.9,0.9-1.5,2.2-1.5,3.5s0.5,2.6,1.5,3.5C120.9,200.2,122.2,200.7,123.5,200.7z"
							/>
					</g>
					<g>
						<path id="mde5c808b67_2_" class="st91" d="M142.8,159.8c1.3,0,2.6-0.5,3.5-1.5s1.5-2.2,1.5-3.5s-0.5-2.6-1.5-3.5
							s-2.2-1.5-3.5-1.5s-2.6,0.5-3.5,1.5s-1.5,2.2-1.5,3.5s0.5,2.6,1.5,3.5S141.5,159.8,142.8,159.8z"/>
					</g>
					<g>
						<path id="mde5c808b67_3_" class="st91" d="M182.1,142.1c1.3,0,2.6-0.5,3.5-1.5s1.5-2.2,1.5-3.5s-0.5-2.6-1.5-3.5
							s-2.2-1.5-3.5-1.5s-2.6,0.5-3.5,1.5s-1.5,2.2-1.5,3.5s0.5,2.6,1.5,3.5S180.8,142.1,182.1,142.1z"/>
					</g>
					<g>
						<path id="mde5c808b67_4_" class="st91" d="M197.7,165.7c1.3,0,2.6-0.5,3.5-1.5s1.5-2.2,1.5-3.5s-0.5-2.6-1.5-3.5
							s-2.2-1.5-3.5-1.5s-2.6,0.5-3.5,1.5s-1.5,2.2-1.5,3.5s0.5,2.6,1.5,3.5S196.4,165.7,197.7,165.7z"/>
					</g>
				</g>
			</g>
		</g>
	</g>
</g>
<text transform="matrix(1 0 0 1 23.1174 36.0499)" class="st95 st96">Maximum waiting times</text>
</svg>
