<?xml version="1.0" encoding="utf-8" standalone="no"?>
<!DOCTYPE svg PUBLIC "-//W3C//DTD SVG 1.1//EN"
  "http://www.w3.org/Graphics/SVG/1.1/DTD/svg11.dtd">
<svg height="327.8595pt" version="1.1" viewBox="0 0 733.5425 327.8595" width="733.5425pt" xmlns="http://www.w3.org/2000/svg" xmlns:xlink="http://www.w3.org/1999/xlink">
 <metadata>
  <rdf:RDF xmlns:cc="http://creativecommons.org/ns#" xmlns:dc="http://purl.org/dc/elements/1.1/" xmlns:rdf="http://www.w3.org/1999/02/22-rdf-syntax-ns#">
   <cc:Work>
    <dc:type rdf:resource="http://purl.org/dc/dcmitype/StillImage"/>
    <dc:date>2022-07-22T19:29:27.033038</dc:date>
    <dc:format>image/svg+xml</dc:format>
    <dc:creator>
     <cc:Agent>
      <dc:title>Matplotlib v3.4.3, https://matplotlib.org/</dc:title>
     </cc:Agent>
    </dc:creator>
   </cc:Work>
  </rdf:RDF>
 </metadata>
 <defs>
  <style type="text/css">*{stroke-linecap:butt;stroke-linejoin:round;}</style>
 </defs>
 <g id="figure_1">
  <g id="patch_1">
   <path d="M 0 327.8595 
L 733.5425 327.8595 
L 733.5425 0 
L 0 0 
z
" style="fill:#ffffff;"/>
  </g>
  <g id="axes_1">
   <g id="patch_2">
    <path d="M 56.7425 244.75425 
L 361.106136 244.75425 
L 361.106136 22.99425 
L 56.7425 22.99425 
z
" style="fill:#ffffff;"/>
   </g>
   <g id="matplotlib.axis_1">
    <g id="xtick_1">
     <g id="line2d_1">
      <path clip-path="url(#p42427bf98b)" d="M 87.178864 244.75425 
L 87.178864 22.99425 
" style="fill:none;stroke:#b0b0b0;stroke-linecap:square;stroke-width:0.8;"/>
     </g>
     <g id="line2d_2">
      <defs>
       <path d="M 0 0 
L 0 3.5 
" id="mb904552869" style="stroke:#000000;stroke-width:0.8;"/>
      </defs>
      <g>
       <use style="stroke:#000000;stroke-width:0.8;" x="87.178864" xlink:href="#mb904552869" y="244.75425"/>
      </g>
     </g>
     <g id="text_1">
      <!-- 05:00 -->
      <g transform="translate(71.605114 259.753)scale(0.12 -0.12)">
       <defs>
        <path d="M 1881 -84 
Q 1144 -84 703 555 
Q 263 1194 263 2141 
Q 263 3072 681 3712 
Q 1100 4353 1866 4353 
Q 2666 4353 3080 3684 
Q 3494 3016 3494 2116 
Q 3494 1234 3069 575 
Q 2644 -84 1881 -84 
z
M 1884 334 
Q 2425 334 2684 823 
Q 2944 1313 2944 2053 
Q 2944 2863 2678 3400 
Q 2413 3938 1859 3938 
Q 1325 3938 1064 3447 
Q 803 2956 803 2156 
Q 803 1325 1078 829 
Q 1353 334 1884 334 
z
" id="FranklinGothic-Book-30" transform="scale(0.015625)"/>
        <path d="M 3128 4266 
L 3084 3806 
L 988 3806 
L 897 2422 
Q 1372 2888 1941 2888 
Q 2541 2888 2977 2472 
Q 3413 2056 3413 1409 
Q 3413 753 2939 334 
Q 2466 -84 1781 -84 
Q 1244 -84 825 197 
Q 406 478 275 925 
L 731 1081 
Q 1013 338 1788 338 
Q 2297 338 2597 639 
Q 2897 941 2897 1409 
Q 2897 1900 2600 2175 
Q 2303 2450 1888 2450 
Q 1281 2450 884 1869 
L 463 1959 
L 600 4266 
L 3128 4266 
z
" id="FranklinGothic-Book-35" transform="scale(0.015625)"/>
        <path d="M 1150 3156 
L 1150 2456 
L 453 2456 
L 453 3156 
L 1150 3156 
z
M 1150 703 
L 1150 0 
L 453 0 
L 453 703 
L 1150 703 
z
" id="FranklinGothic-Book-3a" transform="scale(0.015625)"/>
       </defs>
       <use xlink:href="#FranklinGothic-Book-30"/>
       <use x="58.642578" xlink:href="#FranklinGothic-Book-35"/>
       <use x="117.285156" xlink:href="#FranklinGothic-Book-3a"/>
       <use x="142.285156" xlink:href="#FranklinGothic-Book-30"/>
       <use x="200.927734" xlink:href="#FranklinGothic-Book-30"/>
      </g>
     </g>
    </g>
    <g id="xtick_2">
     <g id="line2d_3">
      <path clip-path="url(#p42427bf98b)" d="M 148.051591 244.75425 
L 148.051591 22.99425 
" style="fill:none;stroke:#b0b0b0;stroke-linecap:square;stroke-width:0.8;"/>
     </g>
     <g id="line2d_4">
      <g>
       <use style="stroke:#000000;stroke-width:0.8;" x="148.051591" xlink:href="#mb904552869" y="244.75425"/>
      </g>
     </g>
     <g id="text_2">
      <!-- 10:00 -->
      <g transform="translate(132.672841 259.753)scale(0.12 -0.12)">
       <defs>
        <path d="M 3575 397 
L 3575 0 
L 588 0 
L 588 397 
L 1869 397 
L 1869 3691 
Q 1303 3100 694 2769 
L 694 3306 
Q 1534 3747 1997 4353 
L 2378 4353 
L 2378 397 
L 3575 397 
z
" id="FranklinGothic-Book-31" transform="scale(0.015625)"/>
       </defs>
       <use xlink:href="#FranklinGothic-Book-31"/>
       <use x="55.392578" xlink:href="#FranklinGothic-Book-30"/>
       <use x="114.035156" xlink:href="#FranklinGothic-Book-3a"/>
       <use x="139.035156" xlink:href="#FranklinGothic-Book-30"/>
       <use x="197.677734" xlink:href="#FranklinGothic-Book-30"/>
      </g>
     </g>
    </g>
    <g id="xtick_3">
     <g id="line2d_5">
      <path clip-path="url(#p42427bf98b)" d="M 208.924318 244.75425 
L 208.924318 22.99425 
" style="fill:none;stroke:#b0b0b0;stroke-linecap:square;stroke-width:0.8;"/>
     </g>
     <g id="line2d_6">
      <g>
       <use style="stroke:#000000;stroke-width:0.8;" x="208.924318" xlink:href="#mb904552869" y="244.75425"/>
      </g>
     </g>
     <g id="text_3">
      <!-- 15:00 -->
      <g transform="translate(193.433068 259.753)scale(0.12 -0.12)">
       <use xlink:href="#FranklinGothic-Book-31"/>
       <use x="57.267578" xlink:href="#FranklinGothic-Book-35"/>
       <use x="115.910156" xlink:href="#FranklinGothic-Book-3a"/>
       <use x="140.910156" xlink:href="#FranklinGothic-Book-30"/>
       <use x="199.552734" xlink:href="#FranklinGothic-Book-30"/>
      </g>
     </g>
    </g>
    <g id="xtick_4">
     <g id="line2d_7">
      <path clip-path="url(#p42427bf98b)" d="M 269.797045 244.75425 
L 269.797045 22.99425 
" style="fill:none;stroke:#b0b0b0;stroke-linecap:square;stroke-width:0.8;"/>
     </g>
     <g id="line2d_8">
      <g>
       <use style="stroke:#000000;stroke-width:0.8;" x="269.797045" xlink:href="#mb904552869" y="244.75425"/>
      </g>
     </g>
     <g id="text_4">
      <!-- 20:00 -->
      <g transform="translate(254.223295 259.753)scale(0.12 -0.12)">
       <defs>
        <path d="M 3359 444 
L 3359 0 
L 331 0 
L 331 444 
Q 2125 1788 2470 2214 
Q 2816 2641 2816 3059 
Q 2816 3450 2525 3690 
Q 2234 3931 1856 3931 
Q 1466 3931 1166 3667 
Q 866 3403 828 2950 
L 331 3100 
Q 644 4353 1863 4353 
Q 2522 4353 2934 3978 
Q 3347 3603 3347 3063 
Q 3347 2691 3151 2347 
Q 2956 2003 2412 1525 
Q 1869 1047 1006 444 
L 3359 444 
z
" id="FranklinGothic-Book-32" transform="scale(0.015625)"/>
       </defs>
       <use xlink:href="#FranklinGothic-Book-32"/>
       <use x="58.642578" xlink:href="#FranklinGothic-Book-30"/>
       <use x="117.285156" xlink:href="#FranklinGothic-Book-3a"/>
       <use x="142.285156" xlink:href="#FranklinGothic-Book-30"/>
       <use x="200.927734" xlink:href="#FranklinGothic-Book-30"/>
      </g>
     </g>
    </g>
    <g id="xtick_5">
     <g id="line2d_9">
      <path clip-path="url(#p42427bf98b)" d="M 330.669773 244.75425 
L 330.669773 22.99425 
" style="fill:none;stroke:#b0b0b0;stroke-linecap:square;stroke-width:0.8;"/>
     </g>
     <g id="line2d_10">
      <g>
       <use style="stroke:#000000;stroke-width:0.8;" x="330.669773" xlink:href="#mb904552869" y="244.75425"/>
      </g>
     </g>
     <g id="text_5">
      <!-- 01:00 -->
      <g transform="translate(315.321023 259.753)scale(0.12 -0.12)">
       <use xlink:href="#FranklinGothic-Book-30"/>
       <use x="54.892578" xlink:href="#FranklinGothic-Book-31"/>
       <use x="113.535156" xlink:href="#FranklinGothic-Book-3a"/>
       <use x="138.535156" xlink:href="#FranklinGothic-Book-30"/>
       <use x="197.177734" xlink:href="#FranklinGothic-Book-30"/>
      </g>
     </g>
    </g>
    <g id="text_6">
     <!-- Hour of the day -->
     <g transform="translate(170.340568 273.913625)scale(0.12 -0.12)">
      <defs>
       <path d="M 3581 0 
L 3047 0 
L 3047 2031 
L 1069 2031 
L 1069 0 
L 534 0 
L 534 4266 
L 1069 4266 
L 1069 2500 
L 3047 2500 
L 3047 4266 
L 3581 4266 
L 3581 0 
z
" id="FranklinGothic-Book-48" transform="scale(0.015625)"/>
       <path d="M 1622 -84 
Q 972 -84 608 397 
Q 244 878 244 1591 
Q 244 2344 653 2794 
Q 1063 3244 1672 3244 
Q 2325 3244 2701 2770 
Q 3078 2297 3078 1588 
Q 3078 850 2672 383 
Q 2266 -84 1622 -84 
z
M 1659 319 
Q 2034 319 2287 628 
Q 2541 938 2541 1591 
Q 2541 2247 2275 2542 
Q 2009 2838 1653 2838 
Q 1288 2838 1034 2539 
Q 781 2241 781 1594 
Q 781 909 1034 614 
Q 1288 319 1659 319 
z
" id="FranklinGothic-Book-6f" transform="scale(0.015625)"/>
       <path d="M 2975 0 
L 2534 0 
L 2534 603 
Q 2197 -84 1528 -84 
Q 1044 -84 767 234 
Q 491 553 491 1141 
L 491 3156 
L 981 3156 
L 981 1141 
Q 981 672 1176 495 
Q 1372 319 1606 319 
Q 1844 319 2036 453 
Q 2228 588 2356 836 
Q 2484 1084 2484 1378 
L 2484 3156 
L 2975 3156 
L 2975 0 
z
" id="FranklinGothic-Book-75" transform="scale(0.015625)"/>
       <path d="M 981 0 
L 491 0 
L 491 3156 
L 922 3156 
L 922 2419 
Q 1150 2941 1379 3095 
Q 1609 3250 1850 3250 
Q 1925 3250 2044 3238 
L 2044 2769 
L 1944 2769 
Q 1538 2769 1269 2466 
Q 1000 2163 981 1669 
L 981 0 
z
" id="FranklinGothic-Book-72" transform="scale(0.015625)"/>
       <path id="FranklinGothic-Book-20" transform="scale(0.015625)"/>
       <path d="M 1800 3156 
L 1800 2772 
L 1050 2772 
L 1050 0 
L 559 0 
L 559 2772 
L 22 2772 
L 22 3156 
L 559 3156 
Q 572 3916 851 4134 
Q 1131 4353 1534 4353 
Q 1731 4353 1984 4309 
L 1984 3919 
Q 1825 3959 1681 3959 
Q 1359 3959 1204 3817 
Q 1050 3675 1050 3284 
L 1050 3156 
L 1800 3156 
z
" id="FranklinGothic-Book-66" transform="scale(0.015625)"/>
       <path d="M 1922 338 
L 1922 -50 
Q 1663 -84 1472 -84 
Q 556 -84 556 872 
L 556 2772 
L -3 2772 
L -3 3156 
L 556 3156 
L 578 3950 
L 1034 3994 
L 1034 3156 
L 1741 3156 
L 1741 2772 
L 1034 2772 
L 1034 791 
Q 1034 303 1541 303 
Q 1709 303 1922 338 
z
" id="FranklinGothic-Book-74" transform="scale(0.015625)"/>
       <path d="M 2966 0 
L 2475 0 
L 2475 1916 
Q 2475 2253 2433 2422 
Q 2391 2591 2233 2714 
Q 2075 2838 1869 2838 
Q 1491 2838 1236 2528 
Q 981 2219 981 1700 
L 981 0 
L 491 0 
L 491 4266 
L 981 4266 
L 981 2575 
Q 1316 3244 1938 3244 
Q 2216 3244 2433 3134 
Q 2650 3025 2765 2847 
Q 2881 2669 2923 2495 
Q 2966 2322 2966 1916 
L 2966 0 
z
" id="FranklinGothic-Book-68" transform="scale(0.015625)"/>
       <path d="M 2575 941 
L 3031 847 
Q 2906 444 2543 180 
Q 2181 -84 1691 -84 
Q 1044 -84 644 370 
Q 244 825 244 1563 
Q 244 2316 659 2780 
Q 1075 3244 1703 3244 
Q 2322 3244 2698 2816 
Q 3075 2388 3084 1534 
L 791 1534 
Q 791 819 1091 569 
Q 1391 319 1725 319 
Q 2328 319 2575 941 
z
M 2547 1900 
Q 2541 2166 2459 2372 
Q 2378 2578 2184 2723 
Q 1991 2869 1719 2869 
Q 1353 2869 1098 2606 
Q 844 2344 813 1900 
L 2547 1900 
z
" id="FranklinGothic-Book-65" transform="scale(0.015625)"/>
       <path d="M 2956 4266 
L 2956 0 
L 2509 0 
L 2509 541 
Q 2178 -84 1513 -84 
Q 959 -84 603 380 
Q 247 844 247 1553 
Q 247 2278 600 2761 
Q 953 3244 1538 3244 
Q 2106 3244 2466 2725 
L 2466 4266 
L 2956 4266 
z
M 2466 1938 
Q 2466 2353 2212 2603 
Q 1959 2853 1622 2853 
Q 1256 2853 1020 2528 
Q 784 2203 784 1616 
Q 784 981 1001 650 
Q 1219 319 1597 319 
Q 1941 319 2203 606 
Q 2466 894 2466 1281 
L 2466 1938 
z
" id="FranklinGothic-Book-64" transform="scale(0.015625)"/>
       <path d="M 2963 0 
L 2475 0 
Q 2447 150 2419 569 
Q 2094 -84 1313 -84 
Q 781 -84 497 197 
Q 213 478 213 872 
Q 213 1350 619 1658 
Q 1025 1966 2000 1966 
Q 2131 1966 2419 1953 
Q 2419 2328 2361 2495 
Q 2303 2663 2115 2763 
Q 1928 2863 1622 2863 
Q 875 2863 753 2294 
L 300 2372 
Q 466 3244 1694 3244 
Q 2347 3244 2620 2955 
Q 2894 2666 2894 1953 
L 2894 613 
Q 2894 278 2963 0 
z
M 2419 1578 
Q 2119 1597 1963 1597 
Q 1381 1597 1059 1406 
Q 738 1216 738 850 
Q 738 619 911 456 
Q 1084 294 1413 294 
Q 1856 294 2142 616 
Q 2428 938 2428 1372 
Q 2428 1459 2419 1578 
z
" id="FranklinGothic-Book-61" transform="scale(0.015625)"/>
       <path d="M 2656 3156 
L 1391 -369 
Q 1116 -1131 513 -1131 
Q 322 -1131 91 -1066 
L 91 -681 
Q 281 -725 419 -725 
Q 653 -725 811 -590 
Q 969 -456 1125 59 
L 34 3156 
L 534 3156 
L 1378 784 
L 2244 3156 
L 2656 3156 
z
" id="FranklinGothic-Book-79" transform="scale(0.015625)"/>
      </defs>
      <use xlink:href="#FranklinGothic-Book-48"/>
      <use x="64.257812" xlink:href="#FranklinGothic-Book-6f"/>
      <use x="116.210938" xlink:href="#FranklinGothic-Book-75"/>
      <use x="170.361328" xlink:href="#FranklinGothic-Book-72"/>
      <use x="203.320312" xlink:href="#FranklinGothic-Book-20"/>
      <use x="228.320312" xlink:href="#FranklinGothic-Book-6f"/>
      <use x="280.273438" xlink:href="#FranklinGothic-Book-66"/>
      <use x="310.253906" xlink:href="#FranklinGothic-Book-20"/>
      <use x="335.253906" xlink:href="#FranklinGothic-Book-74"/>
      <use x="366.015625" xlink:href="#FranklinGothic-Book-68"/>
      <use x="420.019531" xlink:href="#FranklinGothic-Book-65"/>
      <use x="472.070312" xlink:href="#FranklinGothic-Book-20"/>
      <use x="497.070312" xlink:href="#FranklinGothic-Book-64"/>
      <use x="550.927734" xlink:href="#FranklinGothic-Book-61"/>
      <use x="601.558594" xlink:href="#FranklinGothic-Book-79"/>
     </g>
    </g>
   </g>
   <g id="matplotlib.axis_2">
    <g id="ytick_1">
     <g id="line2d_11">
      <path clip-path="url(#p42427bf98b)" d="M 56.7425 234.67425 
L 361.106136 234.67425 
" style="fill:none;stroke:#b0b0b0;stroke-linecap:square;stroke-width:0.8;"/>
     </g>
     <g id="line2d_12">
      <defs>
       <path d="M 0 0 
L -3.5 0 
" id="m6d4d09c3c0" style="stroke:#000000;stroke-width:0.8;"/>
      </defs>
      <g>
       <use style="stroke:#000000;stroke-width:0.8;" x="56.7425" xlink:href="#m6d4d09c3c0" y="234.67425"/>
      </g>
     </g>
     <g id="text_7">
      <!-- 0 -->
      <g transform="translate(42.705625 238.673625)scale(0.12 -0.12)">
       <use xlink:href="#FranklinGothic-Book-30"/>
      </g>
     </g>
    </g>
    <g id="ytick_2">
     <g id="line2d_13">
      <path clip-path="url(#p42427bf98b)" d="M 56.7425 186.67425 
L 361.106136 186.67425 
" style="fill:none;stroke:#b0b0b0;stroke-linecap:square;stroke-width:0.8;"/>
     </g>
     <g id="line2d_14">
      <g>
       <use style="stroke:#000000;stroke-width:0.8;" x="56.7425" xlink:href="#m6d4d09c3c0" y="186.67425"/>
      </g>
     </g>
     <g id="text_8">
      <!-- 500 -->
      <g transform="translate(28.631875 190.673625)scale(0.12 -0.12)">
       <use xlink:href="#FranklinGothic-Book-35"/>
       <use x="58.642578" xlink:href="#FranklinGothic-Book-30"/>
       <use x="117.285156" xlink:href="#FranklinGothic-Book-30"/>
      </g>
     </g>
    </g>
    <g id="ytick_3">
     <g id="line2d_15">
      <path clip-path="url(#p42427bf98b)" d="M 56.7425 138.67425 
L 361.106136 138.67425 
" style="fill:none;stroke:#b0b0b0;stroke-linecap:square;stroke-width:0.8;"/>
     </g>
     <g id="line2d_16">
      <g>
       <use style="stroke:#000000;stroke-width:0.8;" x="56.7425" xlink:href="#m6d4d09c3c0" y="138.67425"/>
      </g>
     </g>
     <g id="text_9">
      <!-- 1000 -->
      <g transform="translate(21.985 142.673625)scale(0.12 -0.12)">
       <use xlink:href="#FranklinGothic-Book-31"/>
       <use x="55.392578" xlink:href="#FranklinGothic-Book-30"/>
       <use x="114.035156" xlink:href="#FranklinGothic-Book-30"/>
       <use x="172.677734" xlink:href="#FranklinGothic-Book-30"/>
      </g>
     </g>
    </g>
    <g id="ytick_4">
     <g id="line2d_17">
      <path clip-path="url(#p42427bf98b)" d="M 56.7425 90.67425 
L 361.106136 90.67425 
" style="fill:none;stroke:#b0b0b0;stroke-linecap:square;stroke-width:0.8;"/>
     </g>
     <g id="line2d_18">
      <g>
       <use style="stroke:#000000;stroke-width:0.8;" x="56.7425" xlink:href="#m6d4d09c3c0" y="90.67425"/>
      </g>
     </g>
     <g id="text_10">
      <!-- 1500 -->
      <g transform="translate(21.76 94.673625)scale(0.12 -0.12)">
       <use xlink:href="#FranklinGothic-Book-31"/>
       <use x="57.267578" xlink:href="#FranklinGothic-Book-35"/>
       <use x="115.910156" xlink:href="#FranklinGothic-Book-30"/>
       <use x="174.552734" xlink:href="#FranklinGothic-Book-30"/>
      </g>
     </g>
    </g>
    <g id="ytick_5">
     <g id="line2d_19">
      <path clip-path="url(#p42427bf98b)" d="M 56.7425 42.67425 
L 361.106136 42.67425 
" style="fill:none;stroke:#b0b0b0;stroke-linecap:square;stroke-width:0.8;"/>
     </g>
     <g id="line2d_20">
      <g>
       <use style="stroke:#000000;stroke-width:0.8;" x="56.7425" xlink:href="#m6d4d09c3c0" y="42.67425"/>
      </g>
     </g>
     <g id="text_11">
      <!-- 2000 -->
      <g transform="translate(21.595 46.673625)scale(0.12 -0.12)">
       <use xlink:href="#FranklinGothic-Book-32"/>
       <use x="58.642578" xlink:href="#FranklinGothic-Book-30"/>
       <use x="117.285156" xlink:href="#FranklinGothic-Book-30"/>
       <use x="175.927734" xlink:href="#FranklinGothic-Book-30"/>
      </g>
     </g>
    </g>
    <g id="text_12">
     <!-- Charging power (kW) -->
     <g transform="translate(15.361875 185.9355)rotate(-90)scale(0.12 -0.12)">
      <defs>
       <path d="M 3091 1434 
L 3578 1325 
Q 3228 -84 1997 -84 
Q 1188 -84 727 569 
Q 266 1222 266 2175 
Q 266 3159 747 3756 
Q 1228 4353 2038 4353 
Q 3238 4353 3578 2981 
L 3075 2881 
Q 2800 3900 2034 3900 
Q 1469 3900 1158 3426 
Q 847 2953 847 2097 
Q 847 1313 1165 839 
Q 1484 366 2009 366 
Q 2825 366 3091 1434 
z
" id="FranklinGothic-Book-43" transform="scale(0.015625)"/>
       <path d="M 3069 3650 
L 3069 3259 
Q 2731 3259 2617 3181 
Q 2503 3103 2466 2900 
Q 2769 2550 2769 2138 
Q 2769 1706 2439 1397 
Q 2109 1088 1553 1088 
Q 1428 1088 1338 1106 
Q 1166 1141 1122 1141 
Q 1038 1141 919 1058 
Q 800 975 800 844 
Q 800 656 972 600 
Q 1144 544 1781 528 
Q 2322 513 2580 455 
Q 2838 397 3016 198 
Q 3194 0 3194 -288 
Q 3194 -1191 1606 -1191 
Q 853 -1191 508 -964 
Q 163 -738 163 -359 
Q 163 100 644 272 
Q 334 475 334 781 
Q 334 1147 772 1341 
Q 363 1672 363 2175 
Q 363 2644 713 2944 
Q 1063 3244 1566 3244 
Q 1922 3244 2213 3109 
Q 2259 3419 2429 3537 
Q 2600 3656 2947 3656 
Q 2981 3656 3069 3650 
z
M 1569 1463 
Q 1881 1463 2078 1655 
Q 2275 1847 2275 2153 
Q 2275 2466 2070 2664 
Q 1866 2863 1575 2863 
Q 1297 2863 1081 2677 
Q 866 2491 866 2147 
Q 866 1841 1059 1652 
Q 1253 1463 1569 1463 
z
M 981 128 
Q 638 -22 638 -306 
Q 638 -547 920 -680 
Q 1203 -813 1641 -813 
Q 2047 -813 2384 -698 
Q 2722 -584 2722 -313 
Q 2722 -166 2622 -72 
Q 2522 22 2348 47 
Q 2175 72 1744 84 
Q 1228 97 981 128 
z
" id="FranklinGothic-Book-67" transform="scale(0.015625)"/>
       <path d="M 997 4266 
L 997 3722 
L 469 3722 
L 469 4266 
L 997 4266 
z
M 981 3156 
L 981 0 
L 491 0 
L 491 3156 
L 981 3156 
z
" id="FranklinGothic-Book-69" transform="scale(0.015625)"/>
       <path d="M 2978 0 
L 2519 0 
L 2519 2028 
Q 2519 2466 2328 2644 
Q 2138 2822 1866 2822 
Q 1491 2822 1236 2522 
Q 981 2222 981 1731 
L 981 0 
L 491 0 
L 491 3156 
L 947 3156 
L 947 2575 
Q 1331 3244 1944 3244 
Q 2297 3244 2545 3061 
Q 2794 2878 2886 2650 
Q 2978 2422 2978 1825 
L 2978 0 
z
" id="FranklinGothic-Book-6e" transform="scale(0.015625)"/>
       <path d="M 981 -1066 
L 491 -1066 
L 491 3156 
L 931 3156 
L 931 2544 
Q 1266 3244 1928 3244 
Q 2488 3244 2831 2776 
Q 3175 2309 3175 1594 
Q 3175 822 2822 369 
Q 2469 -84 1916 -84 
Q 1322 -84 981 481 
L 981 -1066 
z
M 981 2034 
L 981 1147 
Q 1028 788 1284 553 
Q 1541 319 1819 319 
Q 2141 319 2389 600 
Q 2638 881 2638 1572 
Q 2638 2169 2413 2492 
Q 2188 2816 1816 2816 
Q 1522 2816 1289 2587 
Q 1056 2359 981 2034 
z
" id="FranklinGothic-Book-70" transform="scale(0.015625)"/>
       <path d="M 4128 3156 
L 3219 0 
L 2822 0 
L 2116 2344 
L 1469 0 
L 1066 0 
L 119 3156 
L 613 3156 
L 1297 803 
L 1953 3156 
L 2313 3156 
L 3022 794 
L 3731 3156 
L 4128 3156 
z
" id="FranklinGothic-Book-77" transform="scale(0.015625)"/>
       <path d="M 1581 -1066 
L 1253 -1066 
Q 334 141 334 1606 
Q 334 3006 1253 4266 
L 1581 4266 
Q 791 3088 791 1600 
Q 791 181 1581 -1066 
z
" id="FranklinGothic-Book-28" transform="scale(0.015625)"/>
       <path d="M 3097 0 
L 2588 0 
L 1666 1763 
L 981 975 
L 981 0 
L 491 0 
L 491 4266 
L 981 4266 
L 981 1534 
L 2447 3156 
L 2972 3156 
L 1984 2047 
L 3097 0 
z
" id="FranklinGothic-Book-6b" transform="scale(0.015625)"/>
       <path d="M 5109 4266 
L 4081 0 
L 3547 0 
L 2616 3309 
L 1750 0 
L 1203 0 
L 122 4266 
L 675 4266 
L 1528 809 
L 2434 4266 
L 2866 4266 
L 3844 809 
L 4641 4266 
L 5109 4266 
z
" id="FranklinGothic-Book-57" transform="scale(0.015625)"/>
       <path d="M 297 4266 
L 622 4266 
Q 1544 3059 1544 1594 
Q 1544 194 622 -1066 
L 297 -1066 
Q 1088 113 1088 1600 
Q 1088 3019 297 4266 
z
" id="FranklinGothic-Book-29" transform="scale(0.015625)"/>
      </defs>
      <use xlink:href="#FranklinGothic-Book-43"/>
      <use x="57.910156" xlink:href="#FranklinGothic-Book-68"/>
      <use x="111.914062" xlink:href="#FranklinGothic-Book-61"/>
      <use x="164.794922" xlink:href="#FranklinGothic-Book-72"/>
      <use x="197.753906" xlink:href="#FranklinGothic-Book-67"/>
      <use x="246.875" xlink:href="#FranklinGothic-Book-69"/>
      <use x="269.824219" xlink:href="#FranklinGothic-Book-6e"/>
      <use x="324.023438" xlink:href="#FranklinGothic-Book-67"/>
      <use x="373.144531" xlink:href="#FranklinGothic-Book-20"/>
      <use x="398.144531" xlink:href="#FranklinGothic-Book-70"/>
      <use x="451.5625" xlink:href="#FranklinGothic-Book-6f"/>
      <use x="502.140625" xlink:href="#FranklinGothic-Book-77"/>
      <use x="567.171875" xlink:href="#FranklinGothic-Book-65"/>
      <use x="619.222656" xlink:href="#FranklinGothic-Book-72"/>
      <use x="652.181641" xlink:href="#FranklinGothic-Book-20"/>
      <use x="677.181641" xlink:href="#FranklinGothic-Book-28"/>
      <use x="706.527344" xlink:href="#FranklinGothic-Book-6b"/>
      <use x="756.625" xlink:href="#FranklinGothic-Book-57"/>
      <use x="838.363281" xlink:href="#FranklinGothic-Book-29"/>
     </g>
    </g>
   </g>
   <g id="LineCollection_1">
    <path clip-path="url(#p42427bf98b)" d="M 26.306136 33.07425 
L 391.5425 33.07425 
" style="fill:none;stroke:#f4acb7;stroke-dasharray:11.1,4.8;stroke-dashoffset:0;stroke-opacity:0.9;stroke-width:3;"/>
   </g>
   <g id="line2d_21">
    <path clip-path="url(#p42427bf98b)" d="M 26.306136 234.67425 
L 65.873409 234.67425 
L 65.873409 232.632998 
L 68.917045 232.632998 
L 68.917045 231.766981 
L 71.960682 231.766981 
L 71.960682 230.001967 
L 75.004318 230.001967 
L 75.004318 224.704202 
L 78.047955 224.704202 
L 78.047955 229.004085 
L 81.091591 229.004085 
L 81.091591 229.91859 
L 84.135227 229.91859 
L 84.135227 229.766768 
L 87.178864 229.766768 
L 87.178864 184.509354 
L 90.2225 184.509354 
L 90.2225 189.666558 
L 93.266136 189.666558 
L 93.266136 198.70092 
L 96.309773 198.70092 
L 96.309773 205.627769 
L 99.353409 205.627769 
L 99.353409 94.814116 
L 102.397045 94.814116 
L 102.397045 79.016734 
L 105.440682 79.016734 
L 105.440682 101.157263 
L 108.484318 101.157263 
L 108.484318 94.252838 
L 111.527955 94.252838 
L 111.527955 35.68086 
L 114.571591 35.68086 
L 114.571591 34.223255 
L 117.615227 34.223255 
L 117.615227 35.109536 
L 120.658864 35.109536 
L 120.658864 35.624742 
L 123.7025 35.624742 
L 123.7025 33.591157 
L 129.789773 33.601257 
L 129.789773 33.897521 
L 132.833409 33.897521 
L 132.833409 34.264032 
L 135.877045 34.264032 
L 135.877045 33.346737 
L 145.007955 33.397429 
L 145.007955 33.525707 
L 148.051591 33.525707 
L 148.051591 33.273171 
L 157.1825 33.339281 
L 157.1825 33.467415 
L 160.226136 33.467415 
L 160.226136 33.292472 
L 166.313409 33.291614 
L 166.313409 33.40877 
L 172.400682 33.494104 
L 172.400682 33.25611 
L 181.531591 33.33319 
L 181.531591 33.452587 
L 184.575227 33.452587 
L 184.575227 33.261581 
L 190.6625 33.254915 
L 190.6625 33.382859 
L 193.706136 33.382859 
L 193.706136 33.515295 
L 196.749773 33.515295 
L 196.749773 33.25365 
L 202.837045 33.317914 
L 202.837045 33.438705 
L 205.880682 33.438705 
L 205.880682 33.648988 
L 208.924318 33.648988 
L 208.924318 33.311877 
L 218.055227 33.405226 
L 218.055227 33.487904 
L 221.098864 33.487904 
L 221.098864 33.250612 
L 227.186136 33.25109 
L 227.186136 33.384128 
L 230.229773 33.384128 
L 230.229773 33.525089 
L 233.273409 33.525089 
L 233.273409 33.27473 
L 239.360682 33.237447 
L 239.360682 33.392185 
L 248.491591 33.281304 
L 248.491591 33.24959 
L 251.535227 33.24959 
L 251.535227 33.372762 
L 254.578864 33.372762 
L 254.578864 33.527755 
L 257.6225 33.527755 
L 257.6225 33.266589 
L 263.709773 33.276947 
L 263.709773 33.398626 
L 266.753409 33.398626 
L 266.753409 33.522806 
L 269.797045 33.522806 
L 269.797045 33.278458 
L 275.884318 33.305297 
L 275.884318 33.393812 
L 278.927955 33.393812 
L 278.927955 33.527372 
L 285.015227 33.444122 
L 285.015227 33.320671 
L 288.058864 33.320671 
L 288.058864 33.460646 
L 291.1025 33.460646 
L 291.1025 33.595246 
L 300.233409 33.568707 
L 300.233409 33.975753 
L 303.277045 33.975753 
L 303.277045 34.13624 
L 306.320682 34.13624 
L 306.320682 34.610985 
L 309.364318 34.610985 
L 309.364318 34.176974 
L 315.451591 34.215849 
L 315.451591 36.861236 
L 318.495227 36.861236 
L 318.495227 44.264121 
L 321.538864 44.264121 
L 321.538864 68.355591 
L 324.5825 68.355591 
L 324.5825 94.681951 
L 327.626136 94.681951 
L 327.626136 108.423521 
L 330.669773 108.423521 
L 330.669773 137.797606 
L 333.713409 137.797606 
L 333.713409 161.649312 
L 336.757045 161.649312 
L 336.757045 160.047211 
L 339.800682 160.047211 
L 339.800682 163.438824 
L 342.844318 163.438824 
L 342.844318 172.862876 
L 345.887955 172.862876 
L 345.887955 185.364766 
L 348.931591 185.364766 
L 348.931591 197.177932 
L 351.975227 197.177932 
L 351.975227 206.051549 
L 355.018864 206.051549 
L 355.018864 211.8216 
L 358.0625 211.8216 
L 358.0625 215.876607 
L 361.106136 215.876607 
L 361.106136 219.697251 
L 364.149773 219.697251 
L 364.149773 223.10277 
L 367.193409 223.10277 
L 367.193409 226.162227 
L 370.237045 226.162227 
L 370.237045 228.549693 
L 373.280682 228.549693 
L 373.280682 230.332744 
L 376.324318 230.332744 
L 376.324318 232.984744 
L 379.367955 232.984744 
L 379.367955 234.160944 
L 382.411591 234.160944 
L 382.411591 234.67425 
L 388.498864 234.67425 
L 388.498864 234.67425 
" style="fill:none;stroke:#118ab2;stroke-linecap:square;stroke-opacity:0.7;stroke-width:2;"/>
   </g>
   <g id="line2d_22">
    <path clip-path="url(#p42427bf98b)" d="M 26.306136 234.67425 
L 62.829773 234.67425 
L 62.829773 234.67425 
L 65.873409 232.632998 
L 65.873409 233.133887 
L 68.917045 231.766981 
L 68.917045 232.499394 
L 71.960682 230.001967 
L 71.960682 231.048996 
L 75.004318 224.704202 
L 75.004318 227.223962 
L 78.047955 229.004085 
L 78.047955 230.387344 
L 81.091591 229.91859 
L 81.091591 230.703115 
L 84.135227 229.766768 
L 84.135227 230.299675 
L 87.178864 184.509354 
L 87.178864 197.358349 
L 90.2225 189.666558 
L 90.2225 198.888767 
L 93.266136 198.70092 
L 93.266136 205.621074 
L 96.309773 205.627769 
L 96.309773 211.382226 
L 99.353409 94.814116 
L 99.353409 130.383099 
L 102.397045 79.016734 
L 102.397045 115.056503 
L 105.440682 101.157263 
L 105.440682 127.786348 
L 108.484318 94.252838 
L 108.484318 120.223113 
L 111.527955 35.68086 
L 111.527955 35.942683 
L 114.571591 34.223255 
L 114.571591 34.301043 
L 117.615227 35.109536 
L 117.615227 35.319844 
L 120.658864 35.624742 
L 120.658864 36.005111 
L 123.7025 33.524233 
L 126.746136 33.601257 
L 126.746136 33.436548 
L 132.833409 34.264032 
L 132.833409 34.168955 
L 135.877045 33.280711 
L 145.007955 33.525707 
L 145.007955 33.49474 
L 148.051591 33.272175 
L 151.095227 33.241355 
L 151.095227 33.252058 
L 157.1825 33.483407 
L 160.226136 33.292472 
L 160.226136 33.302537 
L 163.269773 33.291614 
L 163.269773 33.323835 
L 169.357045 33.520984 
L 172.400682 33.25611 
L 172.400682 33.272022 
L 178.487955 33.33319 
L 178.487955 33.37194 
L 181.531591 33.517979 
L 184.575227 33.261581 
L 184.575227 33.289014 
L 187.618864 33.254915 
L 187.618864 33.294687 
L 193.706136 33.515295 
L 193.706136 33.596225 
L 196.749773 33.25365 
L 196.749773 33.278024 
L 202.837045 33.438705 
L 202.837045 33.474907 
L 205.880682 33.752199 
L 208.924318 33.311877 
L 208.924318 33.363397 
L 211.967955 33.297644 
L 211.967955 33.336123 
L 218.055227 33.568585 
L 221.098864 33.250612 
L 221.098864 33.284595 
L 224.1425 33.25109 
L 224.1425 33.290403 
L 230.229773 33.525089 
L 230.229773 33.64168 
L 233.273409 33.27473 
L 233.273409 33.309849 
L 236.317045 33.237447 
L 236.317045 33.267146 
L 242.404318 33.528409 
L 245.447955 33.281304 
L 245.447955 33.309183 
L 248.491591 33.24959 
L 248.491591 33.297484 
L 254.578864 33.527755 
L 254.578864 33.589802 
L 257.6225 33.266589 
L 257.6225 33.301393 
L 260.666136 33.276947 
L 260.666136 33.330851 
L 266.753409 33.522806 
L 266.753409 33.593631 
L 269.797045 33.278458 
L 269.797045 33.315707 
L 275.884318 33.393812 
L 275.884318 33.430783 
L 278.927955 33.607929 
L 285.015227 33.320671 
L 285.015227 33.399878 
L 291.1025 33.595246 
L 291.1025 33.68432 
L 294.146136 33.653632 
L 294.146136 33.772624 
L 297.189773 33.568707 
L 297.189773 33.880818 
L 300.233409 33.975753 
L 300.233409 34.451062 
L 303.277045 34.13624 
L 303.277045 34.603662 
L 306.320682 34.610985 
L 306.320682 36.378666 
L 309.364318 34.176974 
L 309.364318 35.342559 
L 312.407955 34.215849 
L 312.407955 36.531569 
L 315.451591 36.861236 
L 315.451591 55.103664 
L 318.495227 44.264121 
L 318.495227 75.983931 
L 321.538864 68.355591 
L 321.538864 100.565683 
L 324.5825 94.681951 
L 324.5825 123.340582 
L 327.626136 108.423521 
L 327.626136 135.362974 
L 330.669773 137.797606 
L 330.669773 161.095682 
L 333.713409 161.649312 
L 333.713409 179.858931 
L 336.757045 160.047211 
L 336.757045 175.032632 
L 339.800682 163.438824 
L 339.800682 178.946876 
L 342.844318 172.862876 
L 342.844318 188.629501 
L 345.887955 185.364766 
L 345.887955 199.526488 
L 348.931591 197.177932 
L 348.931591 208.63961 
L 351.975227 206.051549 
L 351.975227 214.745126 
L 355.018864 211.8216 
L 355.018864 218.711002 
L 358.0625 215.876607 
L 358.0625 222.121183 
L 361.106136 219.697251 
L 361.106136 225.153915 
L 364.149773 223.10277 
L 364.149773 227.659438 
L 367.193409 226.162227 
L 367.193409 229.753476 
L 370.237045 228.549693 
L 370.237045 231.256781 
L 373.280682 230.332744 
L 373.280682 232.292793 
L 376.324318 232.984744 
L 376.324318 233.752722 
L 379.367955 234.160944 
L 379.367955 234.391916 
L 382.411591 234.67425 
L 382.411591 234.67425 
L 388.498864 234.67425 
L 388.498864 234.67425 
" style="fill:none;stroke:#06d6a0;stroke-linecap:square;stroke-opacity:0.7;stroke-width:2;"/>
   </g>
   <g id="line2d_23">
    <path clip-path="url(#p42427bf98b)" d="M 26.306136 234.67425 
L 62.829773 234.67425 
L 62.829773 233.196232 
L 65.873409 233.196232 
L 65.873409 232.597064 
L 68.917045 232.597064 
L 68.917045 233.732891 
L 71.960682 233.732891 
L 71.960682 231.80944 
L 75.004318 231.80944 
L 75.004318 221.917014 
L 78.047955 221.917014 
L 78.047955 218.794055 
L 81.091591 218.794055 
L 81.091591 226.539301 
L 84.135227 226.539301 
L 84.135227 230.554677 
L 87.178864 230.554677 
L 87.178864 204.449231 
L 90.2225 204.449231 
L 90.2225 209.191521 
L 93.266136 209.191521 
L 93.266136 201.868735 
L 96.309773 201.868735 
L 96.309773 200.830397 
L 99.353409 200.830397 
L 99.353409 119.661584 
L 102.397045 119.661584 
L 102.397045 85.254971 
L 105.440682 85.254971 
L 105.440682 114.992187 
L 108.484318 114.992187 
L 108.484318 117.180584 
L 111.527955 117.180584 
L 111.527955 36.622399 
L 114.571591 36.622399 
L 114.571591 35.488305 
L 117.615227 35.488305 
L 117.615227 36.853158 
L 120.658864 36.853158 
L 120.658864 37.688585 
L 123.7025 37.688585 
L 123.7025 34.718754 
L 126.746136 34.718754 
L 126.746136 34.224953 
L 129.789773 34.224953 
L 129.789773 34.760575 
L 132.833409 34.760575 
L 132.833409 35.050671 
L 135.877045 35.050671 
L 135.877045 33.626085 
L 141.964318 33.589201 
L 141.964318 33.848018 
L 145.007955 33.848018 
L 145.007955 34.00962 
L 148.051591 34.00962 
L 148.051591 33.374079 
L 154.138864 33.439437 
L 154.138864 33.585544 
L 157.1825 33.585544 
L 157.1825 33.831144 
L 160.226136 33.831144 
L 160.226136 33.343541 
L 166.313409 33.35528 
L 166.313409 33.55167 
L 169.357045 33.55167 
L 169.357045 33.798982 
L 172.400682 33.798982 
L 172.400682 33.356996 
L 178.487955 33.32929 
L 178.487955 33.521786 
L 181.531591 33.521786 
L 181.531591 33.77372 
L 184.575227 33.77372 
L 184.575227 33.35102 
L 190.6625 33.416127 
L 190.6625 33.577256 
L 193.706136 33.577256 
L 193.706136 33.771969 
L 196.749773 33.771969 
L 196.749773 33.353604 
L 202.837045 33.350435 
L 202.837045 33.517098 
L 205.880682 33.517098 
L 205.880682 33.651974 
L 208.924318 33.651974 
L 208.924318 33.363831 
L 215.011591 33.382042 
L 215.011591 33.571186 
L 218.055227 33.571186 
L 218.055227 33.790955 
L 221.098864 33.790955 
L 221.098864 33.354523 
L 227.186136 33.321801 
L 227.186136 33.590833 
L 230.229773 33.590833 
L 230.229773 33.802214 
L 233.273409 33.802214 
L 233.273409 33.364957 
L 239.360682 33.321721 
L 239.360682 33.476281 
L 242.404318 33.476281 
L 242.404318 33.706539 
L 245.447955 33.706539 
L 245.447955 33.342364 
L 254.578864 33.43926 
L 254.578864 33.636231 
L 257.6225 33.636231 
L 257.6225 33.325314 
L 263.709773 33.311018 
L 263.709773 33.443359 
L 266.753409 33.443359 
L 266.753409 33.639395 
L 269.797045 33.639395 
L 269.797045 33.33632 
L 275.884318 33.366302 
L 275.884318 33.522968 
L 278.927955 33.522968 
L 278.927955 33.641369 
L 288.058864 33.56191 
L 288.058864 33.787568 
L 291.1025 33.787568 
L 291.1025 34.23153 
L 294.146136 34.23153 
L 294.146136 34.5443 
L 297.189773 34.5443 
L 297.189773 35.050177 
L 300.233409 35.050177 
L 300.233409 49.926255 
L 303.277045 49.926255 
L 303.277045 51.855101 
L 306.320682 51.855101 
L 306.320682 71.687776 
L 309.364318 71.687776 
L 309.364318 84.420531 
L 312.407955 84.420531 
L 312.407955 111.533403 
L 315.451591 111.533403 
L 315.451591 111.341333 
L 318.495227 111.341333 
L 318.495227 139.809633 
L 321.538864 139.809633 
L 321.538864 161.516561 
L 324.5825 161.516561 
L 324.5825 181.891451 
L 327.626136 181.891451 
L 327.626136 185.844861 
L 330.669773 185.844861 
L 330.669773 191.682087 
L 333.713409 191.682087 
L 333.713409 202.69563 
L 336.757045 202.69563 
L 336.757045 211.621808 
L 339.800682 211.621808 
L 339.800682 218.252755 
L 342.844318 218.252755 
L 342.844318 222.975416 
L 345.887955 222.975416 
L 345.887955 226.255611 
L 348.931591 226.255611 
L 348.931591 223.485881 
L 351.975227 223.485881 
L 351.975227 217.902677 
L 355.018864 217.902677 
L 355.018864 217.071411 
L 358.0625 217.071411 
L 358.0625 218.965943 
L 361.106136 218.965943 
L 361.106136 221.68356 
L 364.149773 221.68356 
L 364.149773 224.423806 
L 367.193409 224.423806 
L 367.193409 226.838503 
L 370.237045 226.838503 
L 370.237045 228.803301 
L 373.280682 228.803301 
L 373.280682 230.388986 
L 376.324318 230.388986 
L 376.324318 233.018093 
L 379.367955 233.018093 
L 379.367955 234.180609 
L 382.411591 234.180609 
L 382.411591 234.67425 
L 388.498864 234.67425 
L 388.498864 234.67425 
" style="fill:none;stroke:#ffd166;stroke-linecap:square;stroke-opacity:0.7;stroke-width:2;"/>
   </g>
   <g id="line2d_24">
    <path clip-path="url(#p42427bf98b)" d="M 26.306136 234.67425 
L 62.829773 234.67425 
L 62.829773 233.667895 
L 65.873409 233.667895 
L 65.873409 233.125352 
L 68.917045 233.125352 
L 68.917045 233.998343 
L 71.960682 233.998343 
L 71.960682 232.257427 
L 75.004318 232.257427 
L 75.004318 224.502985 
L 78.047955 224.502985 
L 78.047955 221.412178 
L 81.091591 221.412178 
L 81.091591 228.049149 
L 84.135227 228.049149 
L 84.135227 231.32724 
L 87.178864 231.32724 
L 87.178864 209.185109 
L 90.2225 209.185109 
L 90.2225 215.478307 
L 93.266136 215.478307 
L 93.266136 208.793465 
L 96.309773 208.793465 
L 96.309773 207.448885 
L 99.353409 207.448885 
L 99.353409 149.071234 
L 102.397045 149.071234 
L 102.397045 120.11422 
L 105.440682 120.11422 
L 105.440682 141.456951 
L 108.484318 141.456951 
L 108.484318 138.637241 
L 111.527955 138.637241 
L 111.527955 36.177111 
L 114.571591 36.177111 
L 114.571591 34.685584 
L 117.615227 34.685584 
L 117.615227 36.520848 
L 120.658864 36.520848 
L 120.658864 37.930007 
L 123.7025 37.930007 
L 123.7025 34.821486 
L 126.746136 34.821486 
L 126.746136 33.920351 
L 129.789773 33.920351 
L 129.789773 34.562124 
L 132.833409 34.562124 
L 132.833409 34.810081 
L 135.877045 34.810081 
L 135.877045 33.551432 
L 141.964318 33.500618 
L 141.964318 33.737578 
L 145.007955 33.737578 
L 145.007955 33.897564 
L 148.051591 33.897564 
L 148.051591 33.38372 
L 154.138864 33.413474 
L 154.138864 33.526345 
L 157.1825 33.526345 
L 157.1825 33.79858 
L 160.226136 33.79858 
L 160.226136 33.369737 
L 166.313409 33.312501 
L 166.313409 33.576679 
L 169.357045 33.576679 
L 169.357045 33.910962 
L 172.400682 33.910962 
L 172.400682 33.407229 
L 178.487955 33.404833 
L 178.487955 33.590241 
L 181.531591 33.590241 
L 181.531591 33.966191 
L 184.575227 33.966191 
L 184.575227 33.420266 
L 187.618864 33.420266 
L 187.618864 33.533303 
L 193.706136 33.644386 
L 193.706136 34.033605 
L 196.749773 34.033605 
L 196.749773 33.439012 
L 202.837045 33.444175 
L 202.837045 33.597887 
L 205.880682 33.597887 
L 205.880682 33.832383 
L 208.924318 33.832383 
L 208.924318 33.495799 
L 215.011591 33.45578 
L 215.011591 33.654051 
L 218.055227 33.654051 
L 218.055227 34.003149 
L 221.098864 34.003149 
L 221.098864 33.432214 
L 227.186136 33.344323 
L 227.186136 33.670205 
L 230.229773 33.670205 
L 230.229773 34.046041 
L 233.273409 34.046041 
L 233.273409 33.442257 
L 239.360682 33.393519 
L 239.360682 33.571337 
L 242.404318 33.571337 
L 242.404318 33.969915 
L 245.447955 33.969915 
L 245.447955 33.432888 
L 254.578864 33.496714 
L 254.578864 33.856059 
L 257.6225 33.856059 
L 257.6225 33.42601 
L 263.709773 33.400727 
L 263.709773 33.539516 
L 266.753409 33.539516 
L 266.753409 33.768636 
L 269.797045 33.768636 
L 269.797045 33.425636 
L 275.884318 33.405374 
L 275.884318 33.719988 
L 281.971591 33.734703 
L 281.971591 34.201989 
L 288.058864 34.181634 
L 288.058864 34.67392 
L 291.1025 34.67392 
L 291.1025 36.469876 
L 294.146136 36.469876 
L 294.146136 44.919979 
L 297.189773 44.919979 
L 297.189773 53.473283 
L 300.233409 53.473283 
L 300.233409 86.758779 
L 306.320682 86.66563 
L 306.320682 104.499061 
L 309.364318 104.499061 
L 309.364318 119.523977 
L 312.407955 119.523977 
L 312.407955 142.262038 
L 315.451591 142.262038 
L 315.451591 143.623223 
L 318.495227 143.623223 
L 318.495227 168.249634 
L 321.538864 168.249634 
L 321.538864 183.732522 
L 324.5825 183.732522 
L 324.5825 198.232545 
L 327.626136 198.232545 
L 327.626136 199.821578 
L 330.669773 199.821578 
L 330.669773 203.694775 
L 333.713409 203.694775 
L 333.713409 212.366364 
L 336.757045 212.366364 
L 336.757045 218.964331 
L 339.800682 218.964331 
L 339.800682 223.700822 
L 342.844318 223.700822 
L 342.844318 227.006792 
L 345.887955 227.006792 
L 345.887955 229.291202 
L 348.931591 229.291202 
L 348.931591 226.086882 
L 351.975227 226.086882 
L 351.975227 221.881595 
L 355.018864 221.881595 
L 355.018864 221.442763 
L 358.0625 221.442763 
L 358.0625 223.074833 
L 361.106136 223.074833 
L 361.106136 225.30481 
L 364.149773 225.30481 
L 364.149773 227.47141 
L 367.193409 227.47141 
L 367.193409 229.291593 
L 370.237045 229.291593 
L 370.237045 230.715671 
L 373.280682 230.715671 
L 373.280682 231.822825 
L 376.324318 231.822825 
L 376.324318 233.564613 
L 379.367955 233.564613 
L 379.367955 234.345906 
L 382.411591 234.345906 
L 382.411591 234.67425 
L 388.498864 234.67425 
L 388.498864 234.67425 
" style="fill:none;stroke:#ef476f;stroke-linecap:square;stroke-opacity:0.7;stroke-width:2;"/>
   </g>
   <g id="patch_3">
    <path d="M 56.7425 244.75425 
L 56.7425 22.99425 
" style="fill:none;stroke:#000000;stroke-linecap:square;stroke-linejoin:miter;stroke-width:0.8;"/>
   </g>
   <g id="patch_4">
    <path d="M 361.106136 244.75425 
L 361.106136 22.99425 
" style="fill:none;stroke:#000000;stroke-linecap:square;stroke-linejoin:miter;stroke-width:0.8;"/>
   </g>
   <g id="patch_5">
    <path d="M 56.7425 244.75425 
L 361.106136 244.75425 
" style="fill:none;stroke:#000000;stroke-linecap:square;stroke-linejoin:miter;stroke-width:0.8;"/>
   </g>
   <g id="patch_6">
    <path d="M 56.7425 22.99425 
L 361.106136 22.99425 
" style="fill:none;stroke:#000000;stroke-linecap:square;stroke-linejoin:miter;stroke-width:0.8;"/>
   </g>
   <g id="text_13">
    <!-- Low utility factor -->
    <g transform="translate(159.620068 16.99425)scale(0.144 -0.144)">
     <defs>
      <path d="M 3053 469 
L 3053 0 
L 534 0 
L 534 4266 
L 1081 4266 
L 1081 469 
L 3053 469 
z
" id="FranklinGothic-Book-4c" transform="scale(0.015625)"/>
      <path d="M 981 0 
L 491 0 
L 491 4266 
L 981 4266 
L 981 0 
z
" id="FranklinGothic-Book-6c" transform="scale(0.015625)"/>
      <path d="M 2356 1106 
L 2800 1028 
Q 2706 506 2384 211 
Q 2063 -84 1581 -84 
Q 928 -84 586 397 
Q 244 878 244 1572 
Q 244 2291 605 2767 
Q 966 3244 1588 3244 
Q 2103 3244 2414 2936 
Q 2725 2628 2800 2141 
L 2356 2056 
Q 2231 2838 1600 2838 
Q 1194 2838 975 2492 
Q 756 2147 756 1597 
Q 756 991 973 655 
Q 1191 319 1584 319 
Q 2194 319 2356 1106 
z
" id="FranklinGothic-Book-63" transform="scale(0.015625)"/>
     </defs>
     <use xlink:href="#FranklinGothic-Book-4c"/>
     <use x="48.974609" xlink:href="#FranklinGothic-Book-6f"/>
     <use x="99.552734" xlink:href="#FranklinGothic-Book-77"/>
     <use x="165.958984" xlink:href="#FranklinGothic-Book-20"/>
     <use x="190.958984" xlink:href="#FranklinGothic-Book-75"/>
     <use x="245.109375" xlink:href="#FranklinGothic-Book-74"/>
     <use x="275.871094" xlink:href="#FranklinGothic-Book-69"/>
     <use x="298.820312" xlink:href="#FranklinGothic-Book-6c"/>
     <use x="321.818359" xlink:href="#FranklinGothic-Book-69"/>
     <use x="344.767578" xlink:href="#FranklinGothic-Book-74"/>
     <use x="375.529297" xlink:href="#FranklinGothic-Book-79"/>
     <use x="417.033203" xlink:href="#FranklinGothic-Book-20"/>
     <use x="442.033203" xlink:href="#FranklinGothic-Book-66"/>
     <use x="471.138672" xlink:href="#FranklinGothic-Book-61"/>
     <use x="524.019531" xlink:href="#FranklinGothic-Book-63"/>
     <use x="570.601562" xlink:href="#FranklinGothic-Book-74"/>
     <use x="599.863281" xlink:href="#FranklinGothic-Book-6f"/>
     <use x="651.816406" xlink:href="#FranklinGothic-Book-72"/>
    </g>
   </g>
   <g id="legend_1">
    <g id="patch_7">
     <path d="M 65.1425 320.6595 
L 501.07625 320.6595 
Q 503.47625 320.6595 503.47625 318.2595 
L 503.47625 286.41825 
Q 503.47625 284.01825 501.07625 284.01825 
L 65.1425 284.01825 
Q 62.7425 284.01825 62.7425 286.41825 
L 62.7425 318.2595 
Q 62.7425 320.6595 65.1425 320.6595 
z
" style="fill:#ffffff;opacity:0.8;stroke:#cccccc;stroke-linejoin:miter;"/>
    </g>
    <g id="line2d_25">
     <path d="M 67.5425 293.01825 
L 91.5425 293.01825 
" style="fill:none;stroke:#118ab2;stroke-linecap:square;stroke-opacity:0.7;stroke-width:2;"/>
    </g>
    <g id="line2d_26"/>
    <g id="text_14">
     <!-- Workday in winter -->
     <g transform="translate(101.1425 297.21825)scale(0.12 -0.12)">
      <use xlink:href="#FranklinGothic-Book-57"/>
      <use x="79.488281" xlink:href="#FranklinGothic-Book-6f"/>
      <use x="131.441406" xlink:href="#FranklinGothic-Book-72"/>
      <use x="163.900391" xlink:href="#FranklinGothic-Book-6b"/>
      <use x="213.998047" xlink:href="#FranklinGothic-Book-64"/>
      <use x="267.855469" xlink:href="#FranklinGothic-Book-61"/>
      <use x="318.486328" xlink:href="#FranklinGothic-Book-79"/>
      <use x="359.990234" xlink:href="#FranklinGothic-Book-20"/>
      <use x="384.990234" xlink:href="#FranklinGothic-Book-69"/>
      <use x="407.939453" xlink:href="#FranklinGothic-Book-6e"/>
      <use x="462.138672" xlink:href="#FranklinGothic-Book-20"/>
      <use x="487.138672" xlink:href="#FranklinGothic-Book-77"/>
      <use x="553.544922" xlink:href="#FranklinGothic-Book-69"/>
      <use x="576.494141" xlink:href="#FranklinGothic-Book-6e"/>
      <use x="630.693359" xlink:href="#FranklinGothic-Book-74"/>
      <use x="659.705078" xlink:href="#FranklinGothic-Book-65"/>
      <use x="711.755859" xlink:href="#FranklinGothic-Book-72"/>
     </g>
    </g>
    <g id="line2d_27">
     <path d="M 67.5425 309.538875 
L 91.5425 309.538875 
" style="fill:none;stroke:#06d6a0;stroke-linecap:square;stroke-opacity:0.7;stroke-width:2;"/>
    </g>
    <g id="line2d_28"/>
    <g id="text_15">
     <!-- Workday in summer -->
     <g transform="translate(101.1425 313.738875)scale(0.12 -0.12)">
      <defs>
       <path d="M 66 819 
L 534 916 
Q 691 319 1522 319 
Q 1828 319 2040 456 
Q 2253 594 2253 844 
Q 2253 1216 1713 1316 
L 1047 1441 
Q 656 1516 425 1734 
Q 194 1953 194 2313 
Q 194 2709 509 2976 
Q 825 3244 1359 3244 
Q 2388 3244 2628 2441 
L 2178 2344 
Q 1984 2838 1381 2838 
Q 1081 2838 889 2714 
Q 697 2591 697 2369 
Q 697 2019 1188 1928 
L 1803 1819 
Q 2769 1644 2769 884 
Q 2769 450 2409 183 
Q 2050 -84 1453 -84 
Q 331 -84 66 819 
z
" id="FranklinGothic-Book-73" transform="scale(0.015625)"/>
       <path d="M 4719 0 
L 4241 0 
L 4241 1963 
Q 4241 2266 4198 2417 
Q 4156 2569 3993 2695 
Q 3831 2822 3628 2822 
Q 3347 2822 3086 2564 
Q 2825 2306 2825 1778 
L 2825 0 
L 2350 0 
L 2350 2078 
Q 2350 2494 2151 2666 
Q 1953 2838 1734 2838 
Q 1422 2838 1190 2569 
Q 959 2300 959 1888 
L 959 0 
L 491 0 
L 491 3156 
L 913 3156 
L 913 2550 
Q 1266 3244 1884 3244 
Q 2225 3244 2462 3022 
Q 2700 2800 2769 2488 
Q 3094 3244 3766 3244 
Q 4088 3244 4330 3059 
Q 4572 2875 4645 2636 
Q 4719 2397 4719 1963 
L 4719 0 
z
" id="FranklinGothic-Book-6d" transform="scale(0.015625)"/>
      </defs>
      <use xlink:href="#FranklinGothic-Book-57"/>
      <use x="79.488281" xlink:href="#FranklinGothic-Book-6f"/>
      <use x="131.441406" xlink:href="#FranklinGothic-Book-72"/>
      <use x="163.900391" xlink:href="#FranklinGothic-Book-6b"/>
      <use x="213.998047" xlink:href="#FranklinGothic-Book-64"/>
      <use x="267.855469" xlink:href="#FranklinGothic-Book-61"/>
      <use x="318.486328" xlink:href="#FranklinGothic-Book-79"/>
      <use x="359.990234" xlink:href="#FranklinGothic-Book-20"/>
      <use x="384.990234" xlink:href="#FranklinGothic-Book-69"/>
      <use x="407.939453" xlink:href="#FranklinGothic-Book-6e"/>
      <use x="462.138672" xlink:href="#FranklinGothic-Book-20"/>
      <use x="487.138672" xlink:href="#FranklinGothic-Book-73"/>
      <use x="533.525391" xlink:href="#FranklinGothic-Book-75"/>
      <use x="587.675781" xlink:href="#FranklinGothic-Book-6d"/>
      <use x="669.072266" xlink:href="#FranklinGothic-Book-6d"/>
      <use x="750.46875" xlink:href="#FranklinGothic-Book-65"/>
      <use x="802.519531" xlink:href="#FranklinGothic-Book-72"/>
     </g>
    </g>
    <g id="line2d_29">
     <path d="M 225.396875 293.01825 
L 249.396875 293.01825 
" style="fill:none;stroke:#ffd166;stroke-linecap:square;stroke-opacity:0.7;stroke-width:2;"/>
    </g>
    <g id="line2d_30"/>
    <g id="text_16">
     <!-- Holiday in winter -->
     <g transform="translate(258.996875 297.21825)scale(0.12 -0.12)">
      <use xlink:href="#FranklinGothic-Book-48"/>
      <use x="64.257812" xlink:href="#FranklinGothic-Book-6f"/>
      <use x="116.210938" xlink:href="#FranklinGothic-Book-6c"/>
      <use x="139.208984" xlink:href="#FranklinGothic-Book-69"/>
      <use x="162.158203" xlink:href="#FranklinGothic-Book-64"/>
      <use x="216.015625" xlink:href="#FranklinGothic-Book-61"/>
      <use x="266.646484" xlink:href="#FranklinGothic-Book-79"/>
      <use x="308.150391" xlink:href="#FranklinGothic-Book-20"/>
      <use x="333.150391" xlink:href="#FranklinGothic-Book-69"/>
      <use x="356.099609" xlink:href="#FranklinGothic-Book-6e"/>
      <use x="410.298828" xlink:href="#FranklinGothic-Book-20"/>
      <use x="435.298828" xlink:href="#FranklinGothic-Book-77"/>
      <use x="501.705078" xlink:href="#FranklinGothic-Book-69"/>
      <use x="524.654297" xlink:href="#FranklinGothic-Book-6e"/>
      <use x="578.853516" xlink:href="#FranklinGothic-Book-74"/>
      <use x="607.865234" xlink:href="#FranklinGothic-Book-65"/>
      <use x="659.916016" xlink:href="#FranklinGothic-Book-72"/>
     </g>
    </g>
    <g id="line2d_31">
     <path d="M 225.396875 309.538875 
L 249.396875 309.538875 
" style="fill:none;stroke:#ef476f;stroke-linecap:square;stroke-opacity:0.7;stroke-width:2;"/>
    </g>
    <g id="line2d_32"/>
    <g id="text_17">
     <!-- Holiday in summer -->
     <g transform="translate(258.996875 313.738875)scale(0.12 -0.12)">
      <use xlink:href="#FranklinGothic-Book-48"/>
      <use x="64.257812" xlink:href="#FranklinGothic-Book-6f"/>
      <use x="116.210938" xlink:href="#FranklinGothic-Book-6c"/>
      <use x="139.208984" xlink:href="#FranklinGothic-Book-69"/>
      <use x="162.158203" xlink:href="#FranklinGothic-Book-64"/>
      <use x="216.015625" xlink:href="#FranklinGothic-Book-61"/>
      <use x="266.646484" xlink:href="#FranklinGothic-Book-79"/>
      <use x="308.150391" xlink:href="#FranklinGothic-Book-20"/>
      <use x="333.150391" xlink:href="#FranklinGothic-Book-69"/>
      <use x="356.099609" xlink:href="#FranklinGothic-Book-6e"/>
      <use x="410.298828" xlink:href="#FranklinGothic-Book-20"/>
      <use x="435.298828" xlink:href="#FranklinGothic-Book-73"/>
      <use x="481.685547" xlink:href="#FranklinGothic-Book-75"/>
      <use x="535.835938" xlink:href="#FranklinGothic-Book-6d"/>
      <use x="617.232422" xlink:href="#FranklinGothic-Book-6d"/>
      <use x="698.628906" xlink:href="#FranklinGothic-Book-65"/>
      <use x="750.679688" xlink:href="#FranklinGothic-Book-72"/>
     </g>
    </g>
    <g id="line2d_33">
     <path d="M 377.03375 293.01825 
L 401.03375 293.01825 
" style="fill:none;stroke:#f4acb7;stroke-dasharray:11.1,4.8;stroke-dashoffset:0;stroke-opacity:0.9;stroke-width:3;"/>
    </g>
    <g id="text_18">
     <!-- Installed capacity -->
     <g transform="translate(410.63375 297.21825)scale(0.12 -0.12)">
      <defs>
       <path d="M 1069 0 
L 534 0 
L 534 4266 
L 1069 4266 
L 1069 0 
z
" id="FranklinGothic-Book-49" transform="scale(0.015625)"/>
      </defs>
      <use xlink:href="#FranklinGothic-Book-49"/>
      <use x="25" xlink:href="#FranklinGothic-Book-6e"/>
      <use x="79.199219" xlink:href="#FranklinGothic-Book-73"/>
      <use x="125.585938" xlink:href="#FranklinGothic-Book-74"/>
      <use x="156.347656" xlink:href="#FranklinGothic-Book-61"/>
      <use x="209.228516" xlink:href="#FranklinGothic-Book-6c"/>
      <use x="232.226562" xlink:href="#FranklinGothic-Book-6c"/>
      <use x="255.224609" xlink:href="#FranklinGothic-Book-65"/>
      <use x="307.275391" xlink:href="#FranklinGothic-Book-64"/>
      <use x="361.132812" xlink:href="#FranklinGothic-Book-20"/>
      <use x="386.132812" xlink:href="#FranklinGothic-Book-63"/>
      <use x="432.714844" xlink:href="#FranklinGothic-Book-61"/>
      <use x="485.595703" xlink:href="#FranklinGothic-Book-70"/>
      <use x="539.013672" xlink:href="#FranklinGothic-Book-61"/>
      <use x="591.894531" xlink:href="#FranklinGothic-Book-63"/>
      <use x="638.476562" xlink:href="#FranklinGothic-Book-69"/>
      <use x="661.425781" xlink:href="#FranklinGothic-Book-74"/>
      <use x="692.1875" xlink:href="#FranklinGothic-Book-79"/>
     </g>
    </g>
   </g>
  </g>
  <g id="axes_2">
   <g id="patch_8">
    <path d="M 421.978864 244.75425 
L 726.3425 244.75425 
L 726.3425 22.99425 
L 421.978864 22.99425 
z
" style="fill:#ffffff;"/>
   </g>
   <g id="matplotlib.axis_3">
    <g id="xtick_6">
     <g id="line2d_34">
      <path clip-path="url(#pbd30d7fc1d)" d="M 452.415227 244.75425 
L 452.415227 22.99425 
" style="fill:none;stroke:#b0b0b0;stroke-linecap:square;stroke-width:0.8;"/>
     </g>
     <g id="line2d_35">
      <g>
       <use style="stroke:#000000;stroke-width:0.8;" x="452.415227" xlink:href="#mb904552869" y="244.75425"/>
      </g>
     </g>
     <g id="text_19">
      <!-- 05:00 -->
      <g transform="translate(436.841477 259.753)scale(0.12 -0.12)">
       <use xlink:href="#FranklinGothic-Book-30"/>
       <use x="58.642578" xlink:href="#FranklinGothic-Book-35"/>
       <use x="117.285156" xlink:href="#FranklinGothic-Book-3a"/>
       <use x="142.285156" xlink:href="#FranklinGothic-Book-30"/>
       <use x="200.927734" xlink:href="#FranklinGothic-Book-30"/>
      </g>
     </g>
    </g>
    <g id="xtick_7">
     <g id="line2d_36">
      <path clip-path="url(#pbd30d7fc1d)" d="M 513.287955 244.75425 
L 513.287955 22.99425 
" style="fill:none;stroke:#b0b0b0;stroke-linecap:square;stroke-width:0.8;"/>
     </g>
     <g id="line2d_37">
      <g>
       <use style="stroke:#000000;stroke-width:0.8;" x="513.287955" xlink:href="#mb904552869" y="244.75425"/>
      </g>
     </g>
     <g id="text_20">
      <!-- 10:00 -->
      <g transform="translate(497.909205 259.753)scale(0.12 -0.12)">
       <use xlink:href="#FranklinGothic-Book-31"/>
       <use x="55.392578" xlink:href="#FranklinGothic-Book-30"/>
       <use x="114.035156" xlink:href="#FranklinGothic-Book-3a"/>
       <use x="139.035156" xlink:href="#FranklinGothic-Book-30"/>
       <use x="197.677734" xlink:href="#FranklinGothic-Book-30"/>
      </g>
     </g>
    </g>
    <g id="xtick_8">
     <g id="line2d_38">
      <path clip-path="url(#pbd30d7fc1d)" d="M 574.160682 244.75425 
L 574.160682 22.99425 
" style="fill:none;stroke:#b0b0b0;stroke-linecap:square;stroke-width:0.8;"/>
     </g>
     <g id="line2d_39">
      <g>
       <use style="stroke:#000000;stroke-width:0.8;" x="574.160682" xlink:href="#mb904552869" y="244.75425"/>
      </g>
     </g>
     <g id="text_21">
      <!-- 15:00 -->
      <g transform="translate(558.669432 259.753)scale(0.12 -0.12)">
       <use xlink:href="#FranklinGothic-Book-31"/>
       <use x="57.267578" xlink:href="#FranklinGothic-Book-35"/>
       <use x="115.910156" xlink:href="#FranklinGothic-Book-3a"/>
       <use x="140.910156" xlink:href="#FranklinGothic-Book-30"/>
       <use x="199.552734" xlink:href="#FranklinGothic-Book-30"/>
      </g>
     </g>
    </g>
    <g id="xtick_9">
     <g id="line2d_40">
      <path clip-path="url(#pbd30d7fc1d)" d="M 635.033409 244.75425 
L 635.033409 22.99425 
" style="fill:none;stroke:#b0b0b0;stroke-linecap:square;stroke-width:0.8;"/>
     </g>
     <g id="line2d_41">
      <g>
       <use style="stroke:#000000;stroke-width:0.8;" x="635.033409" xlink:href="#mb904552869" y="244.75425"/>
      </g>
     </g>
     <g id="text_22">
      <!-- 20:00 -->
      <g transform="translate(619.459659 259.753)scale(0.12 -0.12)">
       <use xlink:href="#FranklinGothic-Book-32"/>
       <use x="58.642578" xlink:href="#FranklinGothic-Book-30"/>
       <use x="117.285156" xlink:href="#FranklinGothic-Book-3a"/>
       <use x="142.285156" xlink:href="#FranklinGothic-Book-30"/>
       <use x="200.927734" xlink:href="#FranklinGothic-Book-30"/>
      </g>
     </g>
    </g>
    <g id="xtick_10">
     <g id="line2d_42">
      <path clip-path="url(#pbd30d7fc1d)" d="M 695.906136 244.75425 
L 695.906136 22.99425 
" style="fill:none;stroke:#b0b0b0;stroke-linecap:square;stroke-width:0.8;"/>
     </g>
     <g id="line2d_43">
      <g>
       <use style="stroke:#000000;stroke-width:0.8;" x="695.906136" xlink:href="#mb904552869" y="244.75425"/>
      </g>
     </g>
     <g id="text_23">
      <!-- 01:00 -->
      <g transform="translate(680.557386 259.753)scale(0.12 -0.12)">
       <use xlink:href="#FranklinGothic-Book-30"/>
       <use x="54.892578" xlink:href="#FranklinGothic-Book-31"/>
       <use x="113.535156" xlink:href="#FranklinGothic-Book-3a"/>
       <use x="138.535156" xlink:href="#FranklinGothic-Book-30"/>
       <use x="197.177734" xlink:href="#FranklinGothic-Book-30"/>
      </g>
     </g>
    </g>
    <g id="text_24">
     <!-- Hour of the day -->
     <g transform="translate(535.576932 273.913625)scale(0.12 -0.12)">
      <use xlink:href="#FranklinGothic-Book-48"/>
      <use x="64.257812" xlink:href="#FranklinGothic-Book-6f"/>
      <use x="116.210938" xlink:href="#FranklinGothic-Book-75"/>
      <use x="170.361328" xlink:href="#FranklinGothic-Book-72"/>
      <use x="203.320312" xlink:href="#FranklinGothic-Book-20"/>
      <use x="228.320312" xlink:href="#FranklinGothic-Book-6f"/>
      <use x="280.273438" xlink:href="#FranklinGothic-Book-66"/>
      <use x="310.253906" xlink:href="#FranklinGothic-Book-20"/>
      <use x="335.253906" xlink:href="#FranklinGothic-Book-74"/>
      <use x="366.015625" xlink:href="#FranklinGothic-Book-68"/>
      <use x="420.019531" xlink:href="#FranklinGothic-Book-65"/>
      <use x="472.070312" xlink:href="#FranklinGothic-Book-20"/>
      <use x="497.070312" xlink:href="#FranklinGothic-Book-64"/>
      <use x="550.927734" xlink:href="#FranklinGothic-Book-61"/>
      <use x="601.558594" xlink:href="#FranklinGothic-Book-79"/>
     </g>
    </g>
   </g>
   <g id="matplotlib.axis_4">
    <g id="ytick_6">
     <g id="line2d_44">
      <path clip-path="url(#pbd30d7fc1d)" d="M 421.978864 234.67425 
L 726.3425 234.67425 
" style="fill:none;stroke:#b0b0b0;stroke-linecap:square;stroke-width:0.8;"/>
     </g>
     <g id="line2d_45">
      <g>
       <use style="stroke:#000000;stroke-width:0.8;" x="421.978864" xlink:href="#m6d4d09c3c0" y="234.67425"/>
      </g>
     </g>
     <g id="text_25">
      <!-- 0 -->
      <g transform="translate(407.941989 238.673625)scale(0.12 -0.12)">
       <use xlink:href="#FranklinGothic-Book-30"/>
      </g>
     </g>
    </g>
    <g id="ytick_7">
     <g id="line2d_46">
      <path clip-path="url(#pbd30d7fc1d)" d="M 421.978864 204.014774 
L 726.3425 204.014774 
" style="fill:none;stroke:#b0b0b0;stroke-linecap:square;stroke-width:0.8;"/>
     </g>
     <g id="line2d_47">
      <g>
       <use style="stroke:#000000;stroke-width:0.8;" x="421.978864" xlink:href="#m6d4d09c3c0" y="204.014774"/>
      </g>
     </g>
     <g id="text_26">
      <!-- 1000 -->
      <g transform="translate(387.221364 208.014149)scale(0.12 -0.12)">
       <use xlink:href="#FranklinGothic-Book-31"/>
       <use x="55.392578" xlink:href="#FranklinGothic-Book-30"/>
       <use x="114.035156" xlink:href="#FranklinGothic-Book-30"/>
       <use x="172.677734" xlink:href="#FranklinGothic-Book-30"/>
      </g>
     </g>
    </g>
    <g id="ytick_8">
     <g id="line2d_48">
      <path clip-path="url(#pbd30d7fc1d)" d="M 421.978864 173.355299 
L 726.3425 173.355299 
" style="fill:none;stroke:#b0b0b0;stroke-linecap:square;stroke-width:0.8;"/>
     </g>
     <g id="line2d_49">
      <g>
       <use style="stroke:#000000;stroke-width:0.8;" x="421.978864" xlink:href="#m6d4d09c3c0" y="173.355299"/>
      </g>
     </g>
     <g id="text_27">
      <!-- 2000 -->
      <g transform="translate(386.831364 177.354674)scale(0.12 -0.12)">
       <use xlink:href="#FranklinGothic-Book-32"/>
       <use x="58.642578" xlink:href="#FranklinGothic-Book-30"/>
       <use x="117.285156" xlink:href="#FranklinGothic-Book-30"/>
       <use x="175.927734" xlink:href="#FranklinGothic-Book-30"/>
      </g>
     </g>
    </g>
    <g id="ytick_9">
     <g id="line2d_50">
      <path clip-path="url(#pbd30d7fc1d)" d="M 421.978864 142.695823 
L 726.3425 142.695823 
" style="fill:none;stroke:#b0b0b0;stroke-linecap:square;stroke-width:0.8;"/>
     </g>
     <g id="line2d_51">
      <g>
       <use style="stroke:#000000;stroke-width:0.8;" x="421.978864" xlink:href="#m6d4d09c3c0" y="142.695823"/>
      </g>
     </g>
     <g id="text_28">
      <!-- 3000 -->
      <g transform="translate(386.831364 146.695198)scale(0.12 -0.12)">
       <defs>
        <path d="M 1238 2006 
L 1238 2431 
L 1725 2431 
Q 2259 2431 2489 2650 
Q 2719 2869 2719 3181 
Q 2719 3525 2462 3726 
Q 2206 3928 1819 3928 
Q 1100 3928 825 3234 
L 344 3372 
Q 756 4353 1869 4353 
Q 2494 4353 2878 4020 
Q 3263 3688 3263 3219 
Q 3263 2856 3031 2586 
Q 2800 2316 2438 2247 
Q 2844 2188 3136 1906 
Q 3428 1625 3428 1178 
Q 3428 644 2993 280 
Q 2559 -84 1803 -84 
Q 1203 -84 776 200 
Q 350 484 188 956 
L 684 1122 
Q 909 350 1794 350 
Q 2369 350 2620 595 
Q 2872 841 2872 1181 
Q 2872 1550 2570 1778 
Q 2269 2006 1725 2006 
L 1238 2006 
z
" id="FranklinGothic-Book-33" transform="scale(0.015625)"/>
       </defs>
       <use xlink:href="#FranklinGothic-Book-33"/>
       <use x="58.642578" xlink:href="#FranklinGothic-Book-30"/>
       <use x="117.285156" xlink:href="#FranklinGothic-Book-30"/>
       <use x="175.927734" xlink:href="#FranklinGothic-Book-30"/>
      </g>
     </g>
    </g>
    <g id="ytick_10">
     <g id="line2d_52">
      <path clip-path="url(#pbd30d7fc1d)" d="M 421.978864 112.036347 
L 726.3425 112.036347 
" style="fill:none;stroke:#b0b0b0;stroke-linecap:square;stroke-width:0.8;"/>
     </g>
     <g id="line2d_53">
      <g>
       <use style="stroke:#000000;stroke-width:0.8;" x="421.978864" xlink:href="#m6d4d09c3c0" y="112.036347"/>
      </g>
     </g>
     <g id="text_29">
      <!-- 4000 -->
      <g transform="translate(386.831364 116.035722)scale(0.12 -0.12)">
       <defs>
        <path d="M 2822 0 
L 2306 0 
L 2306 1016 
L 197 1016 
L 197 1375 
L 2153 4356 
L 2822 4356 
L 2822 1438 
L 3513 1438 
L 3513 1016 
L 2822 1016 
L 2822 0 
z
M 2306 1438 
L 2306 3456 
Q 2306 3675 2316 3928 
Q 2181 3681 2084 3528 
L 753 1438 
L 2306 1438 
z
" id="FranklinGothic-Book-34" transform="scale(0.015625)"/>
       </defs>
       <use xlink:href="#FranklinGothic-Book-34"/>
       <use x="58.642578" xlink:href="#FranklinGothic-Book-30"/>
       <use x="117.285156" xlink:href="#FranklinGothic-Book-30"/>
       <use x="175.927734" xlink:href="#FranklinGothic-Book-30"/>
      </g>
     </g>
    </g>
    <g id="ytick_11">
     <g id="line2d_54">
      <path clip-path="url(#pbd30d7fc1d)" d="M 421.978864 81.376871 
L 726.3425 81.376871 
" style="fill:none;stroke:#b0b0b0;stroke-linecap:square;stroke-width:0.8;"/>
     </g>
     <g id="line2d_55">
      <g>
       <use style="stroke:#000000;stroke-width:0.8;" x="421.978864" xlink:href="#m6d4d09c3c0" y="81.376871"/>
      </g>
     </g>
     <g id="text_30">
      <!-- 5000 -->
      <g transform="translate(386.831364 85.376246)scale(0.12 -0.12)">
       <use xlink:href="#FranklinGothic-Book-35"/>
       <use x="58.642578" xlink:href="#FranklinGothic-Book-30"/>
       <use x="117.285156" xlink:href="#FranklinGothic-Book-30"/>
       <use x="175.927734" xlink:href="#FranklinGothic-Book-30"/>
      </g>
     </g>
    </g>
    <g id="ytick_12">
     <g id="line2d_56">
      <path clip-path="url(#pbd30d7fc1d)" d="M 421.978864 50.717396 
L 726.3425 50.717396 
" style="fill:none;stroke:#b0b0b0;stroke-linecap:square;stroke-width:0.8;"/>
     </g>
     <g id="line2d_57">
      <g>
       <use style="stroke:#000000;stroke-width:0.8;" x="421.978864" xlink:href="#m6d4d09c3c0" y="50.717396"/>
      </g>
     </g>
     <g id="text_31">
      <!-- 6000 -->
      <g transform="translate(386.831364 54.716771)scale(0.12 -0.12)">
       <defs>
        <path d="M 3428 3394 
L 2947 3263 
Q 2700 3913 2047 3913 
Q 847 3913 819 1928 
Q 1009 2369 1359 2581 
Q 1709 2794 2100 2794 
Q 2694 2794 3095 2380 
Q 3497 1966 3497 1388 
Q 3497 788 3070 352 
Q 2644 -84 1978 -84 
Q 1222 -84 773 486 
Q 325 1056 325 2038 
Q 325 2997 748 3675 
Q 1172 4353 2059 4353 
Q 3081 4353 3428 3394 
z
M 1969 344 
Q 2422 344 2711 642 
Q 3000 941 3000 1359 
Q 3000 1772 2717 2067 
Q 2434 2363 2016 2363 
Q 1584 2363 1262 2053 
Q 941 1744 941 1328 
Q 941 944 1228 644 
Q 1516 344 1969 344 
z
" id="FranklinGothic-Book-36" transform="scale(0.015625)"/>
       </defs>
       <use xlink:href="#FranklinGothic-Book-36"/>
       <use x="58.642578" xlink:href="#FranklinGothic-Book-30"/>
       <use x="117.285156" xlink:href="#FranklinGothic-Book-30"/>
       <use x="175.927734" xlink:href="#FranklinGothic-Book-30"/>
      </g>
     </g>
    </g>
    <g id="text_32">
     <!-- Charging power (kW) -->
     <g transform="translate(380.598239 185.9355)rotate(-90)scale(0.12 -0.12)">
      <use xlink:href="#FranklinGothic-Book-43"/>
      <use x="57.910156" xlink:href="#FranklinGothic-Book-68"/>
      <use x="111.914062" xlink:href="#FranklinGothic-Book-61"/>
      <use x="164.794922" xlink:href="#FranklinGothic-Book-72"/>
      <use x="197.753906" xlink:href="#FranklinGothic-Book-67"/>
      <use x="246.875" xlink:href="#FranklinGothic-Book-69"/>
      <use x="269.824219" xlink:href="#FranklinGothic-Book-6e"/>
      <use x="324.023438" xlink:href="#FranklinGothic-Book-67"/>
      <use x="373.144531" xlink:href="#FranklinGothic-Book-20"/>
      <use x="398.144531" xlink:href="#FranklinGothic-Book-70"/>
      <use x="451.5625" xlink:href="#FranklinGothic-Book-6f"/>
      <use x="502.140625" xlink:href="#FranklinGothic-Book-77"/>
      <use x="567.171875" xlink:href="#FranklinGothic-Book-65"/>
      <use x="619.222656" xlink:href="#FranklinGothic-Book-72"/>
      <use x="652.181641" xlink:href="#FranklinGothic-Book-20"/>
      <use x="677.181641" xlink:href="#FranklinGothic-Book-28"/>
      <use x="706.527344" xlink:href="#FranklinGothic-Book-6b"/>
      <use x="756.625" xlink:href="#FranklinGothic-Book-57"/>
      <use x="838.363281" xlink:href="#FranklinGothic-Book-29"/>
     </g>
    </g>
   </g>
   <g id="LineCollection_2">
    <path clip-path="url(#pbd30d7fc1d)" d="M 391.5425 33.07425 
L 734.5425 33.07425 
" style="fill:none;stroke:#f4acb7;stroke-dasharray:11.1,4.8;stroke-dashoffset:0;stroke-opacity:0.9;stroke-width:3;"/>
   </g>
   <g id="line2d_58">
    <path clip-path="url(#pbd30d7fc1d)" d="M 391.5425 234.67425 
L 431.109773 234.67425 
L 431.109773 234.322577 
L 434.153409 234.322577 
L 434.153409 232.703934 
L 440.240682 232.725888 
L 440.240682 232.910409 
L 443.284318 232.910409 
L 443.284318 233.052909 
L 446.327955 233.052909 
L 446.327955 230.979158 
L 449.371591 230.979158 
L 449.371591 231.224148 
L 452.415227 231.224148 
L 452.415227 227.385121 
L 455.458864 227.385121 
L 455.458864 229.425038 
L 458.5025 229.425038 
L 458.5025 221.957094 
L 461.546136 221.957094 
L 461.546136 225.123758 
L 464.589773 225.123758 
L 464.589773 211.594037 
L 467.633409 211.594037 
L 467.633409 214.339312 
L 470.677045 214.339312 
L 470.677045 167.77156 
L 473.720682 167.77156 
L 473.720682 171.174036 
L 476.764318 171.174036 
L 476.764318 109.249048 
L 479.807955 109.249048 
L 479.807955 79.633352 
L 482.851591 79.633352 
L 482.851591 36.47396 
L 485.895227 36.47396 
L 485.895227 64.245739 
L 488.938864 64.245739 
L 488.938864 36.215847 
L 491.9825 36.215847 
L 491.9825 39.359933 
L 495.026136 39.359933 
L 495.026136 34.026297 
L 498.069773 34.026297 
L 498.069773 54.910876 
L 501.113409 54.910876 
L 501.113409 35.417331 
L 504.157045 35.417331 
L 504.157045 36.449995 
L 507.200682 36.449995 
L 507.200682 33.908684 
L 510.244318 33.908684 
L 510.244318 50.377558 
L 513.287955 50.377558 
L 513.287955 35.025923 
L 516.331591 35.025923 
L 516.331591 35.508643 
L 519.375227 35.508643 
L 519.375227 33.607893 
L 522.418864 33.607893 
L 522.418864 60.985876 
L 525.4625 60.985876 
L 525.4625 35.493397 
L 528.506136 35.493397 
L 528.506136 34.803182 
L 531.549773 34.803182 
L 531.549773 33.720082 
L 534.593409 33.720082 
L 534.593409 61.820516 
L 537.637045 61.820516 
L 537.637045 36.199327 
L 540.680682 36.199327 
L 540.680682 34.080946 
L 543.724318 34.080946 
L 543.724318 33.638972 
L 546.767955 33.638972 
L 546.767955 60.219564 
L 549.811591 60.219564 
L 549.811591 35.659187 
L 552.855227 35.659187 
L 552.855227 35.980436 
L 555.898864 35.980436 
L 555.898864 33.805777 
L 558.9425 33.805777 
L 558.9425 67.377094 
L 561.986136 67.377094 
L 561.986136 46.842126 
L 565.029773 46.842126 
L 565.029773 35.833633 
L 568.073409 35.833633 
L 568.073409 34.724531 
L 571.117045 34.724531 
L 571.117045 85.826229 
L 574.160682 85.826229 
L 574.160682 36.653466 
L 577.204318 36.653466 
L 577.204318 35.996083 
L 580.247955 35.996083 
L 580.247955 34.055084 
L 583.291591 34.055084 
L 583.291591 59.04422 
L 586.335227 59.04422 
L 586.335227 36.351123 
L 589.378864 36.351123 
L 589.378864 34.573942 
L 592.4225 34.573942 
L 592.4225 33.583353 
L 595.466136 33.583353 
L 595.466136 58.079747 
L 598.509773 58.079747 
L 598.509773 35.290034 
L 601.553409 35.290034 
L 601.553409 36.06625 
L 604.597045 36.06625 
L 604.597045 33.615658 
L 607.640682 33.615658 
L 607.640682 57.108207 
L 610.684318 57.108207 
L 610.684318 35.37433 
L 613.727955 35.37433 
L 613.727955 34.552653 
L 616.771591 34.552653 
L 616.771591 33.838419 
L 619.815227 33.838419 
L 619.815227 66.833036 
L 622.858864 66.833036 
L 622.858864 36.4376 
L 625.9025 36.4376 
L 625.9025 34.457921 
L 628.946136 34.457921 
L 628.946136 34.183207 
L 631.989773 34.183207 
L 631.989773 65.77284 
L 635.033409 65.77284 
L 635.033409 41.241835 
L 638.077045 41.241835 
L 638.077045 35.330598 
L 641.120682 35.330598 
L 641.120682 34.809539 
L 644.164318 34.809539 
L 644.164318 71.454596 
L 647.207955 71.454596 
L 647.207955 74.299062 
L 650.251591 74.299062 
L 650.251591 85.140298 
L 653.295227 85.140298 
L 653.295227 34.589604 
L 656.338864 34.589604 
L 656.338864 63.385705 
L 659.3825 63.385705 
L 659.3825 78.476632 
L 662.426136 78.476632 
L 662.426136 98.515881 
L 665.469773 98.515881 
L 665.469773 47.404355 
L 668.513409 47.404355 
L 668.513409 108.281076 
L 671.557045 108.281076 
L 671.557045 130.4272 
L 674.600682 130.4272 
L 674.600682 163.546402 
L 677.644318 163.546402 
L 677.644318 151.027775 
L 680.687955 151.027775 
L 680.687955 173.484092 
L 683.731591 173.484092 
L 683.731591 191.214512 
L 686.775227 191.214512 
L 686.775227 202.39393 
L 689.818864 202.39393 
L 689.818864 211.137582 
L 692.8625 211.137582 
L 692.8625 216.868451 
L 695.906136 216.868451 
L 695.906136 218.757727 
L 698.949773 218.757727 
L 698.949773 222.768061 
L 701.993409 222.768061 
L 701.993409 225.948388 
L 705.037045 225.948388 
L 705.037045 228.270932 
L 708.080682 228.270932 
L 708.080682 230.380469 
L 711.124318 230.380469 
L 711.124318 231.779123 
L 714.167955 231.779123 
L 714.167955 232.759079 
L 717.211591 232.759079 
L 717.211591 233.365822 
L 720.255227 233.365822 
L 720.255227 233.789975 
L 723.298864 233.789975 
L 723.298864 234.077301 
L 726.3425 234.077301 
L 726.3425 234.283521 
L 729.386136 234.283521 
L 729.386136 234.42424 
L 732.429773 234.42424 
L 732.429773 234.543346 
L 734.5425 234.543346 
L 734.5425 234.543346 
" style="fill:none;stroke:#118ab2;stroke-linecap:square;stroke-opacity:0.7;stroke-width:2;"/>
   </g>
   <g id="line2d_59">
    <path clip-path="url(#pbd30d7fc1d)" d="M 391.5425 234.67425 
L 431.109773 234.67425 
L 431.109773 234.398338 
L 434.153409 234.398338 
L 434.153409 232.917708 
L 440.240682 232.982025 
L 440.240682 233.20052 
L 446.327955 233.184855 
L 446.327955 231.28953 
L 449.371591 231.28953 
L 449.371591 231.629738 
L 452.415227 231.629738 
L 452.415227 228.921514 
L 455.458864 228.921514 
L 455.458864 230.485127 
L 458.5025 230.485127 
L 458.5025 224.976684 
L 461.546136 224.976684 
L 461.546136 227.444665 
L 464.589773 227.444665 
L 464.589773 217.552557 
L 467.633409 217.552557 
L 467.633409 219.142615 
L 470.677045 219.142615 
L 470.677045 187.992603 
L 473.720682 187.992603 
L 473.720682 189.708438 
L 476.764318 189.708438 
L 476.764318 145.708229 
L 479.807955 145.708229 
L 479.807955 135.774263 
L 482.851591 135.774263 
L 482.851591 50.850152 
L 485.895227 50.850152 
L 485.895227 94.907421 
L 488.938864 94.907421 
L 488.938864 39.038472 
L 491.9825 39.038472 
L 491.9825 38.515414 
L 495.026136 38.515414 
L 495.026136 34.058813 
L 498.069773 34.058813 
L 498.069773 73.701552 
L 501.113409 73.701552 
L 501.113409 35.286155 
L 504.157045 35.286155 
L 504.157045 35.45229 
L 507.200682 35.45229 
L 507.200682 33.746796 
L 510.244318 33.746796 
L 510.244318 69.854711 
L 513.287955 69.854711 
L 513.287955 34.778678 
L 519.375227 34.702459 
L 519.375227 33.439111 
L 522.418864 33.439111 
L 522.418864 79.403647 
L 525.4625 79.403647 
L 525.4625 36.708983 
L 528.506136 36.708983 
L 528.506136 34.134664 
L 531.549773 34.134664 
L 531.549773 33.504192 
L 534.593409 33.504192 
L 534.593409 78.413227 
L 537.637045 78.413227 
L 537.637045 42.432503 
L 540.680682 42.432503 
L 540.680682 34.406777 
L 543.724318 34.406777 
L 543.724318 33.361386 
L 546.767955 33.361386 
L 546.767955 77.069792 
L 549.811591 77.069792 
L 549.811591 51.291675 
L 552.855227 51.291675 
L 552.855227 41.727477 
L 555.898864 41.727477 
L 555.898864 33.453897 
L 558.9425 33.453897 
L 558.9425 85.63864 
L 561.986136 85.63864 
L 561.986136 76.975183 
L 565.029773 76.975183 
L 565.029773 50.503208 
L 568.073409 50.503208 
L 568.073409 38.656066 
L 571.117045 38.656066 
L 571.117045 104.953682 
L 574.160682 104.953682 
L 574.160682 55.424797 
L 577.204318 55.424797 
L 577.204318 62.73594 
L 580.247955 62.73594 
L 580.247955 34.760071 
L 583.291591 34.760071 
L 583.291591 80.90467 
L 586.335227 80.90467 
L 586.335227 50.523602 
L 589.378864 50.523602 
L 589.378864 40.206306 
L 592.4225 40.206306 
L 592.4225 33.633284 
L 595.466136 33.633284 
L 595.466136 80.994887 
L 598.509773 80.994887 
L 598.509773 46.97843 
L 601.553409 46.97843 
L 601.553409 40.276869 
L 604.597045 40.276869 
L 604.597045 33.406852 
L 607.640682 33.406852 
L 607.640682 74.21336 
L 610.684318 74.21336 
L 610.684318 38.769371 
L 613.727955 38.769371 
L 613.727955 34.384919 
L 616.771591 34.384919 
L 616.771591 33.619607 
L 619.815227 33.619607 
L 619.815227 81.192805 
L 622.858864 81.192805 
L 622.858864 43.66468 
L 625.9025 43.66468 
L 625.9025 38.219136 
L 628.946136 38.219136 
L 628.946136 34.394353 
L 631.989773 34.394353 
L 631.989773 85.336442 
L 635.033409 85.336442 
L 635.033409 65.351195 
L 638.077045 65.351195 
L 638.077045 47.529023 
L 641.120682 47.529023 
L 641.120682 35.659996 
L 644.164318 35.659996 
L 644.164318 91.782568 
L 647.207955 91.782568 
L 647.207955 101.950126 
L 650.251591 101.950126 
L 650.251591 120.465139 
L 653.295227 120.465139 
L 653.295227 34.999208 
L 656.338864 34.999208 
L 656.338864 79.907863 
L 659.3825 79.907863 
L 659.3825 102.243382 
L 662.426136 102.243382 
L 662.426136 128.920314 
L 665.469773 128.920314 
L 665.469773 137.924716 
L 668.513409 137.924716 
L 668.513409 163.348382 
L 671.557045 163.348382 
L 671.557045 173.382358 
L 674.600682 173.382358 
L 674.600682 190.942496 
L 677.644318 190.942496 
L 677.644318 188.853391 
L 680.687955 188.853391 
L 680.687955 197.923762 
L 683.731591 197.923762 
L 683.731591 206.629687 
L 686.775227 206.629687 
L 686.775227 213.328008 
L 689.818864 213.328008 
L 689.818864 219.038794 
L 692.8625 219.038794 
L 692.8625 222.774258 
L 695.906136 222.774258 
L 695.906136 223.623077 
L 698.949773 223.623077 
L 698.949773 226.503016 
L 701.993409 226.503016 
L 701.993409 228.717798 
L 705.037045 228.717798 
L 705.037045 230.353975 
L 708.080682 230.353975 
L 708.080682 231.78646 
L 711.124318 231.78646 
L 711.124318 232.74304 
L 714.167955 232.74304 
L 714.167955 233.405372 
L 717.211591 233.405372 
L 717.211591 233.823799 
L 720.255227 233.823799 
L 720.255227 234.109715 
L 723.298864 234.109715 
L 723.298864 234.29813 
L 726.3425 234.29813 
L 726.3425 234.43012 
L 732.429773 234.517133 
L 732.429773 234.595885 
L 734.5425 234.595885 
L 734.5425 234.595885 
" style="fill:none;stroke:#06d6a0;stroke-linecap:square;stroke-opacity:0.7;stroke-width:2;"/>
   </g>
   <g id="line2d_60">
    <path clip-path="url(#pbd30d7fc1d)" d="M 391.5425 234.67425 
L 431.109773 234.67425 
L 431.109773 234.344263 
L 434.153409 234.344263 
L 434.153409 233.92828 
L 437.197045 233.92828 
L 437.197045 234.062027 
L 440.240682 234.062027 
L 440.240682 233.250523 
L 443.284318 233.250523 
L 443.284318 233.828017 
L 446.327955 233.828017 
L 446.327955 232.062718 
L 449.371591 232.062718 
L 449.371591 232.585562 
L 452.415227 232.585562 
L 452.415227 227.507266 
L 455.458864 227.507266 
L 455.458864 229.368638 
L 458.5025 229.368638 
L 458.5025 219.838788 
L 461.546136 219.838788 
L 461.546136 220.628808 
L 464.589773 220.628808 
L 464.589773 206.484744 
L 467.633409 206.484744 
L 467.633409 210.494873 
L 470.677045 210.494873 
L 470.677045 183.471491 
L 473.720682 183.471491 
L 473.720682 193.316165 
L 476.764318 193.316165 
L 476.764318 148.92482 
L 479.807955 148.92482 
L 479.807955 131.893918 
L 482.851591 131.893918 
L 482.851591 63.821063 
L 485.895227 63.821063 
L 485.895227 109.871742 
L 488.938864 109.871742 
L 488.938864 40.532907 
L 491.9825 40.532907 
L 491.9825 38.895534 
L 495.026136 38.895534 
L 495.026136 34.739779 
L 498.069773 34.739779 
L 498.069773 75.693799 
L 501.113409 75.693799 
L 501.113409 35.192773 
L 504.157045 35.192773 
L 504.157045 35.047773 
L 507.200682 35.047773 
L 507.200682 34.523978 
L 510.244318 34.523978 
L 510.244318 82.492725 
L 513.287955 82.492725 
L 513.287955 35.495617 
L 516.331591 35.495617 
L 516.331591 34.113587 
L 519.375227 34.113587 
L 519.375227 33.658038 
L 522.418864 33.658038 
L 522.418864 71.391292 
L 525.4625 71.391292 
L 525.4625 34.384769 
L 528.506136 34.384769 
L 528.506136 35.754293 
L 531.549773 35.754293 
L 531.549773 34.967801 
L 534.593409 34.967801 
L 534.593409 88.174188 
L 537.637045 88.174188 
L 537.637045 35.678631 
L 540.680682 35.678631 
L 540.680682 36.180546 
L 543.724318 36.180546 
L 543.724318 34.564962 
L 546.767955 34.564962 
L 546.767955 88.361108 
L 549.811591 88.361108 
L 549.811591 38.023064 
L 552.855227 38.023064 
L 552.855227 36.015485 
L 555.898864 36.015485 
L 555.898864 35.170549 
L 558.9425 35.170549 
L 558.9425 89.519488 
L 561.986136 89.519488 
L 561.986136 43.193027 
L 565.029773 43.193027 
L 565.029773 48.6424 
L 568.073409 48.6424 
L 568.073409 39.625409 
L 571.117045 39.625409 
L 571.117045 97.849223 
L 574.160682 97.849223 
L 574.160682 40.299101 
L 577.204318 40.299101 
L 577.204318 62.351219 
L 580.247955 62.351219 
L 580.247955 36.042877 
L 583.291591 36.042877 
L 583.291591 98.364815 
L 586.335227 98.364815 
L 586.335227 43.209681 
L 589.378864 43.209681 
L 589.378864 45.602237 
L 592.4225 45.602237 
L 592.4225 36.608343 
L 595.466136 36.608343 
L 595.466136 94.082325 
L 598.509773 94.082325 
L 598.509773 38.058533 
L 601.553409 38.058533 
L 601.553409 39.396822 
L 604.597045 39.396822 
L 604.597045 34.391533 
L 607.640682 34.391533 
L 607.640682 89.905037 
L 610.684318 89.905037 
L 610.684318 46.47955 
L 613.727955 46.47955 
L 613.727955 37.570333 
L 616.771591 37.570333 
L 616.771591 37.417829 
L 619.815227 37.417829 
L 619.815227 94.559017 
L 622.858864 94.559017 
L 622.858864 46.040147 
L 625.9025 46.040147 
L 625.9025 40.65266 
L 628.946136 40.65266 
L 628.946136 39.528545 
L 631.989773 39.528545 
L 631.989773 88.183378 
L 635.033409 88.183378 
L 635.033409 68.939733 
L 638.077045 68.939733 
L 638.077045 61.045564 
L 641.120682 61.045564 
L 641.120682 61.5322 
L 644.164318 61.5322 
L 644.164318 112.889739 
L 647.207955 112.889739 
L 647.207955 103.948006 
L 650.251591 103.948006 
L 650.251591 108.317619 
L 653.295227 108.317619 
L 653.295227 97.171724 
L 656.338864 97.171724 
L 656.338864 139.726019 
L 659.3825 139.726019 
L 659.3825 146.335193 
L 662.426136 146.335193 
L 662.426136 165.23567 
L 665.469773 165.23567 
L 665.469773 175.363805 
L 668.513409 175.363805 
L 668.513409 188.811532 
L 671.557045 188.811532 
L 671.557045 193.205497 
L 674.600682 193.205497 
L 674.600682 200.555631 
L 677.644318 200.555631 
L 677.644318 204.445445 
L 680.687955 204.445445 
L 680.687955 212.032642 
L 683.731591 212.032642 
L 683.731591 213.411259 
L 686.775227 213.411259 
L 686.775227 217.778499 
L 689.818864 217.778499 
L 689.818864 218.988651 
L 692.8625 218.988651 
L 692.8625 223.189412 
L 695.906136 223.189412 
L 695.906136 224.979351 
L 698.949773 224.979351 
L 698.949773 227.593382 
L 701.993409 227.593382 
L 701.993409 229.558322 
L 705.037045 229.558322 
L 705.037045 230.974248 
L 708.080682 230.974248 
L 708.080682 232.214629 
L 711.124318 232.214629 
L 711.124318 233.018103 
L 714.167955 233.018103 
L 714.167955 233.62427 
L 717.211591 233.62427 
L 717.211591 233.978132 
L 720.255227 233.978132 
L 720.255227 234.28868 
L 723.298864 234.28868 
L 723.298864 234.460461 
L 729.386136 234.559662 
L 729.386136 234.597269 
L 734.5425 234.623646 
L 734.5425 234.623646 
" style="fill:none;stroke:#ffd166;stroke-linecap:square;stroke-opacity:0.7;stroke-width:2;"/>
   </g>
   <g id="line2d_61">
    <path clip-path="url(#pbd30d7fc1d)" d="M 391.5425 234.67425 
L 431.109773 234.67425 
L 431.109773 234.376015 
L 434.153409 234.376015 
L 434.153409 234.062888 
L 440.240682 234.169246 
L 440.240682 233.569343 
L 443.284318 233.569343 
L 443.284318 234.012749 
L 446.327955 234.012749 
L 446.327955 232.460926 
L 449.371591 232.460926 
L 449.371591 232.905156 
L 452.415227 232.905156 
L 452.415227 229.220637 
L 455.458864 229.220637 
L 455.458864 230.164598 
L 458.5025 230.164598 
L 458.5025 223.44929 
L 461.546136 223.44929 
L 461.546136 224.291785 
L 464.589773 224.291785 
L 464.589773 213.320064 
L 467.633409 213.320064 
L 467.633409 216.410954 
L 470.677045 216.410954 
L 470.677045 197.178236 
L 473.720682 197.178236 
L 473.720682 205.020238 
L 476.764318 205.020238 
L 476.764318 175.388943 
L 479.807955 175.388943 
L 479.807955 172.362097 
L 482.851591 172.362097 
L 482.851591 114.628484 
L 485.895227 114.628484 
L 485.895227 146.508755 
L 488.938864 146.508755 
L 488.938864 60.304736 
L 491.9825 60.304736 
L 491.9825 63.725623 
L 495.026136 63.725623 
L 495.026136 45.632216 
L 498.069773 45.632216 
L 498.069773 110.783779 
L 501.113409 110.783779 
L 501.113409 42.646981 
L 504.157045 42.646981 
L 504.157045 45.086598 
L 507.200682 45.086598 
L 507.200682 46.047658 
L 510.244318 46.047658 
L 510.244318 112.002097 
L 513.287955 112.002097 
L 513.287955 50.948881 
L 516.331591 50.948881 
L 516.331591 35.566799 
L 519.375227 35.566799 
L 519.375227 35.139161 
L 522.418864 35.139161 
L 522.418864 95.328278 
L 525.4625 95.328278 
L 525.4625 45.51973 
L 528.506136 45.51973 
L 528.506136 66.775483 
L 531.549773 66.775483 
L 531.549773 64.671239 
L 534.593409 64.671239 
L 534.593409 121.906883 
L 537.637045 121.906883 
L 537.637045 63.454481 
L 540.680682 63.454481 
L 540.680682 69.657309 
L 543.724318 69.657309 
L 543.724318 63.404886 
L 546.767955 63.404886 
L 546.767955 122.756114 
L 549.811591 122.756114 
L 549.811591 76.392967 
L 552.855227 76.392967 
L 552.855227 77.011454 
L 555.898864 77.011454 
L 555.898864 57.738058 
L 558.9425 57.738058 
L 558.9425 116.556743 
L 561.986136 116.556743 
L 561.986136 79.42459 
L 565.029773 79.42459 
L 565.029773 96.439742 
L 568.073409 96.439742 
L 568.073409 86.979402 
L 571.117045 86.979402 
L 571.117045 132.612943 
L 574.160682 132.612943 
L 574.160682 85.452361 
L 577.204318 85.452361 
L 577.204318 107.453872 
L 580.247955 107.453872 
L 580.247955 78.460324 
L 583.291591 78.460324 
L 583.291591 133.136944 
L 586.335227 133.136944 
L 586.335227 88.492117 
L 589.378864 88.492117 
L 589.378864 99.568846 
L 592.4225 99.568846 
L 592.4225 74.685782 
L 595.466136 74.685782 
L 595.466136 125.356555 
L 598.509773 125.356555 
L 598.509773 74.815845 
L 601.553409 74.815845 
L 601.553409 76.746067 
L 604.597045 76.746067 
L 604.597045 54.59847 
L 607.640682 54.59847 
L 607.640682 121.976309 
L 610.684318 121.976309 
L 610.684318 90.318442 
L 613.727955 90.318442 
L 613.727955 85.136334 
L 616.771591 85.136334 
L 616.771591 83.139415 
L 619.815227 83.139415 
L 619.815227 133.101568 
L 622.858864 133.101568 
L 622.858864 89.885344 
L 625.9025 89.885344 
L 625.9025 86.348856 
L 628.946136 86.348856 
L 628.946136 82.64085 
L 631.989773 82.64085 
L 631.989773 123.920522 
L 635.033409 123.920522 
L 635.033409 105.417558 
L 638.077045 105.417558 
L 638.077045 103.099086 
L 641.120682 103.099086 
L 641.120682 102.250741 
L 644.164318 102.250741 
L 644.164318 144.860539 
L 647.207955 144.860539 
L 647.207955 137.30806 
L 650.251591 137.30806 
L 650.251591 148.620432 
L 656.338864 148.730196 
L 656.338864 173.511095 
L 659.3825 173.511095 
L 659.3825 173.288617 
L 662.426136 173.288617 
L 662.426136 185.173507 
L 665.469773 185.173507 
L 665.469773 191.706687 
L 668.513409 191.706687 
L 668.513409 201.652696 
L 671.557045 201.652696 
L 671.557045 203.493374 
L 674.600682 203.493374 
L 674.600682 209.286128 
L 677.644318 209.286128 
L 677.644318 212.366549 
L 680.687955 212.366549 
L 680.687955 218.387591 
L 683.731591 218.387591 
L 683.731591 218.838186 
L 686.775227 218.838186 
L 686.775227 222.373769 
L 689.818864 222.373769 
L 689.818864 223.330906 
L 692.8625 223.330906 
L 692.8625 226.651743 
L 695.906136 226.651743 
L 695.906136 227.863942 
L 698.949773 227.863942 
L 698.949773 229.847774 
L 701.993409 229.847774 
L 701.993409 231.282164 
L 705.037045 231.282164 
L 705.037045 232.279554 
L 708.080682 232.279554 
L 708.080682 233.113415 
L 711.124318 233.113415 
L 711.124318 233.641549 
L 714.167955 233.641549 
L 714.167955 234.0265 
L 717.211591 234.0265 
L 717.211591 234.250543 
L 720.255227 234.250543 
L 720.255227 234.444308 
L 726.3425 234.549961 
L 726.3425 234.608944 
L 734.5425 234.64653 
L 734.5425 234.64653 
" style="fill:none;stroke:#ef476f;stroke-linecap:square;stroke-opacity:0.7;stroke-width:2;"/>
   </g>
   <g id="patch_9">
    <path d="M 421.978864 244.75425 
L 421.978864 22.99425 
" style="fill:none;stroke:#000000;stroke-linecap:square;stroke-linejoin:miter;stroke-width:0.8;"/>
   </g>
   <g id="patch_10">
    <path d="M 726.3425 244.75425 
L 726.3425 22.99425 
" style="fill:none;stroke:#000000;stroke-linecap:square;stroke-linejoin:miter;stroke-width:0.8;"/>
   </g>
   <g id="patch_11">
    <path d="M 421.978864 244.75425 
L 726.3425 244.75425 
" style="fill:none;stroke:#000000;stroke-linecap:square;stroke-linejoin:miter;stroke-width:0.8;"/>
   </g>
   <g id="patch_12">
    <path d="M 421.978864 22.99425 
L 726.3425 22.99425 
" style="fill:none;stroke:#000000;stroke-linecap:square;stroke-linejoin:miter;stroke-width:0.8;"/>
   </g>
   <g id="text_33">
    <!-- High utility factor -->
    <g transform="translate(523.100307 16.99425)scale(0.144 -0.144)">
     <use xlink:href="#FranklinGothic-Book-48"/>
     <use x="64.257812" xlink:href="#FranklinGothic-Book-69"/>
     <use x="87.207031" xlink:href="#FranklinGothic-Book-67"/>
     <use x="136.328125" xlink:href="#FranklinGothic-Book-68"/>
     <use x="190.332031" xlink:href="#FranklinGothic-Book-20"/>
     <use x="215.332031" xlink:href="#FranklinGothic-Book-75"/>
     <use x="269.482422" xlink:href="#FranklinGothic-Book-74"/>
     <use x="300.244141" xlink:href="#FranklinGothic-Book-69"/>
     <use x="323.193359" xlink:href="#FranklinGothic-Book-6c"/>
     <use x="346.191406" xlink:href="#FranklinGothic-Book-69"/>
     <use x="369.140625" xlink:href="#FranklinGothic-Book-74"/>
     <use x="399.902344" xlink:href="#FranklinGothic-Book-79"/>
     <use x="441.40625" xlink:href="#FranklinGothic-Book-20"/>
     <use x="466.40625" xlink:href="#FranklinGothic-Book-66"/>
     <use x="495.511719" xlink:href="#FranklinGothic-Book-61"/>
     <use x="548.392578" xlink:href="#FranklinGothic-Book-63"/>
     <use x="594.974609" xlink:href="#FranklinGothic-Book-74"/>
     <use x="624.236328" xlink:href="#FranklinGothic-Book-6f"/>
     <use x="676.189453" xlink:href="#FranklinGothic-Book-72"/>
    </g>
   </g>
  </g>
 </g>
 <defs>
  <clipPath id="p42427bf98b">
   <rect height="221.76" width="304.363636" x="56.7425" y="22.99425"/>
  </clipPath>
  <clipPath id="pbd30d7fc1d">
   <rect height="221.76" width="304.363636" x="421.978864" y="22.99425"/>
  </clipPath>
 </defs>
</svg>
