<?xml version="1.0" encoding="utf-8" standalone="no"?>
<!DOCTYPE svg PUBLIC "-//W3C//DTD SVG 1.1//EN"
  "http://www.w3.org/Graphics/SVG/1.1/DTD/svg11.dtd">
<svg height="334.594063pt" version="1.1" viewBox="0 0 329.98125 334.594063" width="329.98125pt" xmlns="http://www.w3.org/2000/svg" xmlns:xlink="http://www.w3.org/1999/xlink">
 <metadata>
  <rdf:RDF xmlns:cc="http://creativecommons.org/ns#" xmlns:dc="http://purl.org/dc/elements/1.1/" xmlns:rdf="http://www.w3.org/1999/02/22-rdf-syntax-ns#">
   <cc:Work>
    <dc:type rdf:resource="http://purl.org/dc/dcmitype/StillImage"/>
    <dc:date>2022-10-21T14:19:50.129516</dc:date>
    <dc:format>image/svg+xml</dc:format>
    <dc:creator>
     <cc:Agent>
      <dc:title>Matplotlib v3.4.3, https://matplotlib.org/</dc:title>
     </cc:Agent>
    </dc:creator>
   </cc:Work>
  </rdf:RDF>
 </metadata>
 <defs>
  <style type="text/css">*{stroke-linecap:butt;stroke-linejoin:round;}</style>
 </defs>
 <g id="figure_1">
  <g id="patch_1">
   <path d="M 0 334.594063 
L 329.98125 334.594063 
L 329.98125 0 
L 0 0 
z
" style="fill:#ffffff;"/>
  </g>
  <g id="axes_1">
   <g id="patch_2">
    <path d="M 43.78125 299.518125 
L 322.78125 299.518125 
L 322.78125 22.318125 
L 43.78125 22.318125 
z
" style="fill:#ffffff;"/>
   </g>
   <g id="matplotlib.axis_1">
    <g id="xtick_1">
     <g id="line2d_1">
      <path clip-path="url(#p4c56ec1412)" d="M 78.65625 299.518125 
L 78.65625 22.318125 
" style="fill:none;stroke:#b0b0b0;stroke-linecap:square;stroke-width:0.8;"/>
     </g>
     <g id="line2d_2">
      <defs>
       <path d="M 0 0 
L 0 3.5 
" id="mf9de4cb58f" style="stroke:#000000;stroke-width:0.8;"/>
      </defs>
      <g>
       <use style="stroke:#000000;stroke-width:0.8;" x="78.65625" xlink:href="#mf9de4cb58f" y="299.518125"/>
      </g>
     </g>
     <g id="text_1">
      <!-- Workday -->
      <g transform="translate(56.798437 314.116563)scale(0.1 -0.1)">
       <defs>
        <path d="M 213 4666 
L 850 4666 
L 1831 722 
L 2809 4666 
L 3519 4666 
L 4500 722 
L 5478 4666 
L 6119 4666 
L 4947 0 
L 4153 0 
L 3169 4050 
L 2175 0 
L 1381 0 
L 213 4666 
z
" id="DejaVuSans-57" transform="scale(0.015625)"/>
        <path d="M 1959 3097 
Q 1497 3097 1228 2736 
Q 959 2375 959 1747 
Q 959 1119 1226 758 
Q 1494 397 1959 397 
Q 2419 397 2687 759 
Q 2956 1122 2956 1747 
Q 2956 2369 2687 2733 
Q 2419 3097 1959 3097 
z
M 1959 3584 
Q 2709 3584 3137 3096 
Q 3566 2609 3566 1747 
Q 3566 888 3137 398 
Q 2709 -91 1959 -91 
Q 1206 -91 779 398 
Q 353 888 353 1747 
Q 353 2609 779 3096 
Q 1206 3584 1959 3584 
z
" id="DejaVuSans-6f" transform="scale(0.015625)"/>
        <path d="M 2631 2963 
Q 2534 3019 2420 3045 
Q 2306 3072 2169 3072 
Q 1681 3072 1420 2755 
Q 1159 2438 1159 1844 
L 1159 0 
L 581 0 
L 581 3500 
L 1159 3500 
L 1159 2956 
Q 1341 3275 1631 3429 
Q 1922 3584 2338 3584 
Q 2397 3584 2469 3576 
Q 2541 3569 2628 3553 
L 2631 2963 
z
" id="DejaVuSans-72" transform="scale(0.015625)"/>
        <path d="M 581 4863 
L 1159 4863 
L 1159 1991 
L 2875 3500 
L 3609 3500 
L 1753 1863 
L 3688 0 
L 2938 0 
L 1159 1709 
L 1159 0 
L 581 0 
L 581 4863 
z
" id="DejaVuSans-6b" transform="scale(0.015625)"/>
        <path d="M 2906 2969 
L 2906 4863 
L 3481 4863 
L 3481 0 
L 2906 0 
L 2906 525 
Q 2725 213 2448 61 
Q 2172 -91 1784 -91 
Q 1150 -91 751 415 
Q 353 922 353 1747 
Q 353 2572 751 3078 
Q 1150 3584 1784 3584 
Q 2172 3584 2448 3432 
Q 2725 3281 2906 2969 
z
M 947 1747 
Q 947 1113 1208 752 
Q 1469 391 1925 391 
Q 2381 391 2643 752 
Q 2906 1113 2906 1747 
Q 2906 2381 2643 2742 
Q 2381 3103 1925 3103 
Q 1469 3103 1208 2742 
Q 947 2381 947 1747 
z
" id="DejaVuSans-64" transform="scale(0.015625)"/>
        <path d="M 2194 1759 
Q 1497 1759 1228 1600 
Q 959 1441 959 1056 
Q 959 750 1161 570 
Q 1363 391 1709 391 
Q 2188 391 2477 730 
Q 2766 1069 2766 1631 
L 2766 1759 
L 2194 1759 
z
M 3341 1997 
L 3341 0 
L 2766 0 
L 2766 531 
Q 2569 213 2275 61 
Q 1981 -91 1556 -91 
Q 1019 -91 701 211 
Q 384 513 384 1019 
Q 384 1609 779 1909 
Q 1175 2209 1959 2209 
L 2766 2209 
L 2766 2266 
Q 2766 2663 2505 2880 
Q 2244 3097 1772 3097 
Q 1472 3097 1187 3025 
Q 903 2953 641 2809 
L 641 3341 
Q 956 3463 1253 3523 
Q 1550 3584 1831 3584 
Q 2591 3584 2966 3190 
Q 3341 2797 3341 1997 
z
" id="DejaVuSans-61" transform="scale(0.015625)"/>
        <path d="M 2059 -325 
Q 1816 -950 1584 -1140 
Q 1353 -1331 966 -1331 
L 506 -1331 
L 506 -850 
L 844 -850 
Q 1081 -850 1212 -737 
Q 1344 -625 1503 -206 
L 1606 56 
L 191 3500 
L 800 3500 
L 1894 763 
L 2988 3500 
L 3597 3500 
L 2059 -325 
z
" id="DejaVuSans-79" transform="scale(0.015625)"/>
       </defs>
       <use xlink:href="#DejaVuSans-57"/>
       <use x="93.001953" xlink:href="#DejaVuSans-6f"/>
       <use x="154.183594" xlink:href="#DejaVuSans-72"/>
       <use x="195.296875" xlink:href="#DejaVuSans-6b"/>
       <use x="253.207031" xlink:href="#DejaVuSans-64"/>
       <use x="316.683594" xlink:href="#DejaVuSans-61"/>
       <use x="377.962891" xlink:href="#DejaVuSans-79"/>
      </g>
      <!-- in winter -->
      <g transform="translate(56.770313 325.314375)scale(0.1 -0.1)">
       <defs>
        <path d="M 603 3500 
L 1178 3500 
L 1178 0 
L 603 0 
L 603 3500 
z
M 603 4863 
L 1178 4863 
L 1178 4134 
L 603 4134 
L 603 4863 
z
" id="DejaVuSans-69" transform="scale(0.015625)"/>
        <path d="M 3513 2113 
L 3513 0 
L 2938 0 
L 2938 2094 
Q 2938 2591 2744 2837 
Q 2550 3084 2163 3084 
Q 1697 3084 1428 2787 
Q 1159 2491 1159 1978 
L 1159 0 
L 581 0 
L 581 3500 
L 1159 3500 
L 1159 2956 
Q 1366 3272 1645 3428 
Q 1925 3584 2291 3584 
Q 2894 3584 3203 3211 
Q 3513 2838 3513 2113 
z
" id="DejaVuSans-6e" transform="scale(0.015625)"/>
        <path id="DejaVuSans-20" transform="scale(0.015625)"/>
        <path d="M 269 3500 
L 844 3500 
L 1563 769 
L 2278 3500 
L 2956 3500 
L 3675 769 
L 4391 3500 
L 4966 3500 
L 4050 0 
L 3372 0 
L 2619 2869 
L 1863 0 
L 1184 0 
L 269 3500 
z
" id="DejaVuSans-77" transform="scale(0.015625)"/>
        <path d="M 1172 4494 
L 1172 3500 
L 2356 3500 
L 2356 3053 
L 1172 3053 
L 1172 1153 
Q 1172 725 1289 603 
Q 1406 481 1766 481 
L 2356 481 
L 2356 0 
L 1766 0 
Q 1100 0 847 248 
Q 594 497 594 1153 
L 594 3053 
L 172 3053 
L 172 3500 
L 594 3500 
L 594 4494 
L 1172 4494 
z
" id="DejaVuSans-74" transform="scale(0.015625)"/>
        <path d="M 3597 1894 
L 3597 1613 
L 953 1613 
Q 991 1019 1311 708 
Q 1631 397 2203 397 
Q 2534 397 2845 478 
Q 3156 559 3463 722 
L 3463 178 
Q 3153 47 2828 -22 
Q 2503 -91 2169 -91 
Q 1331 -91 842 396 
Q 353 884 353 1716 
Q 353 2575 817 3079 
Q 1281 3584 2069 3584 
Q 2775 3584 3186 3129 
Q 3597 2675 3597 1894 
z
M 3022 2063 
Q 3016 2534 2758 2815 
Q 2500 3097 2075 3097 
Q 1594 3097 1305 2825 
Q 1016 2553 972 2059 
L 3022 2063 
z
" id="DejaVuSans-65" transform="scale(0.015625)"/>
       </defs>
       <use xlink:href="#DejaVuSans-69"/>
       <use x="27.783203" xlink:href="#DejaVuSans-6e"/>
       <use x="91.162109" xlink:href="#DejaVuSans-20"/>
       <use x="122.949219" xlink:href="#DejaVuSans-77"/>
       <use x="204.736328" xlink:href="#DejaVuSans-69"/>
       <use x="232.519531" xlink:href="#DejaVuSans-6e"/>
       <use x="295.898438" xlink:href="#DejaVuSans-74"/>
       <use x="335.107422" xlink:href="#DejaVuSans-65"/>
       <use x="396.630859" xlink:href="#DejaVuSans-72"/>
      </g>
     </g>
    </g>
    <g id="xtick_2">
     <g id="line2d_3">
      <path clip-path="url(#p4c56ec1412)" d="M 148.40625 299.518125 
L 148.40625 22.318125 
" style="fill:none;stroke:#b0b0b0;stroke-linecap:square;stroke-width:0.8;"/>
     </g>
     <g id="line2d_4">
      <g>
       <use style="stroke:#000000;stroke-width:0.8;" x="148.40625" xlink:href="#mf9de4cb58f" y="299.518125"/>
      </g>
     </g>
     <g id="text_2">
      <!-- Workday -->
      <g transform="translate(126.548438 314.116563)scale(0.1 -0.1)">
       <use xlink:href="#DejaVuSans-57"/>
       <use x="93.001953" xlink:href="#DejaVuSans-6f"/>
       <use x="154.183594" xlink:href="#DejaVuSans-72"/>
       <use x="195.296875" xlink:href="#DejaVuSans-6b"/>
       <use x="253.207031" xlink:href="#DejaVuSans-64"/>
       <use x="316.683594" xlink:href="#DejaVuSans-61"/>
       <use x="377.962891" xlink:href="#DejaVuSans-79"/>
      </g>
      <!-- in summer -->
      <g transform="translate(121.613281 325.314375)scale(0.1 -0.1)">
       <defs>
        <path d="M 2834 3397 
L 2834 2853 
Q 2591 2978 2328 3040 
Q 2066 3103 1784 3103 
Q 1356 3103 1142 2972 
Q 928 2841 928 2578 
Q 928 2378 1081 2264 
Q 1234 2150 1697 2047 
L 1894 2003 
Q 2506 1872 2764 1633 
Q 3022 1394 3022 966 
Q 3022 478 2636 193 
Q 2250 -91 1575 -91 
Q 1294 -91 989 -36 
Q 684 19 347 128 
L 347 722 
Q 666 556 975 473 
Q 1284 391 1588 391 
Q 1994 391 2212 530 
Q 2431 669 2431 922 
Q 2431 1156 2273 1281 
Q 2116 1406 1581 1522 
L 1381 1569 
Q 847 1681 609 1914 
Q 372 2147 372 2553 
Q 372 3047 722 3315 
Q 1072 3584 1716 3584 
Q 2034 3584 2315 3537 
Q 2597 3491 2834 3397 
z
" id="DejaVuSans-73" transform="scale(0.015625)"/>
        <path d="M 544 1381 
L 544 3500 
L 1119 3500 
L 1119 1403 
Q 1119 906 1312 657 
Q 1506 409 1894 409 
Q 2359 409 2629 706 
Q 2900 1003 2900 1516 
L 2900 3500 
L 3475 3500 
L 3475 0 
L 2900 0 
L 2900 538 
Q 2691 219 2414 64 
Q 2138 -91 1772 -91 
Q 1169 -91 856 284 
Q 544 659 544 1381 
z
M 1991 3584 
L 1991 3584 
z
" id="DejaVuSans-75" transform="scale(0.015625)"/>
        <path d="M 3328 2828 
Q 3544 3216 3844 3400 
Q 4144 3584 4550 3584 
Q 5097 3584 5394 3201 
Q 5691 2819 5691 2113 
L 5691 0 
L 5113 0 
L 5113 2094 
Q 5113 2597 4934 2840 
Q 4756 3084 4391 3084 
Q 3944 3084 3684 2787 
Q 3425 2491 3425 1978 
L 3425 0 
L 2847 0 
L 2847 2094 
Q 2847 2600 2669 2842 
Q 2491 3084 2119 3084 
Q 1678 3084 1418 2786 
Q 1159 2488 1159 1978 
L 1159 0 
L 581 0 
L 581 3500 
L 1159 3500 
L 1159 2956 
Q 1356 3278 1631 3431 
Q 1906 3584 2284 3584 
Q 2666 3584 2933 3390 
Q 3200 3197 3328 2828 
z
" id="DejaVuSans-6d" transform="scale(0.015625)"/>
       </defs>
       <use xlink:href="#DejaVuSans-69"/>
       <use x="27.783203" xlink:href="#DejaVuSans-6e"/>
       <use x="91.162109" xlink:href="#DejaVuSans-20"/>
       <use x="122.949219" xlink:href="#DejaVuSans-73"/>
       <use x="175.048828" xlink:href="#DejaVuSans-75"/>
       <use x="238.427734" xlink:href="#DejaVuSans-6d"/>
       <use x="335.839844" xlink:href="#DejaVuSans-6d"/>
       <use x="433.251953" xlink:href="#DejaVuSans-65"/>
       <use x="494.775391" xlink:href="#DejaVuSans-72"/>
      </g>
     </g>
    </g>
    <g id="xtick_3">
     <g id="line2d_5">
      <path clip-path="url(#p4c56ec1412)" d="M 218.15625 299.518125 
L 218.15625 22.318125 
" style="fill:none;stroke:#b0b0b0;stroke-linecap:square;stroke-width:0.8;"/>
     </g>
     <g id="line2d_6">
      <g>
       <use style="stroke:#000000;stroke-width:0.8;" x="218.15625" xlink:href="#mf9de4cb58f" y="299.518125"/>
      </g>
     </g>
     <g id="text_3">
      <!-- Holiday -->
      <g transform="translate(199.360938 314.116563)scale(0.1 -0.1)">
       <defs>
        <path d="M 628 4666 
L 1259 4666 
L 1259 2753 
L 3553 2753 
L 3553 4666 
L 4184 4666 
L 4184 0 
L 3553 0 
L 3553 2222 
L 1259 2222 
L 1259 0 
L 628 0 
L 628 4666 
z
" id="DejaVuSans-48" transform="scale(0.015625)"/>
        <path d="M 603 4863 
L 1178 4863 
L 1178 0 
L 603 0 
L 603 4863 
z
" id="DejaVuSans-6c" transform="scale(0.015625)"/>
       </defs>
       <use xlink:href="#DejaVuSans-48"/>
       <use x="75.195312" xlink:href="#DejaVuSans-6f"/>
       <use x="136.376953" xlink:href="#DejaVuSans-6c"/>
       <use x="164.160156" xlink:href="#DejaVuSans-69"/>
       <use x="191.943359" xlink:href="#DejaVuSans-64"/>
       <use x="255.419922" xlink:href="#DejaVuSans-61"/>
       <use x="316.699219" xlink:href="#DejaVuSans-79"/>
      </g>
      <!-- in winter -->
      <g transform="translate(196.270312 325.314375)scale(0.1 -0.1)">
       <use xlink:href="#DejaVuSans-69"/>
       <use x="27.783203" xlink:href="#DejaVuSans-6e"/>
       <use x="91.162109" xlink:href="#DejaVuSans-20"/>
       <use x="122.949219" xlink:href="#DejaVuSans-77"/>
       <use x="204.736328" xlink:href="#DejaVuSans-69"/>
       <use x="232.519531" xlink:href="#DejaVuSans-6e"/>
       <use x="295.898438" xlink:href="#DejaVuSans-74"/>
       <use x="335.107422" xlink:href="#DejaVuSans-65"/>
       <use x="396.630859" xlink:href="#DejaVuSans-72"/>
      </g>
     </g>
    </g>
    <g id="xtick_4">
     <g id="line2d_7">
      <path clip-path="url(#p4c56ec1412)" d="M 287.90625 299.518125 
L 287.90625 22.318125 
" style="fill:none;stroke:#b0b0b0;stroke-linecap:square;stroke-width:0.8;"/>
     </g>
     <g id="line2d_8">
      <g>
       <use style="stroke:#000000;stroke-width:0.8;" x="287.90625" xlink:href="#mf9de4cb58f" y="299.518125"/>
      </g>
     </g>
     <g id="text_4">
      <!-- Holiday -->
      <g transform="translate(269.110937 314.116563)scale(0.1 -0.1)">
       <use xlink:href="#DejaVuSans-48"/>
       <use x="75.195312" xlink:href="#DejaVuSans-6f"/>
       <use x="136.376953" xlink:href="#DejaVuSans-6c"/>
       <use x="164.160156" xlink:href="#DejaVuSans-69"/>
       <use x="191.943359" xlink:href="#DejaVuSans-64"/>
       <use x="255.419922" xlink:href="#DejaVuSans-61"/>
       <use x="316.699219" xlink:href="#DejaVuSans-79"/>
      </g>
      <!-- in summer -->
      <g transform="translate(261.113281 325.314375)scale(0.1 -0.1)">
       <use xlink:href="#DejaVuSans-69"/>
       <use x="27.783203" xlink:href="#DejaVuSans-6e"/>
       <use x="91.162109" xlink:href="#DejaVuSans-20"/>
       <use x="122.949219" xlink:href="#DejaVuSans-73"/>
       <use x="175.048828" xlink:href="#DejaVuSans-75"/>
       <use x="238.427734" xlink:href="#DejaVuSans-6d"/>
       <use x="335.839844" xlink:href="#DejaVuSans-6d"/>
       <use x="433.251953" xlink:href="#DejaVuSans-65"/>
       <use x="494.775391" xlink:href="#DejaVuSans-72"/>
      </g>
     </g>
    </g>
   </g>
   <g id="matplotlib.axis_2">
    <g id="ytick_1">
     <g id="line2d_9">
      <path clip-path="url(#p4c56ec1412)" d="M 43.78125 299.518125 
L 322.78125 299.518125 
" style="fill:none;stroke:#b0b0b0;stroke-linecap:square;stroke-width:0.8;"/>
     </g>
     <g id="line2d_10">
      <defs>
       <path d="M 0 0 
L -3.5 0 
" id="m1e60ca40e8" style="stroke:#000000;stroke-width:0.8;"/>
      </defs>
      <g>
       <use style="stroke:#000000;stroke-width:0.8;" x="43.78125" xlink:href="#m1e60ca40e8" y="299.518125"/>
      </g>
     </g>
     <g id="text_5">
      <!-- 0.0 -->
      <g transform="translate(20.878125 303.317344)scale(0.1 -0.1)">
       <defs>
        <path d="M 2034 4250 
Q 1547 4250 1301 3770 
Q 1056 3291 1056 2328 
Q 1056 1369 1301 889 
Q 1547 409 2034 409 
Q 2525 409 2770 889 
Q 3016 1369 3016 2328 
Q 3016 3291 2770 3770 
Q 2525 4250 2034 4250 
z
M 2034 4750 
Q 2819 4750 3233 4129 
Q 3647 3509 3647 2328 
Q 3647 1150 3233 529 
Q 2819 -91 2034 -91 
Q 1250 -91 836 529 
Q 422 1150 422 2328 
Q 422 3509 836 4129 
Q 1250 4750 2034 4750 
z
" id="DejaVuSans-30" transform="scale(0.015625)"/>
        <path d="M 684 794 
L 1344 794 
L 1344 0 
L 684 0 
L 684 794 
z
" id="DejaVuSans-2e" transform="scale(0.015625)"/>
       </defs>
       <use xlink:href="#DejaVuSans-30"/>
       <use x="63.623047" xlink:href="#DejaVuSans-2e"/>
       <use x="95.410156" xlink:href="#DejaVuSans-30"/>
      </g>
     </g>
    </g>
    <g id="ytick_2">
     <g id="line2d_11">
      <path clip-path="url(#p4c56ec1412)" d="M 43.78125 244.078125 
L 322.78125 244.078125 
" style="fill:none;stroke:#b0b0b0;stroke-linecap:square;stroke-width:0.8;"/>
     </g>
     <g id="line2d_12">
      <g>
       <use style="stroke:#000000;stroke-width:0.8;" x="43.78125" xlink:href="#m1e60ca40e8" y="244.078125"/>
      </g>
     </g>
     <g id="text_6">
      <!-- 0.2 -->
      <g transform="translate(20.878125 247.877344)scale(0.1 -0.1)">
       <defs>
        <path d="M 1228 531 
L 3431 531 
L 3431 0 
L 469 0 
L 469 531 
Q 828 903 1448 1529 
Q 2069 2156 2228 2338 
Q 2531 2678 2651 2914 
Q 2772 3150 2772 3378 
Q 2772 3750 2511 3984 
Q 2250 4219 1831 4219 
Q 1534 4219 1204 4116 
Q 875 4013 500 3803 
L 500 4441 
Q 881 4594 1212 4672 
Q 1544 4750 1819 4750 
Q 2544 4750 2975 4387 
Q 3406 4025 3406 3419 
Q 3406 3131 3298 2873 
Q 3191 2616 2906 2266 
Q 2828 2175 2409 1742 
Q 1991 1309 1228 531 
z
" id="DejaVuSans-32" transform="scale(0.015625)"/>
       </defs>
       <use xlink:href="#DejaVuSans-30"/>
       <use x="63.623047" xlink:href="#DejaVuSans-2e"/>
       <use x="95.410156" xlink:href="#DejaVuSans-32"/>
      </g>
     </g>
    </g>
    <g id="ytick_3">
     <g id="line2d_13">
      <path clip-path="url(#p4c56ec1412)" d="M 43.78125 188.638125 
L 322.78125 188.638125 
" style="fill:none;stroke:#b0b0b0;stroke-linecap:square;stroke-width:0.8;"/>
     </g>
     <g id="line2d_14">
      <g>
       <use style="stroke:#000000;stroke-width:0.8;" x="43.78125" xlink:href="#m1e60ca40e8" y="188.638125"/>
      </g>
     </g>
     <g id="text_7">
      <!-- 0.4 -->
      <g transform="translate(20.878125 192.437344)scale(0.1 -0.1)">
       <defs>
        <path d="M 2419 4116 
L 825 1625 
L 2419 1625 
L 2419 4116 
z
M 2253 4666 
L 3047 4666 
L 3047 1625 
L 3713 1625 
L 3713 1100 
L 3047 1100 
L 3047 0 
L 2419 0 
L 2419 1100 
L 313 1100 
L 313 1709 
L 2253 4666 
z
" id="DejaVuSans-34" transform="scale(0.015625)"/>
       </defs>
       <use xlink:href="#DejaVuSans-30"/>
       <use x="63.623047" xlink:href="#DejaVuSans-2e"/>
       <use x="95.410156" xlink:href="#DejaVuSans-34"/>
      </g>
     </g>
    </g>
    <g id="ytick_4">
     <g id="line2d_15">
      <path clip-path="url(#p4c56ec1412)" d="M 43.78125 133.198125 
L 322.78125 133.198125 
" style="fill:none;stroke:#b0b0b0;stroke-linecap:square;stroke-width:0.8;"/>
     </g>
     <g id="line2d_16">
      <g>
       <use style="stroke:#000000;stroke-width:0.8;" x="43.78125" xlink:href="#m1e60ca40e8" y="133.198125"/>
      </g>
     </g>
     <g id="text_8">
      <!-- 0.6 -->
      <g transform="translate(20.878125 136.997344)scale(0.1 -0.1)">
       <defs>
        <path d="M 2113 2584 
Q 1688 2584 1439 2293 
Q 1191 2003 1191 1497 
Q 1191 994 1439 701 
Q 1688 409 2113 409 
Q 2538 409 2786 701 
Q 3034 994 3034 1497 
Q 3034 2003 2786 2293 
Q 2538 2584 2113 2584 
z
M 3366 4563 
L 3366 3988 
Q 3128 4100 2886 4159 
Q 2644 4219 2406 4219 
Q 1781 4219 1451 3797 
Q 1122 3375 1075 2522 
Q 1259 2794 1537 2939 
Q 1816 3084 2150 3084 
Q 2853 3084 3261 2657 
Q 3669 2231 3669 1497 
Q 3669 778 3244 343 
Q 2819 -91 2113 -91 
Q 1303 -91 875 529 
Q 447 1150 447 2328 
Q 447 3434 972 4092 
Q 1497 4750 2381 4750 
Q 2619 4750 2861 4703 
Q 3103 4656 3366 4563 
z
" id="DejaVuSans-36" transform="scale(0.015625)"/>
       </defs>
       <use xlink:href="#DejaVuSans-30"/>
       <use x="63.623047" xlink:href="#DejaVuSans-2e"/>
       <use x="95.410156" xlink:href="#DejaVuSans-36"/>
      </g>
     </g>
    </g>
    <g id="ytick_5">
     <g id="line2d_17">
      <path clip-path="url(#p4c56ec1412)" d="M 43.78125 77.758125 
L 322.78125 77.758125 
" style="fill:none;stroke:#b0b0b0;stroke-linecap:square;stroke-width:0.8;"/>
     </g>
     <g id="line2d_18">
      <g>
       <use style="stroke:#000000;stroke-width:0.8;" x="43.78125" xlink:href="#m1e60ca40e8" y="77.758125"/>
      </g>
     </g>
     <g id="text_9">
      <!-- 0.8 -->
      <g transform="translate(20.878125 81.557344)scale(0.1 -0.1)">
       <defs>
        <path d="M 2034 2216 
Q 1584 2216 1326 1975 
Q 1069 1734 1069 1313 
Q 1069 891 1326 650 
Q 1584 409 2034 409 
Q 2484 409 2743 651 
Q 3003 894 3003 1313 
Q 3003 1734 2745 1975 
Q 2488 2216 2034 2216 
z
M 1403 2484 
Q 997 2584 770 2862 
Q 544 3141 544 3541 
Q 544 4100 942 4425 
Q 1341 4750 2034 4750 
Q 2731 4750 3128 4425 
Q 3525 4100 3525 3541 
Q 3525 3141 3298 2862 
Q 3072 2584 2669 2484 
Q 3125 2378 3379 2068 
Q 3634 1759 3634 1313 
Q 3634 634 3220 271 
Q 2806 -91 2034 -91 
Q 1263 -91 848 271 
Q 434 634 434 1313 
Q 434 1759 690 2068 
Q 947 2378 1403 2484 
z
M 1172 3481 
Q 1172 3119 1398 2916 
Q 1625 2713 2034 2713 
Q 2441 2713 2670 2916 
Q 2900 3119 2900 3481 
Q 2900 3844 2670 4047 
Q 2441 4250 2034 4250 
Q 1625 4250 1398 4047 
Q 1172 3844 1172 3481 
z
" id="DejaVuSans-38" transform="scale(0.015625)"/>
       </defs>
       <use xlink:href="#DejaVuSans-30"/>
       <use x="63.623047" xlink:href="#DejaVuSans-2e"/>
       <use x="95.410156" xlink:href="#DejaVuSans-38"/>
      </g>
     </g>
    </g>
    <g id="ytick_6">
     <g id="line2d_19">
      <path clip-path="url(#p4c56ec1412)" d="M 43.78125 22.318125 
L 322.78125 22.318125 
" style="fill:none;stroke:#b0b0b0;stroke-linecap:square;stroke-width:0.8;"/>
     </g>
     <g id="line2d_20">
      <g>
       <use style="stroke:#000000;stroke-width:0.8;" x="43.78125" xlink:href="#m1e60ca40e8" y="22.318125"/>
      </g>
     </g>
     <g id="text_10">
      <!-- 1.0 -->
      <g transform="translate(20.878125 26.117344)scale(0.1 -0.1)">
       <defs>
        <path d="M 794 531 
L 1825 531 
L 1825 4091 
L 703 3866 
L 703 4441 
L 1819 4666 
L 2450 4666 
L 2450 531 
L 3481 531 
L 3481 0 
L 794 0 
L 794 531 
z
" id="DejaVuSans-31" transform="scale(0.015625)"/>
       </defs>
       <use xlink:href="#DejaVuSans-31"/>
       <use x="63.623047" xlink:href="#DejaVuSans-2e"/>
       <use x="95.410156" xlink:href="#DejaVuSans-30"/>
      </g>
     </g>
    </g>
    <g id="text_11">
     <!-- Utility factor -->
     <g transform="translate(14.798438 191.861875)rotate(-90)scale(0.1 -0.1)">
      <defs>
       <path d="M 556 4666 
L 1191 4666 
L 1191 1831 
Q 1191 1081 1462 751 
Q 1734 422 2344 422 
Q 2950 422 3222 751 
Q 3494 1081 3494 1831 
L 3494 4666 
L 4128 4666 
L 4128 1753 
Q 4128 841 3676 375 
Q 3225 -91 2344 -91 
Q 1459 -91 1007 375 
Q 556 841 556 1753 
L 556 4666 
z
" id="DejaVuSans-55" transform="scale(0.015625)"/>
       <path d="M 2375 4863 
L 2375 4384 
L 1825 4384 
Q 1516 4384 1395 4259 
Q 1275 4134 1275 3809 
L 1275 3500 
L 2222 3500 
L 2222 3053 
L 1275 3053 
L 1275 0 
L 697 0 
L 697 3053 
L 147 3053 
L 147 3500 
L 697 3500 
L 697 3744 
Q 697 4328 969 4595 
Q 1241 4863 1831 4863 
L 2375 4863 
z
" id="DejaVuSans-66" transform="scale(0.015625)"/>
       <path d="M 3122 3366 
L 3122 2828 
Q 2878 2963 2633 3030 
Q 2388 3097 2138 3097 
Q 1578 3097 1268 2742 
Q 959 2388 959 1747 
Q 959 1106 1268 751 
Q 1578 397 2138 397 
Q 2388 397 2633 464 
Q 2878 531 3122 666 
L 3122 134 
Q 2881 22 2623 -34 
Q 2366 -91 2075 -91 
Q 1284 -91 818 406 
Q 353 903 353 1747 
Q 353 2603 823 3093 
Q 1294 3584 2113 3584 
Q 2378 3584 2631 3529 
Q 2884 3475 3122 3366 
z
" id="DejaVuSans-63" transform="scale(0.015625)"/>
      </defs>
      <use xlink:href="#DejaVuSans-55"/>
      <use x="73.193359" xlink:href="#DejaVuSans-74"/>
      <use x="112.402344" xlink:href="#DejaVuSans-69"/>
      <use x="140.185547" xlink:href="#DejaVuSans-6c"/>
      <use x="167.96875" xlink:href="#DejaVuSans-69"/>
      <use x="195.751953" xlink:href="#DejaVuSans-74"/>
      <use x="234.960938" xlink:href="#DejaVuSans-79"/>
      <use x="294.140625" xlink:href="#DejaVuSans-20"/>
      <use x="325.927734" xlink:href="#DejaVuSans-66"/>
      <use x="361.132812" xlink:href="#DejaVuSans-61"/>
      <use x="422.412109" xlink:href="#DejaVuSans-63"/>
      <use x="477.392578" xlink:href="#DejaVuSans-74"/>
      <use x="516.601562" xlink:href="#DejaVuSans-6f"/>
      <use x="577.783203" xlink:href="#DejaVuSans-72"/>
     </g>
    </g>
   </g>
   <g id="line2d_21">
    <path clip-path="url(#p4c56ec1412)" d="M 78.65625 182.02541 
L 78.65625 253.343749 
" style="fill:none;stroke:#6c757d;stroke-linecap:square;stroke-width:2;"/>
   </g>
   <g id="line2d_22">
    <path clip-path="url(#p4c56ec1412)" d="M 78.65625 127.902449 
L 78.65625 77.458686 
" style="fill:none;stroke:#6c757d;stroke-linecap:square;stroke-width:2;"/>
   </g>
   <g id="line2d_23">
    <path clip-path="url(#p4c56ec1412)" d="M 73.425 253.343749 
L 83.8875 253.343749 
" style="fill:none;stroke:#6c757d;stroke-linecap:square;stroke-width:2;"/>
   </g>
   <g id="line2d_24">
    <path clip-path="url(#p4c56ec1412)" d="M 73.425 77.458686 
L 83.8875 77.458686 
" style="fill:none;stroke:#6c757d;stroke-linecap:square;stroke-width:2;"/>
   </g>
   <g id="line2d_25"/>
   <g id="line2d_26">
    <path clip-path="url(#p4c56ec1412)" d="M 148.40625 198.460132 
L 148.40625 264.723768 
" style="fill:none;stroke:#6c757d;stroke-linecap:square;stroke-width:2;"/>
   </g>
   <g id="line2d_27">
    <path clip-path="url(#p4c56ec1412)" d="M 148.40625 133.210778 
L 148.40625 81.504041 
" style="fill:none;stroke:#6c757d;stroke-linecap:square;stroke-width:2;"/>
   </g>
   <g id="line2d_28">
    <path clip-path="url(#p4c56ec1412)" d="M 143.175 264.723768 
L 153.6375 264.723768 
" style="fill:none;stroke:#6c757d;stroke-linecap:square;stroke-width:2;"/>
   </g>
   <g id="line2d_29">
    <path clip-path="url(#p4c56ec1412)" d="M 143.175 81.504041 
L 153.6375 81.504041 
" style="fill:none;stroke:#6c757d;stroke-linecap:square;stroke-width:2;"/>
   </g>
   <g id="line2d_30"/>
   <g id="line2d_31">
    <path clip-path="url(#p4c56ec1412)" d="M 218.15625 199.381193 
L 218.15625 264.488358 
" style="fill:none;stroke:#6c757d;stroke-linecap:square;stroke-width:2;"/>
   </g>
   <g id="line2d_32">
    <path clip-path="url(#p4c56ec1412)" d="M 218.15625 133.820873 
L 218.15625 82.708981 
" style="fill:none;stroke:#6c757d;stroke-linecap:square;stroke-width:2;"/>
   </g>
   <g id="line2d_33">
    <path clip-path="url(#p4c56ec1412)" d="M 212.925 264.488358 
L 223.3875 264.488358 
" style="fill:none;stroke:#6c757d;stroke-linecap:square;stroke-width:2;"/>
   </g>
   <g id="line2d_34">
    <path clip-path="url(#p4c56ec1412)" d="M 212.925 82.708981 
L 223.3875 82.708981 
" style="fill:none;stroke:#6c757d;stroke-linecap:square;stroke-width:2;"/>
   </g>
   <g id="line2d_35"/>
   <g id="line2d_36">
    <path clip-path="url(#p4c56ec1412)" d="M 287.90625 219.023688 
L 287.90625 272.441128 
" style="fill:none;stroke:#6c757d;stroke-linecap:square;stroke-width:2;"/>
   </g>
   <g id="line2d_37">
    <path clip-path="url(#p4c56ec1412)" d="M 287.90625 139.327678 
L 287.90625 86.239286 
" style="fill:none;stroke:#6c757d;stroke-linecap:square;stroke-width:2;"/>
   </g>
   <g id="line2d_38">
    <path clip-path="url(#p4c56ec1412)" d="M 282.675 272.441128 
L 293.1375 272.441128 
" style="fill:none;stroke:#6c757d;stroke-linecap:square;stroke-width:2;"/>
   </g>
   <g id="line2d_39">
    <path clip-path="url(#p4c56ec1412)" d="M 282.675 86.239286 
L 293.1375 86.239286 
" style="fill:none;stroke:#6c757d;stroke-linecap:square;stroke-width:2;"/>
   </g>
   <g id="line2d_40"/>
   <g id="patch_3">
    <path clip-path="url(#p4c56ec1412)" d="M 68.19375 182.02541 
L 89.11875 182.02541 
L 89.11875 127.902449 
L 68.19375 127.902449 
L 68.19375 182.02541 
z
" style="fill:#118ab2;fill-opacity:0.7;stroke:#6c757d;stroke-linejoin:miter;"/>
   </g>
   <g id="patch_4">
    <path clip-path="url(#p4c56ec1412)" d="M 137.94375 198.460132 
L 158.86875 198.460132 
L 158.86875 133.210778 
L 137.94375 133.210778 
L 137.94375 198.460132 
z
" style="fill:#06d6a0;fill-opacity:0.7;stroke:#6c757d;stroke-linejoin:miter;"/>
   </g>
   <g id="patch_5">
    <path clip-path="url(#p4c56ec1412)" d="M 207.69375 199.381193 
L 228.61875 199.381193 
L 228.61875 133.820873 
L 207.69375 133.820873 
L 207.69375 199.381193 
z
" style="fill:#ffd166;fill-opacity:0.7;stroke:#6c757d;stroke-linejoin:miter;"/>
   </g>
   <g id="patch_6">
    <path clip-path="url(#p4c56ec1412)" d="M 277.44375 219.023688 
L 298.36875 219.023688 
L 298.36875 139.327678 
L 277.44375 139.327678 
L 277.44375 219.023688 
z
" style="fill:#ef476f;fill-opacity:0.7;stroke:#6c757d;stroke-linejoin:miter;"/>
   </g>
   <g id="line2d_41">
    <path clip-path="url(#p4c56ec1412)" d="M 68.19375 152.997582 
L 89.11875 152.997582 
" style="fill:none;stroke:#9d0208;stroke-linecap:square;stroke-width:1.5;"/>
   </g>
   <g id="line2d_42">
    <path clip-path="url(#p4c56ec1412)" d="M 137.94375 162.407606 
L 158.86875 162.407606 
" style="fill:none;stroke:#9d0208;stroke-linecap:square;stroke-width:1.5;"/>
   </g>
   <g id="line2d_43">
    <path clip-path="url(#p4c56ec1412)" d="M 207.69375 162.32185 
L 228.61875 162.32185 
" style="fill:none;stroke:#9d0208;stroke-linecap:square;stroke-width:1.5;"/>
   </g>
   <g id="line2d_44">
    <path clip-path="url(#p4c56ec1412)" d="M 277.44375 175.162638 
L 298.36875 175.162638 
" style="fill:none;stroke:#9d0208;stroke-linecap:square;stroke-width:1.5;"/>
   </g>
   <g id="patch_7">
    <path d="M 43.78125 299.518125 
L 43.78125 22.318125 
" style="fill:none;stroke:#000000;stroke-linecap:square;stroke-linejoin:miter;stroke-width:0.8;"/>
   </g>
   <g id="patch_8">
    <path d="M 322.78125 299.518125 
L 322.78125 22.318125 
" style="fill:none;stroke:#000000;stroke-linecap:square;stroke-linejoin:miter;stroke-width:0.8;"/>
   </g>
   <g id="patch_9">
    <path d="M 43.78125 299.518125 
L 322.78125 299.518125 
" style="fill:none;stroke:#000000;stroke-linecap:square;stroke-linejoin:miter;stroke-width:0.8;"/>
   </g>
   <g id="patch_10">
    <path d="M 43.78125 22.318125 
L 322.78125 22.318125 
" style="fill:none;stroke:#000000;stroke-linecap:square;stroke-linejoin:miter;stroke-width:0.8;"/>
   </g>
   <g id="text_12">
    <!-- Comparison of utility factor distributions -->
    <g transform="translate(61.992188 16.318125)scale(0.12 -0.12)">
     <defs>
      <path d="M 4122 4306 
L 4122 3641 
Q 3803 3938 3442 4084 
Q 3081 4231 2675 4231 
Q 1875 4231 1450 3742 
Q 1025 3253 1025 2328 
Q 1025 1406 1450 917 
Q 1875 428 2675 428 
Q 3081 428 3442 575 
Q 3803 722 4122 1019 
L 4122 359 
Q 3791 134 3420 21 
Q 3050 -91 2638 -91 
Q 1578 -91 968 557 
Q 359 1206 359 2328 
Q 359 3453 968 4101 
Q 1578 4750 2638 4750 
Q 3056 4750 3426 4639 
Q 3797 4528 4122 4306 
z
" id="DejaVuSans-43" transform="scale(0.015625)"/>
      <path d="M 1159 525 
L 1159 -1331 
L 581 -1331 
L 581 3500 
L 1159 3500 
L 1159 2969 
Q 1341 3281 1617 3432 
Q 1894 3584 2278 3584 
Q 2916 3584 3314 3078 
Q 3713 2572 3713 1747 
Q 3713 922 3314 415 
Q 2916 -91 2278 -91 
Q 1894 -91 1617 61 
Q 1341 213 1159 525 
z
M 3116 1747 
Q 3116 2381 2855 2742 
Q 2594 3103 2138 3103 
Q 1681 3103 1420 2742 
Q 1159 2381 1159 1747 
Q 1159 1113 1420 752 
Q 1681 391 2138 391 
Q 2594 391 2855 752 
Q 3116 1113 3116 1747 
z
" id="DejaVuSans-70" transform="scale(0.015625)"/>
      <path d="M 3116 1747 
Q 3116 2381 2855 2742 
Q 2594 3103 2138 3103 
Q 1681 3103 1420 2742 
Q 1159 2381 1159 1747 
Q 1159 1113 1420 752 
Q 1681 391 2138 391 
Q 2594 391 2855 752 
Q 3116 1113 3116 1747 
z
M 1159 2969 
Q 1341 3281 1617 3432 
Q 1894 3584 2278 3584 
Q 2916 3584 3314 3078 
Q 3713 2572 3713 1747 
Q 3713 922 3314 415 
Q 2916 -91 2278 -91 
Q 1894 -91 1617 61 
Q 1341 213 1159 525 
L 1159 0 
L 581 0 
L 581 4863 
L 1159 4863 
L 1159 2969 
z
" id="DejaVuSans-62" transform="scale(0.015625)"/>
     </defs>
     <use xlink:href="#DejaVuSans-43"/>
     <use x="69.824219" xlink:href="#DejaVuSans-6f"/>
     <use x="131.005859" xlink:href="#DejaVuSans-6d"/>
     <use x="228.417969" xlink:href="#DejaVuSans-70"/>
     <use x="291.894531" xlink:href="#DejaVuSans-61"/>
     <use x="353.173828" xlink:href="#DejaVuSans-72"/>
     <use x="394.287109" xlink:href="#DejaVuSans-69"/>
     <use x="422.070312" xlink:href="#DejaVuSans-73"/>
     <use x="474.169922" xlink:href="#DejaVuSans-6f"/>
     <use x="535.351562" xlink:href="#DejaVuSans-6e"/>
     <use x="598.730469" xlink:href="#DejaVuSans-20"/>
     <use x="630.517578" xlink:href="#DejaVuSans-6f"/>
     <use x="691.699219" xlink:href="#DejaVuSans-66"/>
     <use x="726.904297" xlink:href="#DejaVuSans-20"/>
     <use x="758.691406" xlink:href="#DejaVuSans-75"/>
     <use x="822.070312" xlink:href="#DejaVuSans-74"/>
     <use x="861.279297" xlink:href="#DejaVuSans-69"/>
     <use x="889.0625" xlink:href="#DejaVuSans-6c"/>
     <use x="916.845703" xlink:href="#DejaVuSans-69"/>
     <use x="944.628906" xlink:href="#DejaVuSans-74"/>
     <use x="983.837891" xlink:href="#DejaVuSans-79"/>
     <use x="1043.017578" xlink:href="#DejaVuSans-20"/>
     <use x="1074.804688" xlink:href="#DejaVuSans-66"/>
     <use x="1110.009766" xlink:href="#DejaVuSans-61"/>
     <use x="1171.289062" xlink:href="#DejaVuSans-63"/>
     <use x="1226.269531" xlink:href="#DejaVuSans-74"/>
     <use x="1265.478516" xlink:href="#DejaVuSans-6f"/>
     <use x="1326.660156" xlink:href="#DejaVuSans-72"/>
     <use x="1367.773438" xlink:href="#DejaVuSans-20"/>
     <use x="1399.560547" xlink:href="#DejaVuSans-64"/>
     <use x="1463.037109" xlink:href="#DejaVuSans-69"/>
     <use x="1490.820312" xlink:href="#DejaVuSans-73"/>
     <use x="1542.919922" xlink:href="#DejaVuSans-74"/>
     <use x="1582.128906" xlink:href="#DejaVuSans-72"/>
     <use x="1623.242188" xlink:href="#DejaVuSans-69"/>
     <use x="1651.025391" xlink:href="#DejaVuSans-62"/>
     <use x="1714.501953" xlink:href="#DejaVuSans-75"/>
     <use x="1777.880859" xlink:href="#DejaVuSans-74"/>
     <use x="1817.089844" xlink:href="#DejaVuSans-69"/>
     <use x="1844.873047" xlink:href="#DejaVuSans-6f"/>
     <use x="1906.054688" xlink:href="#DejaVuSans-6e"/>
     <use x="1969.433594" xlink:href="#DejaVuSans-73"/>
    </g>
   </g>
   <g id="legend_1">
    <g id="patch_11">
     <path d="M 237.94875 48.316875 
L 314.38125 48.316875 
Q 316.78125 48.316875 316.78125 45.916875 
L 316.78125 30.718125 
Q 316.78125 28.318125 314.38125 28.318125 
L 237.94875 28.318125 
Q 235.54875 28.318125 235.54875 30.718125 
L 235.54875 45.916875 
Q 235.54875 48.316875 237.94875 48.316875 
z
" style="fill:#ffffff;opacity:0.8;stroke:#cccccc;stroke-linejoin:miter;"/>
    </g>
    <g id="line2d_45">
     <path d="M 240.34875 37.318125 
L 264.34875 37.318125 
" style="fill:none;stroke:#9d0208;stroke-linecap:square;stroke-width:1.5;"/>
    </g>
    <g id="line2d_46"/>
    <g id="text_13">
     <!-- Median -->
     <g transform="translate(273.94875 41.518125)scale(0.12 -0.12)">
      <defs>
       <path d="M 4653 0 
L 4134 0 
L 4134 3725 
L 2747 0 
L 2384 0 
L 988 3725 
L 988 0 
L 534 0 
L 534 4266 
L 1328 4266 
L 2613 853 
L 3872 4266 
L 4653 4266 
L 4653 0 
z
" id="FranklinGothic-Book-4d" transform="scale(0.015625)"/>
       <path d="M 2575 941 
L 3031 847 
Q 2906 444 2543 180 
Q 2181 -84 1691 -84 
Q 1044 -84 644 370 
Q 244 825 244 1563 
Q 244 2316 659 2780 
Q 1075 3244 1703 3244 
Q 2322 3244 2698 2816 
Q 3075 2388 3084 1534 
L 791 1534 
Q 791 819 1091 569 
Q 1391 319 1725 319 
Q 2328 319 2575 941 
z
M 2547 1900 
Q 2541 2166 2459 2372 
Q 2378 2578 2184 2723 
Q 1991 2869 1719 2869 
Q 1353 2869 1098 2606 
Q 844 2344 813 1900 
L 2547 1900 
z
" id="FranklinGothic-Book-65" transform="scale(0.015625)"/>
       <path d="M 2956 4266 
L 2956 0 
L 2509 0 
L 2509 541 
Q 2178 -84 1513 -84 
Q 959 -84 603 380 
Q 247 844 247 1553 
Q 247 2278 600 2761 
Q 953 3244 1538 3244 
Q 2106 3244 2466 2725 
L 2466 4266 
L 2956 4266 
z
M 2466 1938 
Q 2466 2353 2212 2603 
Q 1959 2853 1622 2853 
Q 1256 2853 1020 2528 
Q 784 2203 784 1616 
Q 784 981 1001 650 
Q 1219 319 1597 319 
Q 1941 319 2203 606 
Q 2466 894 2466 1281 
L 2466 1938 
z
" id="FranklinGothic-Book-64" transform="scale(0.015625)"/>
       <path d="M 997 4266 
L 997 3722 
L 469 3722 
L 469 4266 
L 997 4266 
z
M 981 3156 
L 981 0 
L 491 0 
L 491 3156 
L 981 3156 
z
" id="FranklinGothic-Book-69" transform="scale(0.015625)"/>
       <path d="M 2963 0 
L 2475 0 
Q 2447 150 2419 569 
Q 2094 -84 1313 -84 
Q 781 -84 497 197 
Q 213 478 213 872 
Q 213 1350 619 1658 
Q 1025 1966 2000 1966 
Q 2131 1966 2419 1953 
Q 2419 2328 2361 2495 
Q 2303 2663 2115 2763 
Q 1928 2863 1622 2863 
Q 875 2863 753 2294 
L 300 2372 
Q 466 3244 1694 3244 
Q 2347 3244 2620 2955 
Q 2894 2666 2894 1953 
L 2894 613 
Q 2894 278 2963 0 
z
M 2419 1578 
Q 2119 1597 1963 1597 
Q 1381 1597 1059 1406 
Q 738 1216 738 850 
Q 738 619 911 456 
Q 1084 294 1413 294 
Q 1856 294 2142 616 
Q 2428 938 2428 1372 
Q 2428 1459 2419 1578 
z
" id="FranklinGothic-Book-61" transform="scale(0.015625)"/>
       <path d="M 2978 0 
L 2519 0 
L 2519 2028 
Q 2519 2466 2328 2644 
Q 2138 2822 1866 2822 
Q 1491 2822 1236 2522 
Q 981 2222 981 1731 
L 981 0 
L 491 0 
L 491 3156 
L 947 3156 
L 947 2575 
Q 1331 3244 1944 3244 
Q 2297 3244 2545 3061 
Q 2794 2878 2886 2650 
Q 2978 2422 2978 1825 
L 2978 0 
z
" id="FranklinGothic-Book-6e" transform="scale(0.015625)"/>
      </defs>
      <use xlink:href="#FranklinGothic-Book-4d"/>
      <use x="81.005859" xlink:href="#FranklinGothic-Book-65"/>
      <use x="133.056641" xlink:href="#FranklinGothic-Book-64"/>
      <use x="186.914062" xlink:href="#FranklinGothic-Book-69"/>
      <use x="209.863281" xlink:href="#FranklinGothic-Book-61"/>
      <use x="262.744141" xlink:href="#FranklinGothic-Book-6e"/>
     </g>
    </g>
   </g>
  </g>
 </g>
 <defs>
  <clipPath id="p4c56ec1412">
   <rect height="277.2" width="279" x="43.78125" y="22.318125"/>
  </clipPath>
 </defs>
</svg>
